<?xml version="1.0" encoding="utf-8" standalone="no"?>
<!DOCTYPE svg PUBLIC "-//W3C//DTD SVG 1.1//EN"
  "http://www.w3.org/Graphics/SVG/1.1/DTD/svg11.dtd">
<svg xmlns:xlink="http://www.w3.org/1999/xlink" width="336.503051pt" height="234.325957pt" viewBox="0 0 336.503051 234.325957" xmlns="http://www.w3.org/2000/svg" version="1.1">
 <metadata>
  <rdf:RDF xmlns:dc="http://purl.org/dc/elements/1.1/" xmlns:cc="http://creativecommons.org/ns#" xmlns:rdf="http://www.w3.org/1999/02/22-rdf-syntax-ns#">
   <cc:Work>
    <dc:type rdf:resource="http://purl.org/dc/dcmitype/StillImage"/>
    <dc:date>2025-12-12T10:29:35.942438</dc:date>
    <dc:format>image/svg+xml</dc:format>
    <dc:creator>
     <cc:Agent>
      <dc:title>Matplotlib v3.10.7, https://matplotlib.org/</dc:title>
     </cc:Agent>
    </dc:creator>
   </cc:Work>
  </rdf:RDF>
 </metadata>
 <defs>
  <style type="text/css">*{stroke-linejoin: round; stroke-linecap: butt}</style>
 </defs>
 <g id="figure_1">
  <g id="patch_1">
   <path d="M 0 234.325957 
L 336.503051 234.325957 
L 336.503051 0 
L 0 0 
z
" style="fill: #ffffff"/>
  </g>
  <g id="axes_1">
   <g id="patch_2">
    <path d="M 43.7125 198.140957 
L 329.303051 198.140957 
L 329.303051 20.798438 
L 43.7125 20.798438 
z
" style="fill: #ffffff"/>
   </g>
   <g id="matplotlib.axis_1">
    <g id="xtick_1">
     <g id="line2d_1">
      <path d="M 76.081862 198.140957 
L 76.081862 20.798438 
" clip-path="url(#p4e15278dd6)" style="fill: none; stroke: #cccccc; stroke-linecap: round"/>
     </g>
     <g id="text_1">
      <!-- 1000 -->
      <g style="fill: #262626" transform="translate(65.901862 213.719707) scale(0.08 -0.08)">
       <defs>
        <path id="DejaVuSans-31" d="M 794 531 
L 1825 531 
L 1825 4091 
L 703 3866 
L 703 4441 
L 1819 4666 
L 2450 4666 
L 2450 531 
L 3481 531 
L 3481 0 
L 794 0 
L 794 531 
z
" transform="scale(0.015625)"/>
        <path id="DejaVuSans-30" d="M 2034 4250 
Q 1547 4250 1301 3770 
Q 1056 3291 1056 2328 
Q 1056 1369 1301 889 
Q 1547 409 2034 409 
Q 2525 409 2770 889 
Q 3016 1369 3016 2328 
Q 3016 3291 2770 3770 
Q 2525 4250 2034 4250 
z
M 2034 4750 
Q 2819 4750 3233 4129 
Q 3647 3509 3647 2328 
Q 3647 1150 3233 529 
Q 2819 -91 2034 -91 
Q 1250 -91 836 529 
Q 422 1150 422 2328 
Q 422 3509 836 4129 
Q 1250 4750 2034 4750 
z
" transform="scale(0.015625)"/>
       </defs>
       <use xlink:href="#DejaVuSans-31"/>
       <use xlink:href="#DejaVuSans-30" transform="translate(63.623047 0)"/>
       <use xlink:href="#DejaVuSans-30" transform="translate(127.246094 0)"/>
       <use xlink:href="#DejaVuSans-30" transform="translate(190.869141 0)"/>
      </g>
     </g>
    </g>
    <g id="xtick_2">
     <g id="line2d_2">
      <path d="M 110.303098 198.140957 
L 110.303098 20.798438 
" clip-path="url(#p4e15278dd6)" style="fill: none; stroke: #cccccc; stroke-linecap: round"/>
     </g>
     <g id="text_2">
      <!-- 1250 -->
      <g style="fill: #262626" transform="translate(100.123098 213.719707) scale(0.08 -0.08)">
       <defs>
        <path id="DejaVuSans-32" d="M 1228 531 
L 3431 531 
L 3431 0 
L 469 0 
L 469 531 
Q 828 903 1448 1529 
Q 2069 2156 2228 2338 
Q 2531 2678 2651 2914 
Q 2772 3150 2772 3378 
Q 2772 3750 2511 3984 
Q 2250 4219 1831 4219 
Q 1534 4219 1204 4116 
Q 875 4013 500 3803 
L 500 4441 
Q 881 4594 1212 4672 
Q 1544 4750 1819 4750 
Q 2544 4750 2975 4387 
Q 3406 4025 3406 3419 
Q 3406 3131 3298 2873 
Q 3191 2616 2906 2266 
Q 2828 2175 2409 1742 
Q 1991 1309 1228 531 
z
" transform="scale(0.015625)"/>
        <path id="DejaVuSans-35" d="M 691 4666 
L 3169 4666 
L 3169 4134 
L 1269 4134 
L 1269 2991 
Q 1406 3038 1543 3061 
Q 1681 3084 1819 3084 
Q 2600 3084 3056 2656 
Q 3513 2228 3513 1497 
Q 3513 744 3044 326 
Q 2575 -91 1722 -91 
Q 1428 -91 1123 -41 
Q 819 9 494 109 
L 494 744 
Q 775 591 1075 516 
Q 1375 441 1709 441 
Q 2250 441 2565 725 
Q 2881 1009 2881 1497 
Q 2881 1984 2565 2268 
Q 2250 2553 1709 2553 
Q 1456 2553 1204 2497 
Q 953 2441 691 2322 
L 691 4666 
z
" transform="scale(0.015625)"/>
       </defs>
       <use xlink:href="#DejaVuSans-31"/>
       <use xlink:href="#DejaVuSans-32" transform="translate(63.623047 0)"/>
       <use xlink:href="#DejaVuSans-35" transform="translate(127.246094 0)"/>
       <use xlink:href="#DejaVuSans-30" transform="translate(190.869141 0)"/>
      </g>
     </g>
    </g>
    <g id="xtick_3">
     <g id="line2d_3">
      <path d="M 144.524335 198.140957 
L 144.524335 20.798438 
" clip-path="url(#p4e15278dd6)" style="fill: none; stroke: #cccccc; stroke-linecap: round"/>
     </g>
     <g id="text_3">
      <!-- 1500 -->
      <g style="fill: #262626" transform="translate(134.344335 213.719707) scale(0.08 -0.08)">
       <use xlink:href="#DejaVuSans-31"/>
       <use xlink:href="#DejaVuSans-35" transform="translate(63.623047 0)"/>
       <use xlink:href="#DejaVuSans-30" transform="translate(127.246094 0)"/>
       <use xlink:href="#DejaVuSans-30" transform="translate(190.869141 0)"/>
      </g>
     </g>
    </g>
    <g id="xtick_4">
     <g id="line2d_4">
      <path d="M 178.745571 198.140957 
L 178.745571 20.798438 
" clip-path="url(#p4e15278dd6)" style="fill: none; stroke: #cccccc; stroke-linecap: round"/>
     </g>
     <g id="text_4">
      <!-- 1750 -->
      <g style="fill: #262626" transform="translate(168.565571 213.719707) scale(0.08 -0.08)">
       <defs>
        <path id="DejaVuSans-37" d="M 525 4666 
L 3525 4666 
L 3525 4397 
L 1831 0 
L 1172 0 
L 2766 4134 
L 525 4134 
L 525 4666 
z
" transform="scale(0.015625)"/>
       </defs>
       <use xlink:href="#DejaVuSans-31"/>
       <use xlink:href="#DejaVuSans-37" transform="translate(63.623047 0)"/>
       <use xlink:href="#DejaVuSans-35" transform="translate(127.246094 0)"/>
       <use xlink:href="#DejaVuSans-30" transform="translate(190.869141 0)"/>
      </g>
     </g>
    </g>
    <g id="xtick_5">
     <g id="line2d_5">
      <path d="M 212.966807 198.140957 
L 212.966807 20.798438 
" clip-path="url(#p4e15278dd6)" style="fill: none; stroke: #cccccc; stroke-linecap: round"/>
     </g>
     <g id="text_5">
      <!-- 2000 -->
      <g style="fill: #262626" transform="translate(202.786807 213.719707) scale(0.08 -0.08)">
       <use xlink:href="#DejaVuSans-32"/>
       <use xlink:href="#DejaVuSans-30" transform="translate(63.623047 0)"/>
       <use xlink:href="#DejaVuSans-30" transform="translate(127.246094 0)"/>
       <use xlink:href="#DejaVuSans-30" transform="translate(190.869141 0)"/>
      </g>
     </g>
    </g>
    <g id="xtick_6">
     <g id="line2d_6">
      <path d="M 247.188044 198.140957 
L 247.188044 20.798438 
" clip-path="url(#p4e15278dd6)" style="fill: none; stroke: #cccccc; stroke-linecap: round"/>
     </g>
     <g id="text_6">
      <!-- 2250 -->
      <g style="fill: #262626" transform="translate(237.008044 213.719707) scale(0.08 -0.08)">
       <use xlink:href="#DejaVuSans-32"/>
       <use xlink:href="#DejaVuSans-32" transform="translate(63.623047 0)"/>
       <use xlink:href="#DejaVuSans-35" transform="translate(127.246094 0)"/>
       <use xlink:href="#DejaVuSans-30" transform="translate(190.869141 0)"/>
      </g>
     </g>
    </g>
    <g id="xtick_7">
     <g id="line2d_7">
      <path d="M 281.40928 198.140957 
L 281.40928 20.798438 
" clip-path="url(#p4e15278dd6)" style="fill: none; stroke: #cccccc; stroke-linecap: round"/>
     </g>
     <g id="text_7">
      <!-- 2500 -->
      <g style="fill: #262626" transform="translate(271.22928 213.719707) scale(0.08 -0.08)">
       <use xlink:href="#DejaVuSans-32"/>
       <use xlink:href="#DejaVuSans-35" transform="translate(63.623047 0)"/>
       <use xlink:href="#DejaVuSans-30" transform="translate(127.246094 0)"/>
       <use xlink:href="#DejaVuSans-30" transform="translate(190.869141 0)"/>
      </g>
     </g>
    </g>
    <g id="xtick_8">
     <g id="line2d_8">
      <path d="M 315.630517 198.140957 
L 315.630517 20.798438 
" clip-path="url(#p4e15278dd6)" style="fill: none; stroke: #cccccc; stroke-linecap: round"/>
     </g>
     <g id="text_8">
      <!-- 2750 -->
      <g style="fill: #262626" transform="translate(305.450517 213.719707) scale(0.08 -0.08)">
       <use xlink:href="#DejaVuSans-32"/>
       <use xlink:href="#DejaVuSans-37" transform="translate(63.623047 0)"/>
       <use xlink:href="#DejaVuSans-35" transform="translate(127.246094 0)"/>
       <use xlink:href="#DejaVuSans-30" transform="translate(190.869141 0)"/>
      </g>
     </g>
    </g>
    <g id="text_9">
     <!-- perimeter -->
     <g style="fill: #262626" transform="translate(166.720276 225.462207) scale(0.08 -0.08)">
      <defs>
       <path id="DejaVuSans-70" d="M 1159 525 
L 1159 -1331 
L 581 -1331 
L 581 3500 
L 1159 3500 
L 1159 2969 
Q 1341 3281 1617 3432 
Q 1894 3584 2278 3584 
Q 2916 3584 3314 3078 
Q 3713 2572 3713 1747 
Q 3713 922 3314 415 
Q 2916 -91 2278 -91 
Q 1894 -91 1617 61 
Q 1341 213 1159 525 
z
M 3116 1747 
Q 3116 2381 2855 2742 
Q 2594 3103 2138 3103 
Q 1681 3103 1420 2742 
Q 1159 2381 1159 1747 
Q 1159 1113 1420 752 
Q 1681 391 2138 391 
Q 2594 391 2855 752 
Q 3116 1113 3116 1747 
z
" transform="scale(0.015625)"/>
       <path id="DejaVuSans-65" d="M 3597 1894 
L 3597 1613 
L 953 1613 
Q 991 1019 1311 708 
Q 1631 397 2203 397 
Q 2534 397 2845 478 
Q 3156 559 3463 722 
L 3463 178 
Q 3153 47 2828 -22 
Q 2503 -91 2169 -91 
Q 1331 -91 842 396 
Q 353 884 353 1716 
Q 353 2575 817 3079 
Q 1281 3584 2069 3584 
Q 2775 3584 3186 3129 
Q 3597 2675 3597 1894 
z
M 3022 2063 
Q 3016 2534 2758 2815 
Q 2500 3097 2075 3097 
Q 1594 3097 1305 2825 
Q 1016 2553 972 2059 
L 3022 2063 
z
" transform="scale(0.015625)"/>
       <path id="DejaVuSans-72" d="M 2631 2963 
Q 2534 3019 2420 3045 
Q 2306 3072 2169 3072 
Q 1681 3072 1420 2755 
Q 1159 2438 1159 1844 
L 1159 0 
L 581 0 
L 581 3500 
L 1159 3500 
L 1159 2956 
Q 1341 3275 1631 3429 
Q 1922 3584 2338 3584 
Q 2397 3584 2469 3576 
Q 2541 3569 2628 3553 
L 2631 2963 
z
" transform="scale(0.015625)"/>
       <path id="DejaVuSans-69" d="M 603 3500 
L 1178 3500 
L 1178 0 
L 603 0 
L 603 3500 
z
M 603 4863 
L 1178 4863 
L 1178 4134 
L 603 4134 
L 603 4863 
z
" transform="scale(0.015625)"/>
       <path id="DejaVuSans-6d" d="M 3328 2828 
Q 3544 3216 3844 3400 
Q 4144 3584 4550 3584 
Q 5097 3584 5394 3201 
Q 5691 2819 5691 2113 
L 5691 0 
L 5113 0 
L 5113 2094 
Q 5113 2597 4934 2840 
Q 4756 3084 4391 3084 
Q 3944 3084 3684 2787 
Q 3425 2491 3425 1978 
L 3425 0 
L 2847 0 
L 2847 2094 
Q 2847 2600 2669 2842 
Q 2491 3084 2119 3084 
Q 1678 3084 1418 2786 
Q 1159 2488 1159 1978 
L 1159 0 
L 581 0 
L 581 3500 
L 1159 3500 
L 1159 2956 
Q 1356 3278 1631 3431 
Q 1906 3584 2284 3584 
Q 2666 3584 2933 3390 
Q 3200 3197 3328 2828 
z
" transform="scale(0.015625)"/>
       <path id="DejaVuSans-74" d="M 1172 4494 
L 1172 3500 
L 2356 3500 
L 2356 3053 
L 1172 3053 
L 1172 1153 
Q 1172 725 1289 603 
Q 1406 481 1766 481 
L 2356 481 
L 2356 0 
L 1766 0 
Q 1100 0 847 248 
Q 594 497 594 1153 
L 594 3053 
L 172 3053 
L 172 3500 
L 594 3500 
L 594 4494 
L 1172 4494 
z
" transform="scale(0.015625)"/>
      </defs>
      <use xlink:href="#DejaVuSans-70"/>
      <use xlink:href="#DejaVuSans-65" transform="translate(63.476562 0)"/>
      <use xlink:href="#DejaVuSans-72" transform="translate(125 0)"/>
      <use xlink:href="#DejaVuSans-69" transform="translate(166.113281 0)"/>
      <use xlink:href="#DejaVuSans-6d" transform="translate(193.896484 0)"/>
      <use xlink:href="#DejaVuSans-65" transform="translate(291.308594 0)"/>
      <use xlink:href="#DejaVuSans-74" transform="translate(352.832031 0)"/>
      <use xlink:href="#DejaVuSans-65" transform="translate(392.041016 0)"/>
      <use xlink:href="#DejaVuSans-72" transform="translate(453.564453 0)"/>
     </g>
    </g>
   </g>
   <g id="matplotlib.axis_2">
    <g id="ytick_1">
     <g id="line2d_9">
      <path d="M 43.7125 198.140957 
L 329.303051 198.140957 
" clip-path="url(#p4e15278dd6)" style="fill: none; stroke: #cccccc; stroke-linecap: round"/>
     </g>
     <g id="text_10">
      <!-- 0 -->
      <g style="fill: #262626" transform="translate(29.1225 201.180332) scale(0.08 -0.08)">
       <use xlink:href="#DejaVuSans-30"/>
      </g>
     </g>
    </g>
    <g id="ytick_2">
     <g id="line2d_10">
      <path d="M 43.7125 177.442717 
L 329.303051 177.442717 
" clip-path="url(#p4e15278dd6)" style="fill: none; stroke: #cccccc; stroke-linecap: round"/>
     </g>
     <g id="text_11">
      <!-- 25 -->
      <g style="fill: #262626" transform="translate(24.0325 180.482092) scale(0.08 -0.08)">
       <use xlink:href="#DejaVuSans-32"/>
       <use xlink:href="#DejaVuSans-35" transform="translate(63.623047 0)"/>
      </g>
     </g>
    </g>
    <g id="ytick_3">
     <g id="line2d_11">
      <path d="M 43.7125 156.744477 
L 329.303051 156.744477 
" clip-path="url(#p4e15278dd6)" style="fill: none; stroke: #cccccc; stroke-linecap: round"/>
     </g>
     <g id="text_12">
      <!-- 50 -->
      <g style="fill: #262626" transform="translate(24.0325 159.783852) scale(0.08 -0.08)">
       <use xlink:href="#DejaVuSans-35"/>
       <use xlink:href="#DejaVuSans-30" transform="translate(63.623047 0)"/>
      </g>
     </g>
    </g>
    <g id="ytick_4">
     <g id="line2d_12">
      <path d="M 43.7125 136.046237 
L 329.303051 136.046237 
" clip-path="url(#p4e15278dd6)" style="fill: none; stroke: #cccccc; stroke-linecap: round"/>
     </g>
     <g id="text_13">
      <!-- 75 -->
      <g style="fill: #262626" transform="translate(24.0325 139.085612) scale(0.08 -0.08)">
       <use xlink:href="#DejaVuSans-37"/>
       <use xlink:href="#DejaVuSans-35" transform="translate(63.623047 0)"/>
      </g>
     </g>
    </g>
    <g id="ytick_5">
     <g id="line2d_13">
      <path d="M 43.7125 115.347997 
L 329.303051 115.347997 
" clip-path="url(#p4e15278dd6)" style="fill: none; stroke: #cccccc; stroke-linecap: round"/>
     </g>
     <g id="text_14">
      <!-- 100 -->
      <g style="fill: #262626" transform="translate(18.9425 118.387372) scale(0.08 -0.08)">
       <use xlink:href="#DejaVuSans-31"/>
       <use xlink:href="#DejaVuSans-30" transform="translate(63.623047 0)"/>
       <use xlink:href="#DejaVuSans-30" transform="translate(127.246094 0)"/>
      </g>
     </g>
    </g>
    <g id="ytick_6">
     <g id="line2d_14">
      <path d="M 43.7125 94.649758 
L 329.303051 94.649758 
" clip-path="url(#p4e15278dd6)" style="fill: none; stroke: #cccccc; stroke-linecap: round"/>
     </g>
     <g id="text_15">
      <!-- 125 -->
      <g style="fill: #262626" transform="translate(18.9425 97.689133) scale(0.08 -0.08)">
       <use xlink:href="#DejaVuSans-31"/>
       <use xlink:href="#DejaVuSans-32" transform="translate(63.623047 0)"/>
       <use xlink:href="#DejaVuSans-35" transform="translate(127.246094 0)"/>
      </g>
     </g>
    </g>
    <g id="ytick_7">
     <g id="line2d_15">
      <path d="M 43.7125 73.951518 
L 329.303051 73.951518 
" clip-path="url(#p4e15278dd6)" style="fill: none; stroke: #cccccc; stroke-linecap: round"/>
     </g>
     <g id="text_16">
      <!-- 150 -->
      <g style="fill: #262626" transform="translate(18.9425 76.990893) scale(0.08 -0.08)">
       <use xlink:href="#DejaVuSans-31"/>
       <use xlink:href="#DejaVuSans-35" transform="translate(63.623047 0)"/>
       <use xlink:href="#DejaVuSans-30" transform="translate(127.246094 0)"/>
      </g>
     </g>
    </g>
    <g id="ytick_8">
     <g id="line2d_16">
      <path d="M 43.7125 53.253278 
L 329.303051 53.253278 
" clip-path="url(#p4e15278dd6)" style="fill: none; stroke: #cccccc; stroke-linecap: round"/>
     </g>
     <g id="text_17">
      <!-- 175 -->
      <g style="fill: #262626" transform="translate(18.9425 56.292653) scale(0.08 -0.08)">
       <use xlink:href="#DejaVuSans-31"/>
       <use xlink:href="#DejaVuSans-37" transform="translate(63.623047 0)"/>
       <use xlink:href="#DejaVuSans-35" transform="translate(127.246094 0)"/>
      </g>
     </g>
    </g>
    <g id="ytick_9">
     <g id="line2d_17">
      <path d="M 43.7125 32.555038 
L 329.303051 32.555038 
" clip-path="url(#p4e15278dd6)" style="fill: none; stroke: #cccccc; stroke-linecap: round"/>
     </g>
     <g id="text_18">
      <!-- 200 -->
      <g style="fill: #262626" transform="translate(18.9425 35.594413) scale(0.08 -0.08)">
       <use xlink:href="#DejaVuSans-32"/>
       <use xlink:href="#DejaVuSans-30" transform="translate(63.623047 0)"/>
       <use xlink:href="#DejaVuSans-30" transform="translate(127.246094 0)"/>
      </g>
     </g>
    </g>
    <g id="text_19">
     <!-- Count -->
     <g style="fill: #262626" transform="translate(13.27875 121.348447) rotate(-90) scale(0.08 -0.08)">
      <defs>
       <path id="DejaVuSans-43" d="M 4122 4306 
L 4122 3641 
Q 3803 3938 3442 4084 
Q 3081 4231 2675 4231 
Q 1875 4231 1450 3742 
Q 1025 3253 1025 2328 
Q 1025 1406 1450 917 
Q 1875 428 2675 428 
Q 3081 428 3442 575 
Q 3803 722 4122 1019 
L 4122 359 
Q 3791 134 3420 21 
Q 3050 -91 2638 -91 
Q 1578 -91 968 557 
Q 359 1206 359 2328 
Q 359 3453 968 4101 
Q 1578 4750 2638 4750 
Q 3056 4750 3426 4639 
Q 3797 4528 4122 4306 
z
" transform="scale(0.015625)"/>
       <path id="DejaVuSans-6f" d="M 1959 3097 
Q 1497 3097 1228 2736 
Q 959 2375 959 1747 
Q 959 1119 1226 758 
Q 1494 397 1959 397 
Q 2419 397 2687 759 
Q 2956 1122 2956 1747 
Q 2956 2369 2687 2733 
Q 2419 3097 1959 3097 
z
M 1959 3584 
Q 2709 3584 3137 3096 
Q 3566 2609 3566 1747 
Q 3566 888 3137 398 
Q 2709 -91 1959 -91 
Q 1206 -91 779 398 
Q 353 888 353 1747 
Q 353 2609 779 3096 
Q 1206 3584 1959 3584 
z
" transform="scale(0.015625)"/>
       <path id="DejaVuSans-75" d="M 544 1381 
L 544 3500 
L 1119 3500 
L 1119 1403 
Q 1119 906 1312 657 
Q 1506 409 1894 409 
Q 2359 409 2629 706 
Q 2900 1003 2900 1516 
L 2900 3500 
L 3475 3500 
L 3475 0 
L 2900 0 
L 2900 538 
Q 2691 219 2414 64 
Q 2138 -91 1772 -91 
Q 1169 -91 856 284 
Q 544 659 544 1381 
z
M 1991 3584 
L 1991 3584 
z
" transform="scale(0.015625)"/>
       <path id="DejaVuSans-6e" d="M 3513 2113 
L 3513 0 
L 2938 0 
L 2938 2094 
Q 2938 2591 2744 2837 
Q 2550 3084 2163 3084 
Q 1697 3084 1428 2787 
Q 1159 2491 1159 1978 
L 1159 0 
L 581 0 
L 581 3500 
L 1159 3500 
L 1159 2956 
Q 1366 3272 1645 3428 
Q 1925 3584 2291 3584 
Q 2894 3584 3203 3211 
Q 3513 2838 3513 2113 
z
" transform="scale(0.015625)"/>
      </defs>
      <use xlink:href="#DejaVuSans-43"/>
      <use xlink:href="#DejaVuSans-6f" transform="translate(69.824219 0)"/>
      <use xlink:href="#DejaVuSans-75" transform="translate(131.005859 0)"/>
      <use xlink:href="#DejaVuSans-6e" transform="translate(194.384766 0)"/>
      <use xlink:href="#DejaVuSans-74" transform="translate(257.763672 0)"/>
     </g>
    </g>
   </g>
   <g id="FillBetweenPolyCollection_1">
    <defs>
     <path id="mbf993c0411" d="M 56.693889 -36.185 
L 56.693889 -36.185 
L 65.646571 -36.185 
L 65.646571 -36.185 
L 74.599252 -36.185 
L 74.599252 -36.185 
L 83.551934 -36.185 
L 83.551934 -36.185 
L 92.504616 -36.185 
L 92.504616 -36.185 
L 101.457298 -36.185 
L 101.457298 -36.185 
L 110.40998 -36.185 
L 110.40998 -36.185 
L 119.362662 -36.185 
L 119.362662 -36.185 
L 128.315344 -36.185 
L 128.315344 -36.185 
L 137.268025 -36.185 
L 137.268025 -36.185 
L 146.220707 -36.185 
L 146.220707 -36.185 
L 155.173389 -36.185 
L 155.173389 -36.185 
L 164.126071 -36.185 
L 164.126071 -36.185 
L 173.078753 -36.185 
L 173.078753 -36.185 
L 182.031435 -36.185 
L 182.031435 -36.185 
L 190.984117 -36.185 
L 190.984117 -36.185 
L 199.936798 -36.185 
L 199.936798 -36.185 
L 208.88948 -36.185 
L 208.88948 -36.185 
L 217.842162 -36.185 
L 217.842162 -36.185 
L 226.794844 -36.185 
L 226.794844 -36.185 
L 235.747526 -36.185 
L 235.747526 -36.185 
L 244.700208 -36.185 
L 244.700208 -36.185 
L 253.65289 -36.185 
L 253.65289 -36.185 
L 262.605571 -36.185 
L 262.605571 -36.185 
L 271.558253 -36.185 
L 271.558253 -36.185 
L 280.510935 -36.185 
L 280.510935 -36.185 
L 289.463617 -36.185 
L 289.463617 -36.185 
L 298.416299 -36.185 
L 298.416299 -36.185 
L 307.368981 -36.185 
L 307.368981 -36.185 
L 316.321662 -36.185 
L 316.321662 -36.185 
L 316.321662 -41.152578 
L 316.321662 -41.152578 
L 316.321662 -41.152578 
L 307.368981 -41.152578 
L 307.368981 -39.496718 
L 298.416299 -39.496718 
L 298.416299 -41.980507 
L 289.463617 -41.980507 
L 289.463617 -41.152578 
L 280.510935 -41.152578 
L 280.510935 -43.636366 
L 271.558253 -43.636366 
L 271.558253 -45.292226 
L 262.605571 -45.292226 
L 262.605571 -42.808437 
L 253.65289 -42.808437 
L 253.65289 -45.292226 
L 244.700208 -45.292226 
L 244.700208 -52.743592 
L 235.747526 -52.743592 
L 235.747526 -56.05531 
L 226.794844 -56.05531 
L 226.794844 -59.367029 
L 217.842162 -59.367029 
L 217.842162 -56.88324 
L 208.88948 -56.88324 
L 208.88948 -60.194958 
L 199.936798 -60.194958 
L 199.936798 -51.915662 
L 190.984117 -51.915662 
L 190.984117 -53.571522 
L 182.031435 -53.571522 
L 182.031435 -50.259803 
L 173.078753 -50.259803 
L 173.078753 -46.948085 
L 164.126071 -46.948085 
L 164.126071 -53.571522 
L 155.173389 -53.571522 
L 155.173389 -53.571522 
L 146.220707 -53.571522 
L 146.220707 -56.88324 
L 137.268025 -56.88324 
L 137.268025 -58.539099 
L 128.315344 -58.539099 
L 128.315344 -89.172494 
L 119.362662 -89.172494 
L 119.362662 -132.224833 
L 110.40998 -132.224833 
L 110.40998 -191.007835 
L 101.457298 -191.007835 
L 101.457298 -161.202369 
L 92.504616 -161.202369 
L 92.504616 -68.474254 
L 83.551934 -68.474254 
L 83.551934 -41.980507 
L 74.599252 -41.980507 
L 74.599252 -36.185 
L 65.646571 -36.185 
L 65.646571 -36.185 
L 56.693889 -36.185 
z
" style="stroke: #35b779"/>
    </defs>
    <g clip-path="url(#p4e15278dd6)">
     <use xlink:href="#mbf993c0411" x="0" y="234.325957" style="fill: #35b779; fill-opacity: 0.25; stroke: #35b779"/>
    </g>
   </g>
   <g id="FillBetweenPolyCollection_2">
    <defs>
     <path id="mcb80558873" d="M 56.693889 -37.840859 
L 56.693889 -36.185 
L 65.646571 -36.185 
L 65.646571 -36.185 
L 74.599252 -36.185 
L 74.599252 -36.185 
L 83.551934 -36.185 
L 83.551934 -36.185 
L 92.504616 -36.185 
L 92.504616 -36.185 
L 101.457298 -36.185 
L 101.457298 -36.185 
L 110.40998 -36.185 
L 110.40998 -36.185 
L 119.362662 -36.185 
L 119.362662 -36.185 
L 128.315344 -36.185 
L 128.315344 -36.185 
L 137.268025 -36.185 
L 137.268025 -36.185 
L 146.220707 -36.185 
L 146.220707 -36.185 
L 155.173389 -36.185 
L 155.173389 -36.185 
L 164.126071 -36.185 
L 164.126071 -36.185 
L 173.078753 -36.185 
L 173.078753 -36.185 
L 182.031435 -36.185 
L 182.031435 -36.185 
L 190.984117 -36.185 
L 190.984117 -36.185 
L 199.936798 -36.185 
L 199.936798 -36.185 
L 208.88948 -36.185 
L 208.88948 -36.185 
L 217.842162 -36.185 
L 217.842162 -36.185 
L 226.794844 -36.185 
L 226.794844 -36.185 
L 235.747526 -36.185 
L 235.747526 -36.185 
L 244.700208 -36.185 
L 244.700208 -36.185 
L 253.65289 -36.185 
L 253.65289 -36.185 
L 262.605571 -36.185 
L 262.605571 -36.185 
L 271.558253 -36.185 
L 271.558253 -36.185 
L 280.510935 -36.185 
L 280.510935 -36.185 
L 289.463617 -36.185 
L 289.463617 -36.185 
L 298.416299 -36.185 
L 298.416299 -36.185 
L 307.368981 -36.185 
L 307.368981 -36.185 
L 316.321662 -36.185 
L 316.321662 -36.185 
L 316.321662 -39.496718 
L 316.321662 -39.496718 
L 316.321662 -39.496718 
L 307.368981 -39.496718 
L 307.368981 -37.840859 
L 298.416299 -37.840859 
L 298.416299 -38.668789 
L 289.463617 -38.668789 
L 289.463617 -37.840859 
L 280.510935 -37.840859 
L 280.510935 -37.840859 
L 271.558253 -37.840859 
L 271.558253 -41.980507 
L 262.605571 -41.980507 
L 262.605571 -40.324648 
L 253.65289 -40.324648 
L 253.65289 -40.324648 
L 244.700208 -40.324648 
L 244.700208 -50.259803 
L 235.747526 -50.259803 
L 235.747526 -42.808437 
L 226.794844 -42.808437 
L 226.794844 -51.915662 
L 217.842162 -51.915662 
L 217.842162 -61.850818 
L 208.88948 -61.850818 
L 208.88948 -56.05531 
L 199.936798 -56.05531 
L 199.936798 -65.990465 
L 190.984117 -65.990465 
L 190.984117 -58.539099 
L 182.031435 -58.539099 
L 182.031435 -61.022888 
L 173.078753 -61.022888 
L 173.078753 -65.990465 
L 164.126071 -65.990465 
L 164.126071 -56.88324 
L 155.173389 -56.88324 
L 155.173389 -64.334606 
L 146.220707 -64.334606 
L 146.220707 -54.399451 
L 137.268025 -54.399451 
L 137.268025 -84.204917 
L 128.315344 -84.204917 
L 128.315344 -92.484213 
L 119.362662 -92.484213 
L 119.362662 -153.751003 
L 110.40998 -153.751003 
L 110.40998 -205.082638 
L 101.457298 -205.082638 
L 101.457298 -198.459201 
L 92.504616 -198.459201 
L 92.504616 -166.169947 
L 83.551934 -166.169947 
L 83.551934 -80.893198 
L 74.599252 -80.893198 
L 74.599252 -46.120155 
L 65.646571 -46.120155 
L 65.646571 -37.840859 
L 56.693889 -37.840859 
z
" style="stroke: #31688e"/>
    </defs>
    <g clip-path="url(#p4e15278dd6)">
     <use xlink:href="#mcb80558873" x="0" y="234.325957" style="fill: #31688e; fill-opacity: 0.25; stroke: #31688e"/>
    </g>
   </g>
   <g id="line2d_18">
    <path d="M 56.693889 196.419263 
L 59.303213 195.510451 
L 61.912537 194.218299 
L 63.2172 193.393984 
L 64.521862 192.43092 
L 65.826524 191.313599 
L 67.131186 190.026428 
L 68.435848 188.554111 
L 69.74051 186.882096 
L 71.045173 184.99707 
L 72.349835 182.887507 
L 73.654497 180.544245 
L 76.263821 175.135351 
L 78.873146 168.766574 
L 81.48247 161.507137 
L 84.091794 153.510679 
L 89.310443 136.351237 
L 93.22443 123.86871 
L 95.833754 116.496828 
L 97.138416 113.246597 
L 98.443078 110.346908 
L 99.747741 107.836778 
L 101.052403 105.749198 
L 102.357065 104.110321 
L 103.661727 102.938843 
L 104.966389 102.2456 
L 106.271052 102.033388 
L 107.575714 102.297015 
L 108.880376 103.023574 
L 110.185038 104.192921 
L 111.4897 105.77833 
L 112.794362 107.747315 
L 114.099025 110.062561 
L 115.403687 112.682936 
L 118.013011 118.66189 
L 120.622336 125.319304 
L 128.450309 145.950328 
L 131.059633 152.145917 
L 133.668957 157.710934 
L 136.278282 162.571991 
L 138.887606 166.713927 
L 141.49693 170.168104 
L 144.106255 172.998874 
L 146.715579 175.289844 
L 149.324903 177.13126 
L 151.934228 178.609549 
L 154.543552 179.799697 
L 157.152877 180.760775 
L 159.762201 181.534547 
L 163.676187 182.39672 
L 167.590174 182.930205 
L 171.504161 183.142503 
L 175.418147 183.042368 
L 179.332134 182.659633 
L 183.24612 182.049892 
L 189.769431 180.734157 
L 198.902066 178.867837 
L 204.120715 178.070935 
L 208.034702 177.690437 
L 211.948688 177.534296 
L 215.862675 177.624075 
L 219.776661 177.967242 
L 223.690648 178.556204 
L 227.604634 179.369525 
L 232.823283 180.745926 
L 238.041932 182.365184 
L 253.697878 187.42518 
L 258.916527 188.750094 
L 264.135175 189.774962 
L 269.353824 190.532362 
L 275.877135 191.233029 
L 295.447068 193.175814 
L 307.189027 194.646737 
L 316.321662 195.862854 
L 316.321662 195.862854 
" clip-path="url(#p4e15278dd6)" style="fill: none; stroke: #35b779; stroke-width: 1.5; stroke-linecap: round"/>
   </g>
   <g id="line2d_19">
    <path d="M 56.693889 193.411454 
L 57.998551 192.37555 
L 59.303213 191.147898 
L 60.607875 189.702481 
L 61.912537 188.012241 
L 63.2172 186.049709 
L 64.521862 183.787782 
L 65.826524 181.200667 
L 67.131186 178.26494 
L 68.435848 174.960717 
L 69.74051 171.272879 
L 71.045173 167.192293 
L 73.654497 157.853111 
L 76.263821 147.030083 
L 78.873146 134.960536 
L 82.787132 115.407254 
L 86.701119 95.776755 
L 89.310443 83.697554 
L 91.919768 73.149247 
L 93.22443 68.622055 
L 94.529092 64.671463 
L 95.833754 61.346097 
L 97.138416 58.685359 
L 98.443078 56.718855 
L 99.747741 55.465971 
L 101.052403 54.935583 
L 102.357065 55.12589 
L 103.661727 56.024378 
L 104.966389 57.607936 
L 106.271052 59.843152 
L 107.575714 62.686824 
L 108.880376 66.086734 
L 110.185038 69.982704 
L 112.794362 78.990667 
L 115.403687 89.127772 
L 123.23166 120.596051 
L 125.840984 129.956447 
L 128.450309 138.328321 
L 131.059633 145.638958 
L 133.668957 151.895579 
L 136.278282 157.149888 
L 137.582944 159.422787 
L 138.887606 161.471943 
L 140.192268 163.306917 
L 141.49693 164.937493 
L 142.801593 166.373818 
L 144.106255 167.626552 
L 145.410917 168.707013 
L 146.715579 169.627253 
L 148.020241 170.400063 
L 150.629566 171.557648 
L 153.23889 172.291826 
L 155.848214 172.714617 
L 159.762201 172.987039 
L 168.894836 173.136211 
L 181.941458 173.30213 
L 189.769431 173.313105 
L 193.683418 173.506228 
L 197.597404 173.903597 
L 201.511391 174.50289 
L 205.425377 175.29539 
L 209.339364 176.309959 
L 213.25335 177.603586 
L 217.167337 179.198785 
L 222.385986 181.65987 
L 228.909296 184.72623 
L 232.823283 186.320962 
L 236.73727 187.706308 
L 241.955918 189.333185 
L 248.479229 191.126651 
L 252.393216 192.021651 
L 256.307202 192.733536 
L 261.525851 193.444225 
L 281.095784 195.678985 
L 286.314432 195.959316 
L 292.837743 196.025082 
L 304.579703 196.077553 
L 311.103014 196.355875 
L 316.321662 196.713939 
L 316.321662 196.713939 
" clip-path="url(#p4e15278dd6)" style="fill: none; stroke: #31688e; stroke-width: 1.5; stroke-linecap: round"/>
   </g>
   <g id="patch_3">
    <path d="M 43.7125 198.140957 
L 43.7125 20.798438 
" style="fill: none; stroke: #cccccc; stroke-width: 1.25; stroke-linejoin: miter; stroke-linecap: square"/>
   </g>
   <g id="patch_4">
    <path d="M 43.7125 198.140957 
L 329.303051 198.140957 
" style="fill: none; stroke: #cccccc; stroke-width: 1.25; stroke-linejoin: miter; stroke-linecap: square"/>
   </g>
   <g id="text_20">
    <!-- Distribution of perimeter for each Class -->
    <g style="fill: #262626" transform="translate(74.474963 14.798438) scale(0.1 -0.1)">
     <defs>
      <path id="DejaVuSans-Bold-44" d="M 1791 3756 
L 1791 909 
L 2222 909 
Q 2959 909 3348 1275 
Q 3738 1641 3738 2338 
Q 3738 3031 3350 3393 
Q 2963 3756 2222 3756 
L 1791 3756 
z
M 588 4666 
L 1856 4666 
Q 2919 4666 3439 4514 
Q 3959 4363 4331 4000 
Q 4659 3684 4818 3271 
Q 4978 2859 4978 2338 
Q 4978 1809 4818 1395 
Q 4659 981 4331 666 
Q 3956 303 3431 151 
Q 2906 0 1856 0 
L 588 0 
L 588 4666 
z
" transform="scale(0.015625)"/>
      <path id="DejaVuSans-Bold-69" d="M 538 3500 
L 1656 3500 
L 1656 0 
L 538 0 
L 538 3500 
z
M 538 4863 
L 1656 4863 
L 1656 3950 
L 538 3950 
L 538 4863 
z
" transform="scale(0.015625)"/>
      <path id="DejaVuSans-Bold-73" d="M 3272 3391 
L 3272 2541 
Q 2913 2691 2578 2766 
Q 2244 2841 1947 2841 
Q 1628 2841 1473 2761 
Q 1319 2681 1319 2516 
Q 1319 2381 1436 2309 
Q 1553 2238 1856 2203 
L 2053 2175 
Q 2913 2066 3209 1816 
Q 3506 1566 3506 1031 
Q 3506 472 3093 190 
Q 2681 -91 1863 -91 
Q 1516 -91 1145 -36 
Q 775 19 384 128 
L 384 978 
Q 719 816 1070 734 
Q 1422 653 1784 653 
Q 2113 653 2278 743 
Q 2444 834 2444 1013 
Q 2444 1163 2330 1236 
Q 2216 1309 1875 1350 
L 1678 1375 
Q 931 1469 631 1722 
Q 331 1975 331 2491 
Q 331 3047 712 3315 
Q 1094 3584 1881 3584 
Q 2191 3584 2531 3537 
Q 2872 3491 3272 3391 
z
" transform="scale(0.015625)"/>
      <path id="DejaVuSans-Bold-74" d="M 1759 4494 
L 1759 3500 
L 2913 3500 
L 2913 2700 
L 1759 2700 
L 1759 1216 
Q 1759 972 1856 886 
Q 1953 800 2241 800 
L 2816 800 
L 2816 0 
L 1856 0 
Q 1194 0 917 276 
Q 641 553 641 1216 
L 641 2700 
L 84 2700 
L 84 3500 
L 641 3500 
L 641 4494 
L 1759 4494 
z
" transform="scale(0.015625)"/>
      <path id="DejaVuSans-Bold-72" d="M 3138 2547 
Q 2991 2616 2845 2648 
Q 2700 2681 2553 2681 
Q 2122 2681 1889 2404 
Q 1656 2128 1656 1613 
L 1656 0 
L 538 0 
L 538 3500 
L 1656 3500 
L 1656 2925 
Q 1872 3269 2151 3426 
Q 2431 3584 2822 3584 
Q 2878 3584 2943 3579 
Q 3009 3575 3134 3559 
L 3138 2547 
z
" transform="scale(0.015625)"/>
      <path id="DejaVuSans-Bold-62" d="M 2400 722 
Q 2759 722 2948 984 
Q 3138 1247 3138 1747 
Q 3138 2247 2948 2509 
Q 2759 2772 2400 2772 
Q 2041 2772 1848 2508 
Q 1656 2244 1656 1747 
Q 1656 1250 1848 986 
Q 2041 722 2400 722 
z
M 1656 2988 
Q 1888 3294 2169 3439 
Q 2450 3584 2816 3584 
Q 3463 3584 3878 3070 
Q 4294 2556 4294 1747 
Q 4294 938 3878 423 
Q 3463 -91 2816 -91 
Q 2450 -91 2169 54 
Q 1888 200 1656 506 
L 1656 0 
L 538 0 
L 538 4863 
L 1656 4863 
L 1656 2988 
z
" transform="scale(0.015625)"/>
      <path id="DejaVuSans-Bold-75" d="M 500 1363 
L 500 3500 
L 1625 3500 
L 1625 3150 
Q 1625 2866 1622 2436 
Q 1619 2006 1619 1863 
Q 1619 1441 1641 1255 
Q 1663 1069 1716 984 
Q 1784 875 1895 815 
Q 2006 756 2150 756 
Q 2500 756 2700 1025 
Q 2900 1294 2900 1772 
L 2900 3500 
L 4019 3500 
L 4019 0 
L 2900 0 
L 2900 506 
Q 2647 200 2364 54 
Q 2081 -91 1741 -91 
Q 1134 -91 817 281 
Q 500 653 500 1363 
z
" transform="scale(0.015625)"/>
      <path id="DejaVuSans-Bold-6f" d="M 2203 2784 
Q 1831 2784 1636 2517 
Q 1441 2250 1441 1747 
Q 1441 1244 1636 976 
Q 1831 709 2203 709 
Q 2569 709 2762 976 
Q 2956 1244 2956 1747 
Q 2956 2250 2762 2517 
Q 2569 2784 2203 2784 
z
M 2203 3584 
Q 3106 3584 3614 3096 
Q 4122 2609 4122 1747 
Q 4122 884 3614 396 
Q 3106 -91 2203 -91 
Q 1297 -91 786 396 
Q 275 884 275 1747 
Q 275 2609 786 3096 
Q 1297 3584 2203 3584 
z
" transform="scale(0.015625)"/>
      <path id="DejaVuSans-Bold-6e" d="M 4056 2131 
L 4056 0 
L 2931 0 
L 2931 347 
L 2931 1631 
Q 2931 2084 2911 2256 
Q 2891 2428 2841 2509 
Q 2775 2619 2662 2680 
Q 2550 2741 2406 2741 
Q 2056 2741 1856 2470 
Q 1656 2200 1656 1722 
L 1656 0 
L 538 0 
L 538 3500 
L 1656 3500 
L 1656 2988 
Q 1909 3294 2193 3439 
Q 2478 3584 2822 3584 
Q 3428 3584 3742 3212 
Q 4056 2841 4056 2131 
z
" transform="scale(0.015625)"/>
      <path id="DejaVuSans-Bold-20" transform="scale(0.015625)"/>
      <path id="DejaVuSans-Bold-66" d="M 2841 4863 
L 2841 4128 
L 2222 4128 
Q 1984 4128 1890 4042 
Q 1797 3956 1797 3744 
L 1797 3500 
L 2753 3500 
L 2753 2700 
L 1797 2700 
L 1797 0 
L 678 0 
L 678 2700 
L 122 2700 
L 122 3500 
L 678 3500 
L 678 3744 
Q 678 4316 997 4589 
Q 1316 4863 1984 4863 
L 2841 4863 
z
" transform="scale(0.015625)"/>
      <path id="DejaVuSans-Bold-70" d="M 1656 506 
L 1656 -1331 
L 538 -1331 
L 538 3500 
L 1656 3500 
L 1656 2988 
Q 1888 3294 2169 3439 
Q 2450 3584 2816 3584 
Q 3463 3584 3878 3070 
Q 4294 2556 4294 1747 
Q 4294 938 3878 423 
Q 3463 -91 2816 -91 
Q 2450 -91 2169 54 
Q 1888 200 1656 506 
z
M 2400 2772 
Q 2041 2772 1848 2508 
Q 1656 2244 1656 1747 
Q 1656 1250 1848 986 
Q 2041 722 2400 722 
Q 2759 722 2948 984 
Q 3138 1247 3138 1747 
Q 3138 2247 2948 2509 
Q 2759 2772 2400 2772 
z
" transform="scale(0.015625)"/>
      <path id="DejaVuSans-Bold-65" d="M 4031 1759 
L 4031 1441 
L 1416 1441 
Q 1456 1047 1700 850 
Q 1944 653 2381 653 
Q 2734 653 3104 758 
Q 3475 863 3866 1075 
L 3866 213 
Q 3469 63 3072 -14 
Q 2675 -91 2278 -91 
Q 1328 -91 801 392 
Q 275 875 275 1747 
Q 275 2603 792 3093 
Q 1309 3584 2216 3584 
Q 3041 3584 3536 3087 
Q 4031 2591 4031 1759 
z
M 2881 2131 
Q 2881 2450 2695 2645 
Q 2509 2841 2209 2841 
Q 1884 2841 1681 2658 
Q 1478 2475 1428 2131 
L 2881 2131 
z
" transform="scale(0.015625)"/>
      <path id="DejaVuSans-Bold-6d" d="M 3781 2919 
Q 3994 3244 4286 3414 
Q 4578 3584 4928 3584 
Q 5531 3584 5847 3212 
Q 6163 2841 6163 2131 
L 6163 0 
L 5038 0 
L 5038 1825 
Q 5041 1866 5042 1909 
Q 5044 1953 5044 2034 
Q 5044 2406 4934 2573 
Q 4825 2741 4581 2741 
Q 4263 2741 4089 2478 
Q 3916 2216 3909 1719 
L 3909 0 
L 2784 0 
L 2784 1825 
Q 2784 2406 2684 2573 
Q 2584 2741 2328 2741 
Q 2006 2741 1831 2477 
Q 1656 2213 1656 1722 
L 1656 0 
L 531 0 
L 531 3500 
L 1656 3500 
L 1656 2988 
Q 1863 3284 2130 3434 
Q 2397 3584 2719 3584 
Q 3081 3584 3359 3409 
Q 3638 3234 3781 2919 
z
" transform="scale(0.015625)"/>
      <path id="DejaVuSans-Bold-61" d="M 2106 1575 
Q 1756 1575 1579 1456 
Q 1403 1338 1403 1106 
Q 1403 894 1545 773 
Q 1688 653 1941 653 
Q 2256 653 2472 879 
Q 2688 1106 2688 1447 
L 2688 1575 
L 2106 1575 
z
M 3816 1997 
L 3816 0 
L 2688 0 
L 2688 519 
Q 2463 200 2181 54 
Q 1900 -91 1497 -91 
Q 953 -91 614 226 
Q 275 544 275 1050 
Q 275 1666 698 1953 
Q 1122 2241 2028 2241 
L 2688 2241 
L 2688 2328 
Q 2688 2594 2478 2717 
Q 2269 2841 1825 2841 
Q 1466 2841 1156 2769 
Q 847 2697 581 2553 
L 581 3406 
Q 941 3494 1303 3539 
Q 1666 3584 2028 3584 
Q 2975 3584 3395 3211 
Q 3816 2838 3816 1997 
z
" transform="scale(0.015625)"/>
      <path id="DejaVuSans-Bold-63" d="M 3366 3391 
L 3366 2478 
Q 3138 2634 2908 2709 
Q 2678 2784 2431 2784 
Q 1963 2784 1702 2511 
Q 1441 2238 1441 1747 
Q 1441 1256 1702 982 
Q 1963 709 2431 709 
Q 2694 709 2930 787 
Q 3166 866 3366 1019 
L 3366 103 
Q 3103 6 2833 -42 
Q 2563 -91 2291 -91 
Q 1344 -91 809 395 
Q 275 881 275 1747 
Q 275 2613 809 3098 
Q 1344 3584 2291 3584 
Q 2566 3584 2833 3536 
Q 3100 3488 3366 3391 
z
" transform="scale(0.015625)"/>
      <path id="DejaVuSans-Bold-68" d="M 4056 2131 
L 4056 0 
L 2931 0 
L 2931 347 
L 2931 1625 
Q 2931 2084 2911 2256 
Q 2891 2428 2841 2509 
Q 2775 2619 2662 2680 
Q 2550 2741 2406 2741 
Q 2056 2741 1856 2470 
Q 1656 2200 1656 1722 
L 1656 0 
L 538 0 
L 538 4863 
L 1656 4863 
L 1656 2988 
Q 1909 3294 2193 3439 
Q 2478 3584 2822 3584 
Q 3428 3584 3742 3212 
Q 4056 2841 4056 2131 
z
" transform="scale(0.015625)"/>
      <path id="DejaVuSans-Bold-43" d="M 4288 256 
Q 3956 84 3597 -3 
Q 3238 -91 2847 -91 
Q 1681 -91 1000 561 
Q 319 1213 319 2328 
Q 319 3447 1000 4098 
Q 1681 4750 2847 4750 
Q 3238 4750 3597 4662 
Q 3956 4575 4288 4403 
L 4288 3438 
Q 3953 3666 3628 3772 
Q 3303 3878 2944 3878 
Q 2300 3878 1931 3465 
Q 1563 3053 1563 2328 
Q 1563 1606 1931 1193 
Q 2300 781 2944 781 
Q 3303 781 3628 887 
Q 3953 994 4288 1222 
L 4288 256 
z
" transform="scale(0.015625)"/>
      <path id="DejaVuSans-Bold-6c" d="M 538 4863 
L 1656 4863 
L 1656 0 
L 538 0 
L 538 4863 
z
" transform="scale(0.015625)"/>
     </defs>
     <use xlink:href="#DejaVuSans-Bold-44"/>
     <use xlink:href="#DejaVuSans-Bold-69" transform="translate(83.007812 0)"/>
     <use xlink:href="#DejaVuSans-Bold-73" transform="translate(117.285156 0)"/>
     <use xlink:href="#DejaVuSans-Bold-74" transform="translate(176.806641 0)"/>
     <use xlink:href="#DejaVuSans-Bold-72" transform="translate(224.609375 0)"/>
     <use xlink:href="#DejaVuSans-Bold-69" transform="translate(273.925781 0)"/>
     <use xlink:href="#DejaVuSans-Bold-62" transform="translate(308.203125 0)"/>
     <use xlink:href="#DejaVuSans-Bold-75" transform="translate(379.785156 0)"/>
     <use xlink:href="#DejaVuSans-Bold-74" transform="translate(450.976562 0)"/>
     <use xlink:href="#DejaVuSans-Bold-69" transform="translate(498.779297 0)"/>
     <use xlink:href="#DejaVuSans-Bold-6f" transform="translate(533.056641 0)"/>
     <use xlink:href="#DejaVuSans-Bold-6e" transform="translate(601.757812 0)"/>
     <use xlink:href="#DejaVuSans-Bold-20" transform="translate(672.949219 0)"/>
     <use xlink:href="#DejaVuSans-Bold-6f" transform="translate(707.763672 0)"/>
     <use xlink:href="#DejaVuSans-Bold-66" transform="translate(776.464844 0)"/>
     <use xlink:href="#DejaVuSans-Bold-20" transform="translate(819.970703 0)"/>
     <use xlink:href="#DejaVuSans-Bold-70" transform="translate(854.785156 0)"/>
     <use xlink:href="#DejaVuSans-Bold-65" transform="translate(926.367188 0)"/>
     <use xlink:href="#DejaVuSans-Bold-72" transform="translate(994.189453 0)"/>
     <use xlink:href="#DejaVuSans-Bold-69" transform="translate(1043.505859 0)"/>
     <use xlink:href="#DejaVuSans-Bold-6d" transform="translate(1077.783203 0)"/>
     <use xlink:href="#DejaVuSans-Bold-65" transform="translate(1181.982422 0)"/>
     <use xlink:href="#DejaVuSans-Bold-74" transform="translate(1249.804688 0)"/>
     <use xlink:href="#DejaVuSans-Bold-65" transform="translate(1297.607422 0)"/>
     <use xlink:href="#DejaVuSans-Bold-72" transform="translate(1365.429688 0)"/>
     <use xlink:href="#DejaVuSans-Bold-20" transform="translate(1414.746094 0)"/>
     <use xlink:href="#DejaVuSans-Bold-66" transform="translate(1449.560547 0)"/>
     <use xlink:href="#DejaVuSans-Bold-6f" transform="translate(1493.066406 0)"/>
     <use xlink:href="#DejaVuSans-Bold-72" transform="translate(1561.767578 0)"/>
     <use xlink:href="#DejaVuSans-Bold-20" transform="translate(1611.083984 0)"/>
     <use xlink:href="#DejaVuSans-Bold-65" transform="translate(1645.898438 0)"/>
     <use xlink:href="#DejaVuSans-Bold-61" transform="translate(1713.720703 0)"/>
     <use xlink:href="#DejaVuSans-Bold-63" transform="translate(1781.201172 0)"/>
     <use xlink:href="#DejaVuSans-Bold-68" transform="translate(1840.478516 0)"/>
     <use xlink:href="#DejaVuSans-Bold-20" transform="translate(1911.669922 0)"/>
     <use xlink:href="#DejaVuSans-Bold-43" transform="translate(1946.484375 0)"/>
     <use xlink:href="#DejaVuSans-Bold-6c" transform="translate(2019.873047 0)"/>
     <use xlink:href="#DejaVuSans-Bold-61" transform="translate(2054.150391 0)"/>
     <use xlink:href="#DejaVuSans-Bold-73" transform="translate(2121.630859 0)"/>
     <use xlink:href="#DejaVuSans-Bold-73" transform="translate(2181.152344 0)"/>
    </g>
   </g>
   <g id="legend_1">
    <g id="patch_5">
     <path d="M 219.690551 73.013438 
L 321.603051 73.013438 
Q 323.803051 73.013438 323.803051 70.813438 
L 323.803051 28.498438 
Q 323.803051 26.298438 321.603051 26.298438 
L 219.690551 26.298438 
Q 217.490551 26.298438 217.490551 28.498438 
L 217.490551 70.813438 
Q 217.490551 73.013438 219.690551 73.013438 
z
" style="fill: #ffffff; opacity: 0.8; stroke: #cccccc; stroke-linejoin: miter"/>
    </g>
    <g id="text_21">
     <!-- Class -->
     <g style="fill: #262626" transform="translate(260.123676 36.777188) scale(0.08 -0.08)">
      <defs>
       <path id="DejaVuSans-6c" d="M 603 4863 
L 1178 4863 
L 1178 0 
L 603 0 
L 603 4863 
z
" transform="scale(0.015625)"/>
       <path id="DejaVuSans-61" d="M 2194 1759 
Q 1497 1759 1228 1600 
Q 959 1441 959 1056 
Q 959 750 1161 570 
Q 1363 391 1709 391 
Q 2188 391 2477 730 
Q 2766 1069 2766 1631 
L 2766 1759 
L 2194 1759 
z
M 3341 1997 
L 3341 0 
L 2766 0 
L 2766 531 
Q 2569 213 2275 61 
Q 1981 -91 1556 -91 
Q 1019 -91 701 211 
Q 384 513 384 1019 
Q 384 1609 779 1909 
Q 1175 2209 1959 2209 
L 2766 2209 
L 2766 2266 
Q 2766 2663 2505 2880 
Q 2244 3097 1772 3097 
Q 1472 3097 1187 3025 
Q 903 2953 641 2809 
L 641 3341 
Q 956 3463 1253 3523 
Q 1550 3584 1831 3584 
Q 2591 3584 2966 3190 
Q 3341 2797 3341 1997 
z
" transform="scale(0.015625)"/>
       <path id="DejaVuSans-73" d="M 2834 3397 
L 2834 2853 
Q 2591 2978 2328 3040 
Q 2066 3103 1784 3103 
Q 1356 3103 1142 2972 
Q 928 2841 928 2578 
Q 928 2378 1081 2264 
Q 1234 2150 1697 2047 
L 1894 2003 
Q 2506 1872 2764 1633 
Q 3022 1394 3022 966 
Q 3022 478 2636 193 
Q 2250 -91 1575 -91 
Q 1294 -91 989 -36 
Q 684 19 347 128 
L 347 722 
Q 666 556 975 473 
Q 1284 391 1588 391 
Q 1994 391 2212 530 
Q 2431 669 2431 922 
Q 2431 1156 2273 1281 
Q 2116 1406 1581 1522 
L 1381 1569 
Q 847 1681 609 1914 
Q 372 2147 372 2553 
Q 372 3047 722 3315 
Q 1072 3584 1716 3584 
Q 2034 3584 2315 3537 
Q 2597 3491 2834 3397 
z
" transform="scale(0.015625)"/>
      </defs>
      <use xlink:href="#DejaVuSans-43"/>
      <use xlink:href="#DejaVuSans-6c" transform="translate(69.824219 0)"/>
      <use xlink:href="#DejaVuSans-61" transform="translate(97.607422 0)"/>
      <use xlink:href="#DejaVuSans-73" transform="translate(158.886719 0)"/>
      <use xlink:href="#DejaVuSans-73" transform="translate(210.986328 0)"/>
     </g>
    </g>
    <g id="patch_6">
     <path d="M 221.890551 51.640938 
L 243.890551 51.640938 
L 243.890551 43.940938 
L 221.890551 43.940938 
z
" style="fill: #31688e; fill-opacity: 0.25; stroke: #31688e; stroke-linejoin: miter"/>
    </g>
    <g id="text_22">
     <!-- Kirmizi_Pistachio -->
     <g style="fill: #262626" transform="translate(252.690551 51.640938) scale(0.08 -0.08)">
      <defs>
       <path id="DejaVuSans-4b" d="M 628 4666 
L 1259 4666 
L 1259 2694 
L 3353 4666 
L 4166 4666 
L 1850 2491 
L 4331 0 
L 3500 0 
L 1259 2247 
L 1259 0 
L 628 0 
L 628 4666 
z
" transform="scale(0.015625)"/>
       <path id="DejaVuSans-7a" d="M 353 3500 
L 3084 3500 
L 3084 2975 
L 922 459 
L 3084 459 
L 3084 0 
L 275 0 
L 275 525 
L 2438 3041 
L 353 3041 
L 353 3500 
z
" transform="scale(0.015625)"/>
       <path id="DejaVuSans-5f" d="M 3263 -1063 
L 3263 -1509 
L -63 -1509 
L -63 -1063 
L 3263 -1063 
z
" transform="scale(0.015625)"/>
       <path id="DejaVuSans-50" d="M 1259 4147 
L 1259 2394 
L 2053 2394 
Q 2494 2394 2734 2622 
Q 2975 2850 2975 3272 
Q 2975 3691 2734 3919 
Q 2494 4147 2053 4147 
L 1259 4147 
z
M 628 4666 
L 2053 4666 
Q 2838 4666 3239 4311 
Q 3641 3956 3641 3272 
Q 3641 2581 3239 2228 
Q 2838 1875 2053 1875 
L 1259 1875 
L 1259 0 
L 628 0 
L 628 4666 
z
" transform="scale(0.015625)"/>
       <path id="DejaVuSans-63" d="M 3122 3366 
L 3122 2828 
Q 2878 2963 2633 3030 
Q 2388 3097 2138 3097 
Q 1578 3097 1268 2742 
Q 959 2388 959 1747 
Q 959 1106 1268 751 
Q 1578 397 2138 397 
Q 2388 397 2633 464 
Q 2878 531 3122 666 
L 3122 134 
Q 2881 22 2623 -34 
Q 2366 -91 2075 -91 
Q 1284 -91 818 406 
Q 353 903 353 1747 
Q 353 2603 823 3093 
Q 1294 3584 2113 3584 
Q 2378 3584 2631 3529 
Q 2884 3475 3122 3366 
z
" transform="scale(0.015625)"/>
       <path id="DejaVuSans-68" d="M 3513 2113 
L 3513 0 
L 2938 0 
L 2938 2094 
Q 2938 2591 2744 2837 
Q 2550 3084 2163 3084 
Q 1697 3084 1428 2787 
Q 1159 2491 1159 1978 
L 1159 0 
L 581 0 
L 581 4863 
L 1159 4863 
L 1159 2956 
Q 1366 3272 1645 3428 
Q 1925 3584 2291 3584 
Q 2894 3584 3203 3211 
Q 3513 2838 3513 2113 
z
" transform="scale(0.015625)"/>
      </defs>
      <use xlink:href="#DejaVuSans-4b"/>
      <use xlink:href="#DejaVuSans-69" transform="translate(65.576172 0)"/>
      <use xlink:href="#DejaVuSans-72" transform="translate(93.359375 0)"/>
      <use xlink:href="#DejaVuSans-6d" transform="translate(132.722656 0)"/>
      <use xlink:href="#DejaVuSans-69" transform="translate(230.134766 0)"/>
      <use xlink:href="#DejaVuSans-7a" transform="translate(257.917969 0)"/>
      <use xlink:href="#DejaVuSans-69" transform="translate(310.408203 0)"/>
      <use xlink:href="#DejaVuSans-5f" transform="translate(338.191406 0)"/>
      <use xlink:href="#DejaVuSans-50" transform="translate(388.191406 0)"/>
      <use xlink:href="#DejaVuSans-69" transform="translate(446.244141 0)"/>
      <use xlink:href="#DejaVuSans-73" transform="translate(474.027344 0)"/>
      <use xlink:href="#DejaVuSans-74" transform="translate(526.126953 0)"/>
      <use xlink:href="#DejaVuSans-61" transform="translate(565.335938 0)"/>
      <use xlink:href="#DejaVuSans-63" transform="translate(626.615234 0)"/>
      <use xlink:href="#DejaVuSans-68" transform="translate(681.595703 0)"/>
      <use xlink:href="#DejaVuSans-69" transform="translate(744.974609 0)"/>
      <use xlink:href="#DejaVuSans-6f" transform="translate(772.757812 0)"/>
     </g>
    </g>
    <g id="patch_7">
     <path d="M 221.890551 66.727188 
L 243.890551 66.727188 
L 243.890551 59.027188 
L 221.890551 59.027188 
z
" style="fill: #35b779; fill-opacity: 0.25; stroke: #35b779; stroke-linejoin: miter"/>
    </g>
    <g id="text_23">
     <!-- Siirt_Pistachio -->
     <g style="fill: #262626" transform="translate(252.690551 66.727188) scale(0.08 -0.08)">
      <defs>
       <path id="DejaVuSans-53" d="M 3425 4513 
L 3425 3897 
Q 3066 4069 2747 4153 
Q 2428 4238 2131 4238 
Q 1616 4238 1336 4038 
Q 1056 3838 1056 3469 
Q 1056 3159 1242 3001 
Q 1428 2844 1947 2747 
L 2328 2669 
Q 3034 2534 3370 2195 
Q 3706 1856 3706 1288 
Q 3706 609 3251 259 
Q 2797 -91 1919 -91 
Q 1588 -91 1214 -16 
Q 841 59 441 206 
L 441 856 
Q 825 641 1194 531 
Q 1563 422 1919 422 
Q 2459 422 2753 634 
Q 3047 847 3047 1241 
Q 3047 1584 2836 1778 
Q 2625 1972 2144 2069 
L 1759 2144 
Q 1053 2284 737 2584 
Q 422 2884 422 3419 
Q 422 4038 858 4394 
Q 1294 4750 2059 4750 
Q 2388 4750 2728 4690 
Q 3069 4631 3425 4513 
z
" transform="scale(0.015625)"/>
      </defs>
      <use xlink:href="#DejaVuSans-53"/>
      <use xlink:href="#DejaVuSans-69" transform="translate(63.476562 0)"/>
      <use xlink:href="#DejaVuSans-69" transform="translate(91.259766 0)"/>
      <use xlink:href="#DejaVuSans-72" transform="translate(119.042969 0)"/>
      <use xlink:href="#DejaVuSans-74" transform="translate(160.15625 0)"/>
      <use xlink:href="#DejaVuSans-5f" transform="translate(199.365234 0)"/>
      <use xlink:href="#DejaVuSans-50" transform="translate(249.365234 0)"/>
      <use xlink:href="#DejaVuSans-69" transform="translate(307.417969 0)"/>
      <use xlink:href="#DejaVuSans-73" transform="translate(335.201172 0)"/>
      <use xlink:href="#DejaVuSans-74" transform="translate(387.300781 0)"/>
      <use xlink:href="#DejaVuSans-61" transform="translate(426.509766 0)"/>
      <use xlink:href="#DejaVuSans-63" transform="translate(487.789062 0)"/>
      <use xlink:href="#DejaVuSans-68" transform="translate(542.769531 0)"/>
      <use xlink:href="#DejaVuSans-69" transform="translate(606.148438 0)"/>
      <use xlink:href="#DejaVuSans-6f" transform="translate(633.931641 0)"/>
     </g>
    </g>
   </g>
  </g>
 </g>
 <defs>
  <clipPath id="p4e15278dd6">
   <rect x="43.7125" y="20.798438" width="285.590551" height="177.34252"/>
  </clipPath>
 </defs>
</svg>
