<?xml version="1.0" encoding="utf-8" standalone="no"?>
<!DOCTYPE svg PUBLIC "-//W3C//DTD SVG 1.1//EN"
  "http://www.w3.org/Graphics/SVG/1.1/DTD/svg11.dtd">
<svg xmlns:xlink="http://www.w3.org/1999/xlink" width="336.503051pt" height="234.548457pt" viewBox="0 0 336.503051 234.548457" xmlns="http://www.w3.org/2000/svg" version="1.1">
 <metadata>
  <rdf:RDF xmlns:dc="http://purl.org/dc/elements/1.1/" xmlns:cc="http://creativecommons.org/ns#" xmlns:rdf="http://www.w3.org/1999/02/22-rdf-syntax-ns#">
   <cc:Work>
    <dc:type rdf:resource="http://purl.org/dc/dcmitype/StillImage"/>
    <dc:date>2025-12-12T10:29:40.025920</dc:date>
    <dc:format>image/svg+xml</dc:format>
    <dc:creator>
     <cc:Agent>
      <dc:title>Matplotlib v3.10.7, https://matplotlib.org/</dc:title>
     </cc:Agent>
    </dc:creator>
   </cc:Work>
  </rdf:RDF>
 </metadata>
 <defs>
  <style type="text/css">*{stroke-linejoin: round; stroke-linecap: butt}</style>
 </defs>
 <g id="figure_1">
  <g id="patch_1">
   <path d="M 0 234.548457 
L 336.503051 234.548457 
L 336.503051 0 
L 0 0 
z
" style="fill: #ffffff"/>
  </g>
  <g id="axes_1">
   <g id="patch_2">
    <path d="M 43.7125 198.140957 
L 329.303051 198.140957 
L 329.303051 20.798438 
L 43.7125 20.798438 
z
" style="fill: #ffffff"/>
   </g>
   <g id="matplotlib.axis_1">
    <g id="xtick_1">
     <g id="line2d_1">
      <path d="M 66.57572 198.140957 
L 66.57572 20.798438 
" clip-path="url(#pa121285d59)" style="fill: none; stroke: #cccccc; stroke-linecap: round"/>
     </g>
     <g id="text_1">
      <!-- 2 -->
      <g style="fill: #262626" transform="translate(64.03072 213.719707) scale(0.08 -0.08)">
       <defs>
        <path id="DejaVuSans-32" d="M 1228 531 
L 3431 531 
L 3431 0 
L 469 0 
L 469 531 
Q 828 903 1448 1529 
Q 2069 2156 2228 2338 
Q 2531 2678 2651 2914 
Q 2772 3150 2772 3378 
Q 2772 3750 2511 3984 
Q 2250 4219 1831 4219 
Q 1534 4219 1204 4116 
Q 875 4013 500 3803 
L 500 4441 
Q 881 4594 1212 4672 
Q 1544 4750 1819 4750 
Q 2544 4750 2975 4387 
Q 3406 4025 3406 3419 
Q 3406 3131 3298 2873 
Q 3191 2616 2906 2266 
Q 2828 2175 2409 1742 
Q 1991 1309 1228 531 
z
" transform="scale(0.015625)"/>
       </defs>
       <use xlink:href="#DejaVuSans-32"/>
      </g>
     </g>
    </g>
    <g id="xtick_2">
     <g id="line2d_2">
      <path d="M 125.659916 198.140957 
L 125.659916 20.798438 
" clip-path="url(#pa121285d59)" style="fill: none; stroke: #cccccc; stroke-linecap: round"/>
     </g>
     <g id="text_2">
      <!-- 4 -->
      <g style="fill: #262626" transform="translate(123.114916 213.719707) scale(0.08 -0.08)">
       <defs>
        <path id="DejaVuSans-34" d="M 2419 4116 
L 825 1625 
L 2419 1625 
L 2419 4116 
z
M 2253 4666 
L 3047 4666 
L 3047 1625 
L 3713 1625 
L 3713 1100 
L 3047 1100 
L 3047 0 
L 2419 0 
L 2419 1100 
L 313 1100 
L 313 1709 
L 2253 4666 
z
" transform="scale(0.015625)"/>
       </defs>
       <use xlink:href="#DejaVuSans-34"/>
      </g>
     </g>
    </g>
    <g id="xtick_3">
     <g id="line2d_3">
      <path d="M 184.744112 198.140957 
L 184.744112 20.798438 
" clip-path="url(#pa121285d59)" style="fill: none; stroke: #cccccc; stroke-linecap: round"/>
     </g>
     <g id="text_3">
      <!-- 6 -->
      <g style="fill: #262626" transform="translate(182.199112 213.719707) scale(0.08 -0.08)">
       <defs>
        <path id="DejaVuSans-36" d="M 2113 2584 
Q 1688 2584 1439 2293 
Q 1191 2003 1191 1497 
Q 1191 994 1439 701 
Q 1688 409 2113 409 
Q 2538 409 2786 701 
Q 3034 994 3034 1497 
Q 3034 2003 2786 2293 
Q 2538 2584 2113 2584 
z
M 3366 4563 
L 3366 3988 
Q 3128 4100 2886 4159 
Q 2644 4219 2406 4219 
Q 1781 4219 1451 3797 
Q 1122 3375 1075 2522 
Q 1259 2794 1537 2939 
Q 1816 3084 2150 3084 
Q 2853 3084 3261 2657 
Q 3669 2231 3669 1497 
Q 3669 778 3244 343 
Q 2819 -91 2113 -91 
Q 1303 -91 875 529 
Q 447 1150 447 2328 
Q 447 3434 972 4092 
Q 1497 4750 2381 4750 
Q 2619 4750 2861 4703 
Q 3103 4656 3366 4563 
z
" transform="scale(0.015625)"/>
       </defs>
       <use xlink:href="#DejaVuSans-36"/>
      </g>
     </g>
    </g>
    <g id="xtick_4">
     <g id="line2d_4">
      <path d="M 243.828308 198.140957 
L 243.828308 20.798438 
" clip-path="url(#pa121285d59)" style="fill: none; stroke: #cccccc; stroke-linecap: round"/>
     </g>
     <g id="text_4">
      <!-- 8 -->
      <g style="fill: #262626" transform="translate(241.283308 213.719707) scale(0.08 -0.08)">
       <defs>
        <path id="DejaVuSans-38" d="M 2034 2216 
Q 1584 2216 1326 1975 
Q 1069 1734 1069 1313 
Q 1069 891 1326 650 
Q 1584 409 2034 409 
Q 2484 409 2743 651 
Q 3003 894 3003 1313 
Q 3003 1734 2745 1975 
Q 2488 2216 2034 2216 
z
M 1403 2484 
Q 997 2584 770 2862 
Q 544 3141 544 3541 
Q 544 4100 942 4425 
Q 1341 4750 2034 4750 
Q 2731 4750 3128 4425 
Q 3525 4100 3525 3541 
Q 3525 3141 3298 2862 
Q 3072 2584 2669 2484 
Q 3125 2378 3379 2068 
Q 3634 1759 3634 1313 
Q 3634 634 3220 271 
Q 2806 -91 2034 -91 
Q 1263 -91 848 271 
Q 434 634 434 1313 
Q 434 1759 690 2068 
Q 947 2378 1403 2484 
z
M 1172 3481 
Q 1172 3119 1398 2916 
Q 1625 2713 2034 2713 
Q 2441 2713 2670 2916 
Q 2900 3119 2900 3481 
Q 2900 3844 2670 4047 
Q 2441 4250 2034 4250 
Q 1625 4250 1398 4047 
Q 1172 3844 1172 3481 
z
" transform="scale(0.015625)"/>
       </defs>
       <use xlink:href="#DejaVuSans-38"/>
      </g>
     </g>
    </g>
    <g id="xtick_5">
     <g id="line2d_5">
      <path d="M 302.912504 198.140957 
L 302.912504 20.798438 
" clip-path="url(#pa121285d59)" style="fill: none; stroke: #cccccc; stroke-linecap: round"/>
     </g>
     <g id="text_5">
      <!-- 10 -->
      <g style="fill: #262626" transform="translate(297.822504 213.719707) scale(0.08 -0.08)">
       <defs>
        <path id="DejaVuSans-31" d="M 794 531 
L 1825 531 
L 1825 4091 
L 703 3866 
L 703 4441 
L 1819 4666 
L 2450 4666 
L 2450 531 
L 3481 531 
L 3481 0 
L 794 0 
L 794 531 
z
" transform="scale(0.015625)"/>
        <path id="DejaVuSans-30" d="M 2034 4250 
Q 1547 4250 1301 3770 
Q 1056 3291 1056 2328 
Q 1056 1369 1301 889 
Q 1547 409 2034 409 
Q 2525 409 2770 889 
Q 3016 1369 3016 2328 
Q 3016 3291 2770 3770 
Q 2525 4250 2034 4250 
z
M 2034 4750 
Q 2819 4750 3233 4129 
Q 3647 3509 3647 2328 
Q 3647 1150 3233 529 
Q 2819 -91 2034 -91 
Q 1250 -91 836 529 
Q 422 1150 422 2328 
Q 422 3509 836 4129 
Q 1250 4750 2034 4750 
z
" transform="scale(0.015625)"/>
       </defs>
       <use xlink:href="#DejaVuSans-31"/>
       <use xlink:href="#DejaVuSans-30" transform="translate(63.623047 0)"/>
      </g>
     </g>
    </g>
    <g id="text_6">
     <!-- kurtosis_rg -->
     <g style="fill: #262626" transform="translate(164.729026 225.462207) scale(0.08 -0.08)">
      <defs>
       <path id="DejaVuSans-6b" d="M 581 4863 
L 1159 4863 
L 1159 1991 
L 2875 3500 
L 3609 3500 
L 1753 1863 
L 3688 0 
L 2938 0 
L 1159 1709 
L 1159 0 
L 581 0 
L 581 4863 
z
" transform="scale(0.015625)"/>
       <path id="DejaVuSans-75" d="M 544 1381 
L 544 3500 
L 1119 3500 
L 1119 1403 
Q 1119 906 1312 657 
Q 1506 409 1894 409 
Q 2359 409 2629 706 
Q 2900 1003 2900 1516 
L 2900 3500 
L 3475 3500 
L 3475 0 
L 2900 0 
L 2900 538 
Q 2691 219 2414 64 
Q 2138 -91 1772 -91 
Q 1169 -91 856 284 
Q 544 659 544 1381 
z
M 1991 3584 
L 1991 3584 
z
" transform="scale(0.015625)"/>
       <path id="DejaVuSans-72" d="M 2631 2963 
Q 2534 3019 2420 3045 
Q 2306 3072 2169 3072 
Q 1681 3072 1420 2755 
Q 1159 2438 1159 1844 
L 1159 0 
L 581 0 
L 581 3500 
L 1159 3500 
L 1159 2956 
Q 1341 3275 1631 3429 
Q 1922 3584 2338 3584 
Q 2397 3584 2469 3576 
Q 2541 3569 2628 3553 
L 2631 2963 
z
" transform="scale(0.015625)"/>
       <path id="DejaVuSans-74" d="M 1172 4494 
L 1172 3500 
L 2356 3500 
L 2356 3053 
L 1172 3053 
L 1172 1153 
Q 1172 725 1289 603 
Q 1406 481 1766 481 
L 2356 481 
L 2356 0 
L 1766 0 
Q 1100 0 847 248 
Q 594 497 594 1153 
L 594 3053 
L 172 3053 
L 172 3500 
L 594 3500 
L 594 4494 
L 1172 4494 
z
" transform="scale(0.015625)"/>
       <path id="DejaVuSans-6f" d="M 1959 3097 
Q 1497 3097 1228 2736 
Q 959 2375 959 1747 
Q 959 1119 1226 758 
Q 1494 397 1959 397 
Q 2419 397 2687 759 
Q 2956 1122 2956 1747 
Q 2956 2369 2687 2733 
Q 2419 3097 1959 3097 
z
M 1959 3584 
Q 2709 3584 3137 3096 
Q 3566 2609 3566 1747 
Q 3566 888 3137 398 
Q 2709 -91 1959 -91 
Q 1206 -91 779 398 
Q 353 888 353 1747 
Q 353 2609 779 3096 
Q 1206 3584 1959 3584 
z
" transform="scale(0.015625)"/>
       <path id="DejaVuSans-73" d="M 2834 3397 
L 2834 2853 
Q 2591 2978 2328 3040 
Q 2066 3103 1784 3103 
Q 1356 3103 1142 2972 
Q 928 2841 928 2578 
Q 928 2378 1081 2264 
Q 1234 2150 1697 2047 
L 1894 2003 
Q 2506 1872 2764 1633 
Q 3022 1394 3022 966 
Q 3022 478 2636 193 
Q 2250 -91 1575 -91 
Q 1294 -91 989 -36 
Q 684 19 347 128 
L 347 722 
Q 666 556 975 473 
Q 1284 391 1588 391 
Q 1994 391 2212 530 
Q 2431 669 2431 922 
Q 2431 1156 2273 1281 
Q 2116 1406 1581 1522 
L 1381 1569 
Q 847 1681 609 1914 
Q 372 2147 372 2553 
Q 372 3047 722 3315 
Q 1072 3584 1716 3584 
Q 2034 3584 2315 3537 
Q 2597 3491 2834 3397 
z
" transform="scale(0.015625)"/>
       <path id="DejaVuSans-69" d="M 603 3500 
L 1178 3500 
L 1178 0 
L 603 0 
L 603 3500 
z
M 603 4863 
L 1178 4863 
L 1178 4134 
L 603 4134 
L 603 4863 
z
" transform="scale(0.015625)"/>
       <path id="DejaVuSans-5f" d="M 3263 -1063 
L 3263 -1509 
L -63 -1509 
L -63 -1063 
L 3263 -1063 
z
" transform="scale(0.015625)"/>
       <path id="DejaVuSans-67" d="M 2906 1791 
Q 2906 2416 2648 2759 
Q 2391 3103 1925 3103 
Q 1463 3103 1205 2759 
Q 947 2416 947 1791 
Q 947 1169 1205 825 
Q 1463 481 1925 481 
Q 2391 481 2648 825 
Q 2906 1169 2906 1791 
z
M 3481 434 
Q 3481 -459 3084 -895 
Q 2688 -1331 1869 -1331 
Q 1566 -1331 1297 -1286 
Q 1028 -1241 775 -1147 
L 775 -588 
Q 1028 -725 1275 -790 
Q 1522 -856 1778 -856 
Q 2344 -856 2625 -561 
Q 2906 -266 2906 331 
L 2906 616 
Q 2728 306 2450 153 
Q 2172 0 1784 0 
Q 1141 0 747 490 
Q 353 981 353 1791 
Q 353 2603 747 3093 
Q 1141 3584 1784 3584 
Q 2172 3584 2450 3431 
Q 2728 3278 2906 2969 
L 2906 3500 
L 3481 3500 
L 3481 434 
z
" transform="scale(0.015625)"/>
      </defs>
      <use xlink:href="#DejaVuSans-6b"/>
      <use xlink:href="#DejaVuSans-75" transform="translate(54.785156 0)"/>
      <use xlink:href="#DejaVuSans-72" transform="translate(118.164062 0)"/>
      <use xlink:href="#DejaVuSans-74" transform="translate(159.277344 0)"/>
      <use xlink:href="#DejaVuSans-6f" transform="translate(198.486328 0)"/>
      <use xlink:href="#DejaVuSans-73" transform="translate(259.667969 0)"/>
      <use xlink:href="#DejaVuSans-69" transform="translate(311.767578 0)"/>
      <use xlink:href="#DejaVuSans-73" transform="translate(339.550781 0)"/>
      <use xlink:href="#DejaVuSans-5f" transform="translate(391.650391 0)"/>
      <use xlink:href="#DejaVuSans-72" transform="translate(441.650391 0)"/>
      <use xlink:href="#DejaVuSans-67" transform="translate(481.013672 0)"/>
     </g>
    </g>
   </g>
   <g id="matplotlib.axis_2">
    <g id="ytick_1">
     <g id="line2d_6">
      <path d="M 43.7125 198.140957 
L 329.303051 198.140957 
" clip-path="url(#pa121285d59)" style="fill: none; stroke: #cccccc; stroke-linecap: round"/>
     </g>
     <g id="text_7">
      <!-- 0 -->
      <g style="fill: #262626" transform="translate(29.1225 201.180332) scale(0.08 -0.08)">
       <use xlink:href="#DejaVuSans-30"/>
      </g>
     </g>
    </g>
    <g id="ytick_2">
     <g id="line2d_7">
      <path d="M 43.7125 171.955277 
L 329.303051 171.955277 
" clip-path="url(#pa121285d59)" style="fill: none; stroke: #cccccc; stroke-linecap: round"/>
     </g>
     <g id="text_8">
      <!-- 20 -->
      <g style="fill: #262626" transform="translate(24.0325 174.994652) scale(0.08 -0.08)">
       <use xlink:href="#DejaVuSans-32"/>
       <use xlink:href="#DejaVuSans-30" transform="translate(63.623047 0)"/>
      </g>
     </g>
    </g>
    <g id="ytick_3">
     <g id="line2d_8">
      <path d="M 43.7125 145.769597 
L 329.303051 145.769597 
" clip-path="url(#pa121285d59)" style="fill: none; stroke: #cccccc; stroke-linecap: round"/>
     </g>
     <g id="text_9">
      <!-- 40 -->
      <g style="fill: #262626" transform="translate(24.0325 148.808972) scale(0.08 -0.08)">
       <use xlink:href="#DejaVuSans-34"/>
       <use xlink:href="#DejaVuSans-30" transform="translate(63.623047 0)"/>
      </g>
     </g>
    </g>
    <g id="ytick_4">
     <g id="line2d_9">
      <path d="M 43.7125 119.583916 
L 329.303051 119.583916 
" clip-path="url(#pa121285d59)" style="fill: none; stroke: #cccccc; stroke-linecap: round"/>
     </g>
     <g id="text_10">
      <!-- 60 -->
      <g style="fill: #262626" transform="translate(24.0325 122.623291) scale(0.08 -0.08)">
       <use xlink:href="#DejaVuSans-36"/>
       <use xlink:href="#DejaVuSans-30" transform="translate(63.623047 0)"/>
      </g>
     </g>
    </g>
    <g id="ytick_5">
     <g id="line2d_10">
      <path d="M 43.7125 93.398236 
L 329.303051 93.398236 
" clip-path="url(#pa121285d59)" style="fill: none; stroke: #cccccc; stroke-linecap: round"/>
     </g>
     <g id="text_11">
      <!-- 80 -->
      <g style="fill: #262626" transform="translate(24.0325 96.437611) scale(0.08 -0.08)">
       <use xlink:href="#DejaVuSans-38"/>
       <use xlink:href="#DejaVuSans-30" transform="translate(63.623047 0)"/>
      </g>
     </g>
    </g>
    <g id="ytick_6">
     <g id="line2d_11">
      <path d="M 43.7125 67.212556 
L 329.303051 67.212556 
" clip-path="url(#pa121285d59)" style="fill: none; stroke: #cccccc; stroke-linecap: round"/>
     </g>
     <g id="text_12">
      <!-- 100 -->
      <g style="fill: #262626" transform="translate(18.9425 70.251931) scale(0.08 -0.08)">
       <use xlink:href="#DejaVuSans-31"/>
       <use xlink:href="#DejaVuSans-30" transform="translate(63.623047 0)"/>
       <use xlink:href="#DejaVuSans-30" transform="translate(127.246094 0)"/>
      </g>
     </g>
    </g>
    <g id="ytick_7">
     <g id="line2d_12">
      <path d="M 43.7125 41.026876 
L 329.303051 41.026876 
" clip-path="url(#pa121285d59)" style="fill: none; stroke: #cccccc; stroke-linecap: round"/>
     </g>
     <g id="text_13">
      <!-- 120 -->
      <g style="fill: #262626" transform="translate(18.9425 44.066251) scale(0.08 -0.08)">
       <use xlink:href="#DejaVuSans-31"/>
       <use xlink:href="#DejaVuSans-32" transform="translate(63.623047 0)"/>
       <use xlink:href="#DejaVuSans-30" transform="translate(127.246094 0)"/>
      </g>
     </g>
    </g>
    <g id="text_14">
     <!-- Count -->
     <g style="fill: #262626" transform="translate(13.27875 121.348447) rotate(-90) scale(0.08 -0.08)">
      <defs>
       <path id="DejaVuSans-43" d="M 4122 4306 
L 4122 3641 
Q 3803 3938 3442 4084 
Q 3081 4231 2675 4231 
Q 1875 4231 1450 3742 
Q 1025 3253 1025 2328 
Q 1025 1406 1450 917 
Q 1875 428 2675 428 
Q 3081 428 3442 575 
Q 3803 722 4122 1019 
L 4122 359 
Q 3791 134 3420 21 
Q 3050 -91 2638 -91 
Q 1578 -91 968 557 
Q 359 1206 359 2328 
Q 359 3453 968 4101 
Q 1578 4750 2638 4750 
Q 3056 4750 3426 4639 
Q 3797 4528 4122 4306 
z
" transform="scale(0.015625)"/>
       <path id="DejaVuSans-6e" d="M 3513 2113 
L 3513 0 
L 2938 0 
L 2938 2094 
Q 2938 2591 2744 2837 
Q 2550 3084 2163 3084 
Q 1697 3084 1428 2787 
Q 1159 2491 1159 1978 
L 1159 0 
L 581 0 
L 581 3500 
L 1159 3500 
L 1159 2956 
Q 1366 3272 1645 3428 
Q 1925 3584 2291 3584 
Q 2894 3584 3203 3211 
Q 3513 2838 3513 2113 
z
" transform="scale(0.015625)"/>
      </defs>
      <use xlink:href="#DejaVuSans-43"/>
      <use xlink:href="#DejaVuSans-6f" transform="translate(69.824219 0)"/>
      <use xlink:href="#DejaVuSans-75" transform="translate(131.005859 0)"/>
      <use xlink:href="#DejaVuSans-6e" transform="translate(194.384766 0)"/>
      <use xlink:href="#DejaVuSans-74" transform="translate(257.763672 0)"/>
     </g>
    </g>
   </g>
   <g id="FillBetweenPolyCollection_1">
    <defs>
     <path id="me3b81e044f" d="M 56.693889 -39.026068 
L 56.693889 -36.4075 
L 60.402857 -36.4075 
L 60.402857 -36.4075 
L 64.111825 -36.4075 
L 64.111825 -36.4075 
L 67.820793 -36.4075 
L 67.820793 -36.4075 
L 71.529761 -36.4075 
L 71.529761 -36.4075 
L 75.23873 -36.4075 
L 75.23873 -36.4075 
L 78.947698 -36.4075 
L 78.947698 -36.4075 
L 82.656666 -36.4075 
L 82.656666 -36.4075 
L 86.365634 -36.4075 
L 86.365634 -36.4075 
L 90.074602 -36.4075 
L 90.074602 -36.4075 
L 93.783571 -36.4075 
L 93.783571 -36.4075 
L 97.492539 -36.4075 
L 97.492539 -36.4075 
L 101.201507 -36.4075 
L 101.201507 -36.4075 
L 104.910475 -36.4075 
L 104.910475 -36.4075 
L 108.619443 -36.4075 
L 108.619443 -36.4075 
L 112.328412 -36.4075 
L 112.328412 -36.4075 
L 116.03738 -36.4075 
L 116.03738 -36.4075 
L 119.746348 -36.4075 
L 119.746348 -36.4075 
L 123.455316 -36.4075 
L 123.455316 -36.4075 
L 127.164284 -36.4075 
L 127.164284 -36.4075 
L 130.873253 -36.4075 
L 130.873253 -36.4075 
L 134.582221 -36.4075 
L 134.582221 -36.4075 
L 138.291189 -36.4075 
L 138.291189 -36.4075 
L 142.000157 -36.4075 
L 142.000157 -36.4075 
L 145.709125 -36.4075 
L 145.709125 -36.4075 
L 149.418094 -36.4075 
L 149.418094 -36.4075 
L 153.127062 -36.4075 
L 153.127062 -36.4075 
L 156.83603 -36.4075 
L 156.83603 -36.4075 
L 160.544998 -36.4075 
L 160.544998 -36.4075 
L 164.253966 -36.4075 
L 164.253966 -36.4075 
L 167.962935 -36.4075 
L 167.962935 -36.4075 
L 171.671903 -36.4075 
L 171.671903 -36.4075 
L 175.380871 -36.4075 
L 175.380871 -36.4075 
L 179.089839 -36.4075 
L 179.089839 -36.4075 
L 182.798807 -36.4075 
L 182.798807 -36.4075 
L 186.507776 -36.4075 
L 186.507776 -36.4075 
L 190.216744 -36.4075 
L 190.216744 -36.4075 
L 193.925712 -36.4075 
L 193.925712 -36.4075 
L 197.63468 -36.4075 
L 197.63468 -36.4075 
L 201.343648 -36.4075 
L 201.343648 -36.4075 
L 205.052617 -36.4075 
L 205.052617 -36.4075 
L 208.761585 -36.4075 
L 208.761585 -36.4075 
L 212.470553 -36.4075 
L 212.470553 -36.4075 
L 216.179521 -36.4075 
L 216.179521 -36.4075 
L 219.888489 -36.4075 
L 219.888489 -36.4075 
L 223.597458 -36.4075 
L 223.597458 -36.4075 
L 227.306426 -36.4075 
L 227.306426 -36.4075 
L 231.015394 -36.4075 
L 231.015394 -36.4075 
L 234.724362 -36.4075 
L 234.724362 -36.4075 
L 238.43333 -36.4075 
L 238.43333 -36.4075 
L 242.142299 -36.4075 
L 242.142299 -36.4075 
L 245.851267 -36.4075 
L 245.851267 -36.4075 
L 249.560235 -36.4075 
L 249.560235 -36.4075 
L 253.269203 -36.4075 
L 253.269203 -36.4075 
L 256.978171 -36.4075 
L 256.978171 -36.4075 
L 260.68714 -36.4075 
L 260.68714 -36.4075 
L 264.396108 -36.4075 
L 264.396108 -36.4075 
L 268.105076 -36.4075 
L 268.105076 -36.4075 
L 271.814044 -36.4075 
L 271.814044 -36.4075 
L 275.523012 -36.4075 
L 275.523012 -36.4075 
L 279.231981 -36.4075 
L 279.231981 -36.4075 
L 282.940949 -36.4075 
L 282.940949 -36.4075 
L 286.649917 -36.4075 
L 286.649917 -36.4075 
L 290.358885 -36.4075 
L 290.358885 -36.4075 
L 294.067853 -36.4075 
L 294.067853 -36.4075 
L 297.776822 -36.4075 
L 297.776822 -36.4075 
L 301.48579 -36.4075 
L 301.48579 -36.4075 
L 305.194758 -36.4075 
L 305.194758 -36.4075 
L 308.903726 -36.4075 
L 308.903726 -36.4075 
L 312.612694 -36.4075 
L 312.612694 -36.4075 
L 316.321662 -36.4075 
L 316.321662 -36.4075 
L 316.321662 -36.4075 
L 316.321662 -36.4075 
L 316.321662 -36.4075 
L 312.612694 -36.4075 
L 312.612694 -36.4075 
L 308.903726 -36.4075 
L 308.903726 -36.4075 
L 305.194758 -36.4075 
L 305.194758 -36.4075 
L 301.48579 -36.4075 
L 301.48579 -36.4075 
L 297.776822 -36.4075 
L 297.776822 -36.4075 
L 294.067853 -36.4075 
L 294.067853 -36.4075 
L 290.358885 -36.4075 
L 290.358885 -36.4075 
L 286.649917 -36.4075 
L 286.649917 -36.4075 
L 282.940949 -36.4075 
L 282.940949 -36.4075 
L 279.231981 -36.4075 
L 279.231981 -36.4075 
L 275.523012 -36.4075 
L 275.523012 -36.4075 
L 271.814044 -36.4075 
L 271.814044 -36.4075 
L 268.105076 -36.4075 
L 268.105076 -36.4075 
L 264.396108 -36.4075 
L 264.396108 -36.4075 
L 260.68714 -36.4075 
L 260.68714 -36.4075 
L 256.978171 -36.4075 
L 256.978171 -36.4075 
L 253.269203 -36.4075 
L 253.269203 -36.4075 
L 249.560235 -36.4075 
L 249.560235 -36.4075 
L 245.851267 -36.4075 
L 245.851267 -36.4075 
L 242.142299 -36.4075 
L 242.142299 -36.4075 
L 238.43333 -36.4075 
L 238.43333 -36.4075 
L 234.724362 -36.4075 
L 234.724362 -36.4075 
L 231.015394 -36.4075 
L 231.015394 -36.4075 
L 227.306426 -36.4075 
L 227.306426 -36.4075 
L 223.597458 -36.4075 
L 223.597458 -36.4075 
L 219.888489 -36.4075 
L 219.888489 -36.4075 
L 216.179521 -36.4075 
L 216.179521 -36.4075 
L 212.470553 -36.4075 
L 212.470553 -36.4075 
L 208.761585 -36.4075 
L 208.761585 -36.4075 
L 205.052617 -36.4075 
L 205.052617 -36.4075 
L 201.343648 -36.4075 
L 201.343648 -36.4075 
L 197.63468 -36.4075 
L 197.63468 -36.4075 
L 193.925712 -36.4075 
L 193.925712 -36.4075 
L 190.216744 -36.4075 
L 190.216744 -36.4075 
L 186.507776 -36.4075 
L 186.507776 -36.4075 
L 182.798807 -36.4075 
L 182.798807 -36.4075 
L 179.089839 -36.4075 
L 179.089839 -36.4075 
L 175.380871 -36.4075 
L 175.380871 -36.4075 
L 171.671903 -36.4075 
L 171.671903 -36.4075 
L 167.962935 -36.4075 
L 167.962935 -37.716784 
L 164.253966 -37.716784 
L 164.253966 -36.4075 
L 160.544998 -36.4075 
L 160.544998 -40.335352 
L 156.83603 -40.335352 
L 156.83603 -37.716784 
L 153.127062 -37.716784 
L 153.127062 -37.716784 
L 149.418094 -37.716784 
L 149.418094 -37.716784 
L 145.709125 -37.716784 
L 145.709125 -37.716784 
L 142.000157 -37.716784 
L 142.000157 -46.881772 
L 138.291189 -46.881772 
L 138.291189 -48.191056 
L 134.582221 -48.191056 
L 134.582221 -44.263204 
L 130.873253 -44.263204 
L 130.873253 -53.428192 
L 127.164284 -53.428192 
L 127.164284 -66.521032 
L 123.455316 -66.521032 
L 123.455316 -59.974612 
L 119.746348 -59.974612 
L 119.746348 -62.59318 
L 116.03738 -62.59318 
L 116.03738 -76.995304 
L 112.328412 -76.995304 
L 112.328412 -99.253133 
L 108.619443 -99.253133 
L 108.619443 -94.015997 
L 104.910475 -94.015997 
L 104.910475 -113.655257 
L 101.201507 -113.655257 
L 101.201507 -138.531653 
L 97.492539 -138.531653 
L 97.492539 -146.387357 
L 93.783571 -146.387357 
L 93.783571 -156.861629 
L 90.074602 -156.861629 
L 90.074602 -141.150221 
L 86.365634 -141.150221 
L 86.365634 -130.675949 
L 82.656666 -130.675949 
L 82.656666 -118.892393 
L 78.947698 -118.892393 
L 78.947698 -118.892393 
L 75.23873 -118.892393 
L 75.23873 -79.613872 
L 71.529761 -79.613872 
L 71.529761 -79.613872 
L 67.820793 -79.613872 
L 67.820793 -65.211748 
L 64.111825 -65.211748 
L 64.111825 -45.572488 
L 60.402857 -45.572488 
L 60.402857 -39.026068 
L 56.693889 -39.026068 
z
" style="stroke: #35b779"/>
    </defs>
    <g clip-path="url(#pa121285d59)">
     <use xlink:href="#me3b81e044f" x="0" y="234.548457" style="fill: #35b779; fill-opacity: 0.25; stroke: #35b779"/>
    </g>
   </g>
   <g id="FillBetweenPolyCollection_2">
    <defs>
     <path id="m55e18026b8" d="M 56.693889 -45.572488 
L 56.693889 -36.4075 
L 60.402857 -36.4075 
L 60.402857 -36.4075 
L 64.111825 -36.4075 
L 64.111825 -36.4075 
L 67.820793 -36.4075 
L 67.820793 -36.4075 
L 71.529761 -36.4075 
L 71.529761 -36.4075 
L 75.23873 -36.4075 
L 75.23873 -36.4075 
L 78.947698 -36.4075 
L 78.947698 -36.4075 
L 82.656666 -36.4075 
L 82.656666 -36.4075 
L 86.365634 -36.4075 
L 86.365634 -36.4075 
L 90.074602 -36.4075 
L 90.074602 -36.4075 
L 93.783571 -36.4075 
L 93.783571 -36.4075 
L 97.492539 -36.4075 
L 97.492539 -36.4075 
L 101.201507 -36.4075 
L 101.201507 -36.4075 
L 104.910475 -36.4075 
L 104.910475 -36.4075 
L 108.619443 -36.4075 
L 108.619443 -36.4075 
L 112.328412 -36.4075 
L 112.328412 -36.4075 
L 116.03738 -36.4075 
L 116.03738 -36.4075 
L 119.746348 -36.4075 
L 119.746348 -36.4075 
L 123.455316 -36.4075 
L 123.455316 -36.4075 
L 127.164284 -36.4075 
L 127.164284 -36.4075 
L 130.873253 -36.4075 
L 130.873253 -36.4075 
L 134.582221 -36.4075 
L 134.582221 -36.4075 
L 138.291189 -36.4075 
L 138.291189 -36.4075 
L 142.000157 -36.4075 
L 142.000157 -36.4075 
L 145.709125 -36.4075 
L 145.709125 -36.4075 
L 149.418094 -36.4075 
L 149.418094 -36.4075 
L 153.127062 -36.4075 
L 153.127062 -36.4075 
L 156.83603 -36.4075 
L 156.83603 -36.4075 
L 160.544998 -36.4075 
L 160.544998 -36.4075 
L 164.253966 -36.4075 
L 164.253966 -36.4075 
L 167.962935 -36.4075 
L 167.962935 -36.4075 
L 171.671903 -36.4075 
L 171.671903 -36.4075 
L 175.380871 -36.4075 
L 175.380871 -36.4075 
L 179.089839 -36.4075 
L 179.089839 -36.4075 
L 182.798807 -36.4075 
L 182.798807 -36.4075 
L 186.507776 -36.4075 
L 186.507776 -36.4075 
L 190.216744 -36.4075 
L 190.216744 -36.4075 
L 193.925712 -36.4075 
L 193.925712 -36.4075 
L 197.63468 -36.4075 
L 197.63468 -36.4075 
L 201.343648 -36.4075 
L 201.343648 -36.4075 
L 205.052617 -36.4075 
L 205.052617 -36.4075 
L 208.761585 -36.4075 
L 208.761585 -36.4075 
L 212.470553 -36.4075 
L 212.470553 -36.4075 
L 216.179521 -36.4075 
L 216.179521 -36.4075 
L 219.888489 -36.4075 
L 219.888489 -36.4075 
L 223.597458 -36.4075 
L 223.597458 -36.4075 
L 227.306426 -36.4075 
L 227.306426 -36.4075 
L 231.015394 -36.4075 
L 231.015394 -36.4075 
L 234.724362 -36.4075 
L 234.724362 -36.4075 
L 238.43333 -36.4075 
L 238.43333 -36.4075 
L 242.142299 -36.4075 
L 242.142299 -36.4075 
L 245.851267 -36.4075 
L 245.851267 -36.4075 
L 249.560235 -36.4075 
L 249.560235 -36.4075 
L 253.269203 -36.4075 
L 253.269203 -36.4075 
L 256.978171 -36.4075 
L 256.978171 -36.4075 
L 260.68714 -36.4075 
L 260.68714 -36.4075 
L 264.396108 -36.4075 
L 264.396108 -36.4075 
L 268.105076 -36.4075 
L 268.105076 -36.4075 
L 271.814044 -36.4075 
L 271.814044 -36.4075 
L 275.523012 -36.4075 
L 275.523012 -36.4075 
L 279.231981 -36.4075 
L 279.231981 -36.4075 
L 282.940949 -36.4075 
L 282.940949 -36.4075 
L 286.649917 -36.4075 
L 286.649917 -36.4075 
L 290.358885 -36.4075 
L 290.358885 -36.4075 
L 294.067853 -36.4075 
L 294.067853 -36.4075 
L 297.776822 -36.4075 
L 297.776822 -36.4075 
L 301.48579 -36.4075 
L 301.48579 -36.4075 
L 305.194758 -36.4075 
L 305.194758 -36.4075 
L 308.903726 -36.4075 
L 308.903726 -36.4075 
L 312.612694 -36.4075 
L 312.612694 -36.4075 
L 316.321662 -36.4075 
L 316.321662 -36.4075 
L 316.321662 -37.716784 
L 316.321662 -37.716784 
L 316.321662 -37.716784 
L 312.612694 -37.716784 
L 312.612694 -36.4075 
L 308.903726 -36.4075 
L 308.903726 -36.4075 
L 305.194758 -36.4075 
L 305.194758 -36.4075 
L 301.48579 -36.4075 
L 301.48579 -36.4075 
L 297.776822 -36.4075 
L 297.776822 -36.4075 
L 294.067853 -36.4075 
L 294.067853 -36.4075 
L 290.358885 -36.4075 
L 290.358885 -36.4075 
L 286.649917 -36.4075 
L 286.649917 -36.4075 
L 282.940949 -36.4075 
L 282.940949 -36.4075 
L 279.231981 -36.4075 
L 279.231981 -36.4075 
L 275.523012 -36.4075 
L 275.523012 -36.4075 
L 271.814044 -36.4075 
L 271.814044 -36.4075 
L 268.105076 -36.4075 
L 268.105076 -36.4075 
L 264.396108 -36.4075 
L 264.396108 -36.4075 
L 260.68714 -36.4075 
L 260.68714 -36.4075 
L 256.978171 -36.4075 
L 256.978171 -36.4075 
L 253.269203 -36.4075 
L 253.269203 -36.4075 
L 249.560235 -36.4075 
L 249.560235 -36.4075 
L 245.851267 -36.4075 
L 245.851267 -36.4075 
L 242.142299 -36.4075 
L 242.142299 -36.4075 
L 238.43333 -36.4075 
L 238.43333 -37.716784 
L 234.724362 -37.716784 
L 234.724362 -36.4075 
L 231.015394 -36.4075 
L 231.015394 -36.4075 
L 227.306426 -36.4075 
L 227.306426 -36.4075 
L 223.597458 -36.4075 
L 223.597458 -36.4075 
L 219.888489 -36.4075 
L 219.888489 -36.4075 
L 216.179521 -36.4075 
L 216.179521 -36.4075 
L 212.470553 -36.4075 
L 212.470553 -37.716784 
L 208.761585 -37.716784 
L 208.761585 -36.4075 
L 205.052617 -36.4075 
L 205.052617 -36.4075 
L 201.343648 -36.4075 
L 201.343648 -36.4075 
L 197.63468 -36.4075 
L 197.63468 -36.4075 
L 193.925712 -36.4075 
L 193.925712 -36.4075 
L 190.216744 -36.4075 
L 190.216744 -36.4075 
L 186.507776 -36.4075 
L 186.507776 -36.4075 
L 182.798807 -36.4075 
L 182.798807 -36.4075 
L 179.089839 -36.4075 
L 179.089839 -37.716784 
L 175.380871 -37.716784 
L 175.380871 -37.716784 
L 171.671903 -37.716784 
L 171.671903 -39.026068 
L 167.962935 -39.026068 
L 167.962935 -39.026068 
L 164.253966 -39.026068 
L 164.253966 -37.716784 
L 160.544998 -37.716784 
L 160.544998 -36.4075 
L 156.83603 -36.4075 
L 156.83603 -40.335352 
L 153.127062 -40.335352 
L 153.127062 -37.716784 
L 149.418094 -37.716784 
L 149.418094 -44.263204 
L 145.709125 -44.263204 
L 145.709125 -44.263204 
L 142.000157 -44.263204 
L 142.000157 -45.572488 
L 138.291189 -45.572488 
L 138.291189 -44.263204 
L 134.582221 -44.263204 
L 134.582221 -53.428192 
L 130.873253 -53.428192 
L 130.873253 -57.356044 
L 127.164284 -57.356044 
L 127.164284 -54.737476 
L 123.455316 -54.737476 
L 123.455316 -57.356044 
L 119.746348 -57.356044 
L 119.746348 -75.68602 
L 116.03738 -75.68602 
L 116.03738 -91.397429 
L 112.328412 -91.397429 
L 112.328412 -91.397429 
L 108.619443 -91.397429 
L 108.619443 -103.180985 
L 104.910475 -103.180985 
L 104.910475 -116.273825 
L 101.201507 -116.273825 
L 101.201507 -116.273825 
L 97.492539 -116.273825 
L 97.492539 -121.510961 
L 93.783571 -121.510961 
L 93.783571 -171.263753 
L 90.074602 -171.263753 
L 90.074602 -167.335901 
L 86.365634 -167.335901 
L 86.365634 -169.954469 
L 82.656666 -169.954469 
L 82.656666 -205.305138 
L 78.947698 -205.305138 
L 78.947698 -181.738026 
L 75.23873 -181.738026 
L 75.23873 -180.428742 
L 71.529761 -180.428742 
L 71.529761 -143.768789 
L 67.820793 -143.768789 
L 67.820793 -76.995304 
L 64.111825 -76.995304 
L 64.111825 -45.572488 
L 60.402857 -45.572488 
L 60.402857 -45.572488 
L 56.693889 -45.572488 
z
" style="stroke: #31688e"/>
    </defs>
    <g clip-path="url(#pa121285d59)">
     <use xlink:href="#m55e18026b8" x="0" y="234.548457" style="fill: #31688e; fill-opacity: 0.25; stroke: #31688e"/>
    </g>
   </g>
   <g id="line2d_13">
    <path d="M 56.693889 194.756667 
L 57.998551 193.136753 
L 59.303213 190.982721 
L 60.607875 188.249058 
L 61.912537 184.945122 
L 63.2172 181.138696 
L 65.826524 172.457671 
L 68.435848 162.921012 
L 71.045173 152.569764 
L 77.568484 124.860171 
L 80.177808 115.632639 
L 82.787132 107.757078 
L 85.396457 100.542098 
L 88.005781 93.992452 
L 89.310443 91.342041 
L 90.615105 89.428944 
L 91.919768 88.47801 
L 93.22443 88.639978 
L 94.529092 89.972195 
L 95.833754 92.446152 
L 97.138416 95.962863 
L 98.443078 100.359553 
L 101.052403 110.822532 
L 103.661727 121.529087 
L 104.966389 126.357467 
L 107.575714 134.747627 
L 111.4897 146.380359 
L 115.403687 158.606079 
L 116.708349 162.281582 
L 118.013011 165.451271 
L 119.317673 168.008553 
L 120.622336 169.961255 
L 121.926998 171.445559 
L 124.536322 173.974691 
L 125.840984 175.483168 
L 127.145646 177.296608 
L 131.059633 183.428029 
L 132.364295 185.095179 
L 133.668957 186.396384 
L 134.973619 187.373072 
L 140.192268 190.578198 
L 145.410917 194.845916 
L 146.715579 195.57491 
L 148.020241 196.046366 
L 149.324903 196.276579 
L 150.629566 196.316898 
L 155.848214 195.97364 
L 158.457539 196.208314 
L 164.98085 197.35894 
L 170.199498 197.792102 
L 175.418147 198.076368 
L 181.941458 198.139767 
L 316.321662 198.140957 
L 316.321662 198.140957 
" clip-path="url(#pa121285d59)" style="fill: none; stroke: #35b779; stroke-width: 1.5; stroke-linecap: round"/>
   </g>
   <g id="line2d_14">
    <path d="M 56.693889 191.301204 
L 57.998551 188.332771 
L 59.303213 184.343786 
L 60.607875 179.089889 
L 61.912537 172.346908 
L 63.2172 163.967273 
L 64.521862 153.940613 
L 65.826524 142.439696 
L 72.349835 80.027742 
L 73.654497 70.587053 
L 74.959159 63.067578 
L 76.263821 57.535029 
L 77.568484 53.915606 
L 78.873146 52.034414 
L 80.177808 51.650546 
L 81.48247 52.487804 
L 82.787132 54.266709 
L 84.091794 56.741631 
L 85.396457 59.7376 
L 86.701119 63.172296 
L 88.005781 67.048271 
L 89.310443 71.411454 
L 90.615105 76.289194 
L 93.22443 87.298622 
L 95.833754 98.653253 
L 97.138416 103.879634 
L 98.443078 108.617318 
L 99.747741 112.859677 
L 102.357065 120.248493 
L 107.575714 133.589625 
L 116.708349 156.218902 
L 120.622336 166.845934 
L 121.926998 169.901138 
L 123.23166 172.51749 
L 124.536322 174.6679 
L 125.840984 176.396985 
L 127.145646 177.804452 
L 129.754971 180.146334 
L 137.582944 186.914041 
L 140.192268 188.653032 
L 144.106255 190.81513 
L 149.324903 193.459346 
L 151.934228 194.621507 
L 154.543552 195.545382 
L 157.152877 196.161261 
L 159.762201 196.428359 
L 162.371525 196.375242 
L 167.590174 196.068435 
L 170.199498 196.214097 
L 174.113485 196.762224 
L 179.332134 197.479298 
L 184.550782 197.942063 
L 189.769431 198.115243 
L 200.206728 198.11058 
L 206.730039 197.88865 
L 211.948688 197.750989 
L 217.167337 197.943927 
L 222.385986 198.103359 
L 227.604634 198.073182 
L 239.346594 197.792985 
L 249.783891 198.12783 
L 273.267811 198.140957 
L 307.189027 198.070161 
L 316.321662 197.748302 
L 316.321662 197.748302 
" clip-path="url(#pa121285d59)" style="fill: none; stroke: #31688e; stroke-width: 1.5; stroke-linecap: round"/>
   </g>
   <g id="patch_3">
    <path d="M 43.7125 198.140957 
L 43.7125 20.798438 
" style="fill: none; stroke: #cccccc; stroke-width: 1.25; stroke-linejoin: miter; stroke-linecap: square"/>
   </g>
   <g id="patch_4">
    <path d="M 43.7125 198.140957 
L 329.303051 198.140957 
" style="fill: none; stroke: #cccccc; stroke-width: 1.25; stroke-linejoin: miter; stroke-linecap: square"/>
   </g>
   <g id="text_15">
    <!-- Distribution of kurtosis_rg for each Class -->
    <g style="fill: #262626" transform="translate(71.088244 14.798438) scale(0.1 -0.1)">
     <defs>
      <path id="DejaVuSans-Bold-44" d="M 1791 3756 
L 1791 909 
L 2222 909 
Q 2959 909 3348 1275 
Q 3738 1641 3738 2338 
Q 3738 3031 3350 3393 
Q 2963 3756 2222 3756 
L 1791 3756 
z
M 588 4666 
L 1856 4666 
Q 2919 4666 3439 4514 
Q 3959 4363 4331 4000 
Q 4659 3684 4818 3271 
Q 4978 2859 4978 2338 
Q 4978 1809 4818 1395 
Q 4659 981 4331 666 
Q 3956 303 3431 151 
Q 2906 0 1856 0 
L 588 0 
L 588 4666 
z
" transform="scale(0.015625)"/>
      <path id="DejaVuSans-Bold-69" d="M 538 3500 
L 1656 3500 
L 1656 0 
L 538 0 
L 538 3500 
z
M 538 4863 
L 1656 4863 
L 1656 3950 
L 538 3950 
L 538 4863 
z
" transform="scale(0.015625)"/>
      <path id="DejaVuSans-Bold-73" d="M 3272 3391 
L 3272 2541 
Q 2913 2691 2578 2766 
Q 2244 2841 1947 2841 
Q 1628 2841 1473 2761 
Q 1319 2681 1319 2516 
Q 1319 2381 1436 2309 
Q 1553 2238 1856 2203 
L 2053 2175 
Q 2913 2066 3209 1816 
Q 3506 1566 3506 1031 
Q 3506 472 3093 190 
Q 2681 -91 1863 -91 
Q 1516 -91 1145 -36 
Q 775 19 384 128 
L 384 978 
Q 719 816 1070 734 
Q 1422 653 1784 653 
Q 2113 653 2278 743 
Q 2444 834 2444 1013 
Q 2444 1163 2330 1236 
Q 2216 1309 1875 1350 
L 1678 1375 
Q 931 1469 631 1722 
Q 331 1975 331 2491 
Q 331 3047 712 3315 
Q 1094 3584 1881 3584 
Q 2191 3584 2531 3537 
Q 2872 3491 3272 3391 
z
" transform="scale(0.015625)"/>
      <path id="DejaVuSans-Bold-74" d="M 1759 4494 
L 1759 3500 
L 2913 3500 
L 2913 2700 
L 1759 2700 
L 1759 1216 
Q 1759 972 1856 886 
Q 1953 800 2241 800 
L 2816 800 
L 2816 0 
L 1856 0 
Q 1194 0 917 276 
Q 641 553 641 1216 
L 641 2700 
L 84 2700 
L 84 3500 
L 641 3500 
L 641 4494 
L 1759 4494 
z
" transform="scale(0.015625)"/>
      <path id="DejaVuSans-Bold-72" d="M 3138 2547 
Q 2991 2616 2845 2648 
Q 2700 2681 2553 2681 
Q 2122 2681 1889 2404 
Q 1656 2128 1656 1613 
L 1656 0 
L 538 0 
L 538 3500 
L 1656 3500 
L 1656 2925 
Q 1872 3269 2151 3426 
Q 2431 3584 2822 3584 
Q 2878 3584 2943 3579 
Q 3009 3575 3134 3559 
L 3138 2547 
z
" transform="scale(0.015625)"/>
      <path id="DejaVuSans-Bold-62" d="M 2400 722 
Q 2759 722 2948 984 
Q 3138 1247 3138 1747 
Q 3138 2247 2948 2509 
Q 2759 2772 2400 2772 
Q 2041 2772 1848 2508 
Q 1656 2244 1656 1747 
Q 1656 1250 1848 986 
Q 2041 722 2400 722 
z
M 1656 2988 
Q 1888 3294 2169 3439 
Q 2450 3584 2816 3584 
Q 3463 3584 3878 3070 
Q 4294 2556 4294 1747 
Q 4294 938 3878 423 
Q 3463 -91 2816 -91 
Q 2450 -91 2169 54 
Q 1888 200 1656 506 
L 1656 0 
L 538 0 
L 538 4863 
L 1656 4863 
L 1656 2988 
z
" transform="scale(0.015625)"/>
      <path id="DejaVuSans-Bold-75" d="M 500 1363 
L 500 3500 
L 1625 3500 
L 1625 3150 
Q 1625 2866 1622 2436 
Q 1619 2006 1619 1863 
Q 1619 1441 1641 1255 
Q 1663 1069 1716 984 
Q 1784 875 1895 815 
Q 2006 756 2150 756 
Q 2500 756 2700 1025 
Q 2900 1294 2900 1772 
L 2900 3500 
L 4019 3500 
L 4019 0 
L 2900 0 
L 2900 506 
Q 2647 200 2364 54 
Q 2081 -91 1741 -91 
Q 1134 -91 817 281 
Q 500 653 500 1363 
z
" transform="scale(0.015625)"/>
      <path id="DejaVuSans-Bold-6f" d="M 2203 2784 
Q 1831 2784 1636 2517 
Q 1441 2250 1441 1747 
Q 1441 1244 1636 976 
Q 1831 709 2203 709 
Q 2569 709 2762 976 
Q 2956 1244 2956 1747 
Q 2956 2250 2762 2517 
Q 2569 2784 2203 2784 
z
M 2203 3584 
Q 3106 3584 3614 3096 
Q 4122 2609 4122 1747 
Q 4122 884 3614 396 
Q 3106 -91 2203 -91 
Q 1297 -91 786 396 
Q 275 884 275 1747 
Q 275 2609 786 3096 
Q 1297 3584 2203 3584 
z
" transform="scale(0.015625)"/>
      <path id="DejaVuSans-Bold-6e" d="M 4056 2131 
L 4056 0 
L 2931 0 
L 2931 347 
L 2931 1631 
Q 2931 2084 2911 2256 
Q 2891 2428 2841 2509 
Q 2775 2619 2662 2680 
Q 2550 2741 2406 2741 
Q 2056 2741 1856 2470 
Q 1656 2200 1656 1722 
L 1656 0 
L 538 0 
L 538 3500 
L 1656 3500 
L 1656 2988 
Q 1909 3294 2193 3439 
Q 2478 3584 2822 3584 
Q 3428 3584 3742 3212 
Q 4056 2841 4056 2131 
z
" transform="scale(0.015625)"/>
      <path id="DejaVuSans-Bold-20" transform="scale(0.015625)"/>
      <path id="DejaVuSans-Bold-66" d="M 2841 4863 
L 2841 4128 
L 2222 4128 
Q 1984 4128 1890 4042 
Q 1797 3956 1797 3744 
L 1797 3500 
L 2753 3500 
L 2753 2700 
L 1797 2700 
L 1797 0 
L 678 0 
L 678 2700 
L 122 2700 
L 122 3500 
L 678 3500 
L 678 3744 
Q 678 4316 997 4589 
Q 1316 4863 1984 4863 
L 2841 4863 
z
" transform="scale(0.015625)"/>
      <path id="DejaVuSans-Bold-6b" d="M 538 4863 
L 1656 4863 
L 1656 2216 
L 2944 3500 
L 4244 3500 
L 2534 1894 
L 4378 0 
L 3022 0 
L 1656 1459 
L 1656 0 
L 538 0 
L 538 4863 
z
" transform="scale(0.015625)"/>
      <path id="DejaVuSans-Bold-5f" d="M 3200 -916 
L 3200 -1509 
L 0 -1509 
L 0 -916 
L 3200 -916 
z
" transform="scale(0.015625)"/>
      <path id="DejaVuSans-Bold-67" d="M 2919 594 
Q 2688 288 2409 144 
Q 2131 0 1766 0 
Q 1125 0 706 504 
Q 288 1009 288 1791 
Q 288 2575 706 3076 
Q 1125 3578 1766 3578 
Q 2131 3578 2409 3434 
Q 2688 3291 2919 2981 
L 2919 3500 
L 4044 3500 
L 4044 353 
Q 4044 -491 3511 -936 
Q 2978 -1381 1966 -1381 
Q 1638 -1381 1331 -1331 
Q 1025 -1281 716 -1178 
L 716 -306 
Q 1009 -475 1290 -558 
Q 1572 -641 1856 -641 
Q 2406 -641 2662 -400 
Q 2919 -159 2919 353 
L 2919 594 
z
M 2181 2772 
Q 1834 2772 1640 2515 
Q 1447 2259 1447 1791 
Q 1447 1309 1634 1061 
Q 1822 813 2181 813 
Q 2531 813 2725 1069 
Q 2919 1325 2919 1791 
Q 2919 2259 2725 2515 
Q 2531 2772 2181 2772 
z
" transform="scale(0.015625)"/>
      <path id="DejaVuSans-Bold-65" d="M 4031 1759 
L 4031 1441 
L 1416 1441 
Q 1456 1047 1700 850 
Q 1944 653 2381 653 
Q 2734 653 3104 758 
Q 3475 863 3866 1075 
L 3866 213 
Q 3469 63 3072 -14 
Q 2675 -91 2278 -91 
Q 1328 -91 801 392 
Q 275 875 275 1747 
Q 275 2603 792 3093 
Q 1309 3584 2216 3584 
Q 3041 3584 3536 3087 
Q 4031 2591 4031 1759 
z
M 2881 2131 
Q 2881 2450 2695 2645 
Q 2509 2841 2209 2841 
Q 1884 2841 1681 2658 
Q 1478 2475 1428 2131 
L 2881 2131 
z
" transform="scale(0.015625)"/>
      <path id="DejaVuSans-Bold-61" d="M 2106 1575 
Q 1756 1575 1579 1456 
Q 1403 1338 1403 1106 
Q 1403 894 1545 773 
Q 1688 653 1941 653 
Q 2256 653 2472 879 
Q 2688 1106 2688 1447 
L 2688 1575 
L 2106 1575 
z
M 3816 1997 
L 3816 0 
L 2688 0 
L 2688 519 
Q 2463 200 2181 54 
Q 1900 -91 1497 -91 
Q 953 -91 614 226 
Q 275 544 275 1050 
Q 275 1666 698 1953 
Q 1122 2241 2028 2241 
L 2688 2241 
L 2688 2328 
Q 2688 2594 2478 2717 
Q 2269 2841 1825 2841 
Q 1466 2841 1156 2769 
Q 847 2697 581 2553 
L 581 3406 
Q 941 3494 1303 3539 
Q 1666 3584 2028 3584 
Q 2975 3584 3395 3211 
Q 3816 2838 3816 1997 
z
" transform="scale(0.015625)"/>
      <path id="DejaVuSans-Bold-63" d="M 3366 3391 
L 3366 2478 
Q 3138 2634 2908 2709 
Q 2678 2784 2431 2784 
Q 1963 2784 1702 2511 
Q 1441 2238 1441 1747 
Q 1441 1256 1702 982 
Q 1963 709 2431 709 
Q 2694 709 2930 787 
Q 3166 866 3366 1019 
L 3366 103 
Q 3103 6 2833 -42 
Q 2563 -91 2291 -91 
Q 1344 -91 809 395 
Q 275 881 275 1747 
Q 275 2613 809 3098 
Q 1344 3584 2291 3584 
Q 2566 3584 2833 3536 
Q 3100 3488 3366 3391 
z
" transform="scale(0.015625)"/>
      <path id="DejaVuSans-Bold-68" d="M 4056 2131 
L 4056 0 
L 2931 0 
L 2931 347 
L 2931 1625 
Q 2931 2084 2911 2256 
Q 2891 2428 2841 2509 
Q 2775 2619 2662 2680 
Q 2550 2741 2406 2741 
Q 2056 2741 1856 2470 
Q 1656 2200 1656 1722 
L 1656 0 
L 538 0 
L 538 4863 
L 1656 4863 
L 1656 2988 
Q 1909 3294 2193 3439 
Q 2478 3584 2822 3584 
Q 3428 3584 3742 3212 
Q 4056 2841 4056 2131 
z
" transform="scale(0.015625)"/>
      <path id="DejaVuSans-Bold-43" d="M 4288 256 
Q 3956 84 3597 -3 
Q 3238 -91 2847 -91 
Q 1681 -91 1000 561 
Q 319 1213 319 2328 
Q 319 3447 1000 4098 
Q 1681 4750 2847 4750 
Q 3238 4750 3597 4662 
Q 3956 4575 4288 4403 
L 4288 3438 
Q 3953 3666 3628 3772 
Q 3303 3878 2944 3878 
Q 2300 3878 1931 3465 
Q 1563 3053 1563 2328 
Q 1563 1606 1931 1193 
Q 2300 781 2944 781 
Q 3303 781 3628 887 
Q 3953 994 4288 1222 
L 4288 256 
z
" transform="scale(0.015625)"/>
      <path id="DejaVuSans-Bold-6c" d="M 538 4863 
L 1656 4863 
L 1656 0 
L 538 0 
L 538 4863 
z
" transform="scale(0.015625)"/>
     </defs>
     <use xlink:href="#DejaVuSans-Bold-44"/>
     <use xlink:href="#DejaVuSans-Bold-69" transform="translate(83.007812 0)"/>
     <use xlink:href="#DejaVuSans-Bold-73" transform="translate(117.285156 0)"/>
     <use xlink:href="#DejaVuSans-Bold-74" transform="translate(176.806641 0)"/>
     <use xlink:href="#DejaVuSans-Bold-72" transform="translate(224.609375 0)"/>
     <use xlink:href="#DejaVuSans-Bold-69" transform="translate(273.925781 0)"/>
     <use xlink:href="#DejaVuSans-Bold-62" transform="translate(308.203125 0)"/>
     <use xlink:href="#DejaVuSans-Bold-75" transform="translate(379.785156 0)"/>
     <use xlink:href="#DejaVuSans-Bold-74" transform="translate(450.976562 0)"/>
     <use xlink:href="#DejaVuSans-Bold-69" transform="translate(498.779297 0)"/>
     <use xlink:href="#DejaVuSans-Bold-6f" transform="translate(533.056641 0)"/>
     <use xlink:href="#DejaVuSans-Bold-6e" transform="translate(601.757812 0)"/>
     <use xlink:href="#DejaVuSans-Bold-20" transform="translate(672.949219 0)"/>
     <use xlink:href="#DejaVuSans-Bold-6f" transform="translate(707.763672 0)"/>
     <use xlink:href="#DejaVuSans-Bold-66" transform="translate(776.464844 0)"/>
     <use xlink:href="#DejaVuSans-Bold-20" transform="translate(819.970703 0)"/>
     <use xlink:href="#DejaVuSans-Bold-6b" transform="translate(854.785156 0)"/>
     <use xlink:href="#DejaVuSans-Bold-75" transform="translate(921.289062 0)"/>
     <use xlink:href="#DejaVuSans-Bold-72" transform="translate(992.480469 0)"/>
     <use xlink:href="#DejaVuSans-Bold-74" transform="translate(1041.796875 0)"/>
     <use xlink:href="#DejaVuSans-Bold-6f" transform="translate(1089.599609 0)"/>
     <use xlink:href="#DejaVuSans-Bold-73" transform="translate(1158.300781 0)"/>
     <use xlink:href="#DejaVuSans-Bold-69" transform="translate(1217.822266 0)"/>
     <use xlink:href="#DejaVuSans-Bold-73" transform="translate(1252.099609 0)"/>
     <use xlink:href="#DejaVuSans-Bold-5f" transform="translate(1311.621094 0)"/>
     <use xlink:href="#DejaVuSans-Bold-72" transform="translate(1361.621094 0)"/>
     <use xlink:href="#DejaVuSans-Bold-67" transform="translate(1410.9375 0)"/>
     <use xlink:href="#DejaVuSans-Bold-20" transform="translate(1482.519531 0)"/>
     <use xlink:href="#DejaVuSans-Bold-66" transform="translate(1517.333984 0)"/>
     <use xlink:href="#DejaVuSans-Bold-6f" transform="translate(1560.839844 0)"/>
     <use xlink:href="#DejaVuSans-Bold-72" transform="translate(1629.541016 0)"/>
     <use xlink:href="#DejaVuSans-Bold-20" transform="translate(1678.857422 0)"/>
     <use xlink:href="#DejaVuSans-Bold-65" transform="translate(1713.671875 0)"/>
     <use xlink:href="#DejaVuSans-Bold-61" transform="translate(1781.494141 0)"/>
     <use xlink:href="#DejaVuSans-Bold-63" transform="translate(1848.974609 0)"/>
     <use xlink:href="#DejaVuSans-Bold-68" transform="translate(1908.251953 0)"/>
     <use xlink:href="#DejaVuSans-Bold-20" transform="translate(1979.443359 0)"/>
     <use xlink:href="#DejaVuSans-Bold-43" transform="translate(2014.257812 0)"/>
     <use xlink:href="#DejaVuSans-Bold-6c" transform="translate(2087.646484 0)"/>
     <use xlink:href="#DejaVuSans-Bold-61" transform="translate(2121.923828 0)"/>
     <use xlink:href="#DejaVuSans-Bold-73" transform="translate(2189.404297 0)"/>
     <use xlink:href="#DejaVuSans-Bold-73" transform="translate(2248.925781 0)"/>
    </g>
   </g>
   <g id="legend_1">
    <g id="patch_5">
     <path d="M 219.690551 73.013437 
L 321.603051 73.013437 
Q 323.803051 73.013437 323.803051 70.813437 
L 323.803051 28.498437 
Q 323.803051 26.298438 321.603051 26.298438 
L 219.690551 26.298438 
Q 217.490551 26.298438 217.490551 28.498437 
L 217.490551 70.813437 
Q 217.490551 73.013437 219.690551 73.013437 
z
" style="fill: #ffffff; opacity: 0.8; stroke: #cccccc; stroke-linejoin: miter"/>
    </g>
    <g id="text_16">
     <!-- Class -->
     <g style="fill: #262626" transform="translate(260.123676 36.777187) scale(0.08 -0.08)">
      <defs>
       <path id="DejaVuSans-6c" d="M 603 4863 
L 1178 4863 
L 1178 0 
L 603 0 
L 603 4863 
z
" transform="scale(0.015625)"/>
       <path id="DejaVuSans-61" d="M 2194 1759 
Q 1497 1759 1228 1600 
Q 959 1441 959 1056 
Q 959 750 1161 570 
Q 1363 391 1709 391 
Q 2188 391 2477 730 
Q 2766 1069 2766 1631 
L 2766 1759 
L 2194 1759 
z
M 3341 1997 
L 3341 0 
L 2766 0 
L 2766 531 
Q 2569 213 2275 61 
Q 1981 -91 1556 -91 
Q 1019 -91 701 211 
Q 384 513 384 1019 
Q 384 1609 779 1909 
Q 1175 2209 1959 2209 
L 2766 2209 
L 2766 2266 
Q 2766 2663 2505 2880 
Q 2244 3097 1772 3097 
Q 1472 3097 1187 3025 
Q 903 2953 641 2809 
L 641 3341 
Q 956 3463 1253 3523 
Q 1550 3584 1831 3584 
Q 2591 3584 2966 3190 
Q 3341 2797 3341 1997 
z
" transform="scale(0.015625)"/>
      </defs>
      <use xlink:href="#DejaVuSans-43"/>
      <use xlink:href="#DejaVuSans-6c" transform="translate(69.824219 0)"/>
      <use xlink:href="#DejaVuSans-61" transform="translate(97.607422 0)"/>
      <use xlink:href="#DejaVuSans-73" transform="translate(158.886719 0)"/>
      <use xlink:href="#DejaVuSans-73" transform="translate(210.986328 0)"/>
     </g>
    </g>
    <g id="patch_6">
     <path d="M 221.890551 51.640938 
L 243.890551 51.640938 
L 243.890551 43.940938 
L 221.890551 43.940938 
z
" style="fill: #31688e; fill-opacity: 0.25; stroke: #31688e; stroke-linejoin: miter"/>
    </g>
    <g id="text_17">
     <!-- Kirmizi_Pistachio -->
     <g style="fill: #262626" transform="translate(252.690551 51.640938) scale(0.08 -0.08)">
      <defs>
       <path id="DejaVuSans-4b" d="M 628 4666 
L 1259 4666 
L 1259 2694 
L 3353 4666 
L 4166 4666 
L 1850 2491 
L 4331 0 
L 3500 0 
L 1259 2247 
L 1259 0 
L 628 0 
L 628 4666 
z
" transform="scale(0.015625)"/>
       <path id="DejaVuSans-6d" d="M 3328 2828 
Q 3544 3216 3844 3400 
Q 4144 3584 4550 3584 
Q 5097 3584 5394 3201 
Q 5691 2819 5691 2113 
L 5691 0 
L 5113 0 
L 5113 2094 
Q 5113 2597 4934 2840 
Q 4756 3084 4391 3084 
Q 3944 3084 3684 2787 
Q 3425 2491 3425 1978 
L 3425 0 
L 2847 0 
L 2847 2094 
Q 2847 2600 2669 2842 
Q 2491 3084 2119 3084 
Q 1678 3084 1418 2786 
Q 1159 2488 1159 1978 
L 1159 0 
L 581 0 
L 581 3500 
L 1159 3500 
L 1159 2956 
Q 1356 3278 1631 3431 
Q 1906 3584 2284 3584 
Q 2666 3584 2933 3390 
Q 3200 3197 3328 2828 
z
" transform="scale(0.015625)"/>
       <path id="DejaVuSans-7a" d="M 353 3500 
L 3084 3500 
L 3084 2975 
L 922 459 
L 3084 459 
L 3084 0 
L 275 0 
L 275 525 
L 2438 3041 
L 353 3041 
L 353 3500 
z
" transform="scale(0.015625)"/>
       <path id="DejaVuSans-50" d="M 1259 4147 
L 1259 2394 
L 2053 2394 
Q 2494 2394 2734 2622 
Q 2975 2850 2975 3272 
Q 2975 3691 2734 3919 
Q 2494 4147 2053 4147 
L 1259 4147 
z
M 628 4666 
L 2053 4666 
Q 2838 4666 3239 4311 
Q 3641 3956 3641 3272 
Q 3641 2581 3239 2228 
Q 2838 1875 2053 1875 
L 1259 1875 
L 1259 0 
L 628 0 
L 628 4666 
z
" transform="scale(0.015625)"/>
       <path id="DejaVuSans-63" d="M 3122 3366 
L 3122 2828 
Q 2878 2963 2633 3030 
Q 2388 3097 2138 3097 
Q 1578 3097 1268 2742 
Q 959 2388 959 1747 
Q 959 1106 1268 751 
Q 1578 397 2138 397 
Q 2388 397 2633 464 
Q 2878 531 3122 666 
L 3122 134 
Q 2881 22 2623 -34 
Q 2366 -91 2075 -91 
Q 1284 -91 818 406 
Q 353 903 353 1747 
Q 353 2603 823 3093 
Q 1294 3584 2113 3584 
Q 2378 3584 2631 3529 
Q 2884 3475 3122 3366 
z
" transform="scale(0.015625)"/>
       <path id="DejaVuSans-68" d="M 3513 2113 
L 3513 0 
L 2938 0 
L 2938 2094 
Q 2938 2591 2744 2837 
Q 2550 3084 2163 3084 
Q 1697 3084 1428 2787 
Q 1159 2491 1159 1978 
L 1159 0 
L 581 0 
L 581 4863 
L 1159 4863 
L 1159 2956 
Q 1366 3272 1645 3428 
Q 1925 3584 2291 3584 
Q 2894 3584 3203 3211 
Q 3513 2838 3513 2113 
z
" transform="scale(0.015625)"/>
      </defs>
      <use xlink:href="#DejaVuSans-4b"/>
      <use xlink:href="#DejaVuSans-69" transform="translate(65.576172 0)"/>
      <use xlink:href="#DejaVuSans-72" transform="translate(93.359375 0)"/>
      <use xlink:href="#DejaVuSans-6d" transform="translate(132.722656 0)"/>
      <use xlink:href="#DejaVuSans-69" transform="translate(230.134766 0)"/>
      <use xlink:href="#DejaVuSans-7a" transform="translate(257.917969 0)"/>
      <use xlink:href="#DejaVuSans-69" transform="translate(310.408203 0)"/>
      <use xlink:href="#DejaVuSans-5f" transform="translate(338.191406 0)"/>
      <use xlink:href="#DejaVuSans-50" transform="translate(388.191406 0)"/>
      <use xlink:href="#DejaVuSans-69" transform="translate(446.244141 0)"/>
      <use xlink:href="#DejaVuSans-73" transform="translate(474.027344 0)"/>
      <use xlink:href="#DejaVuSans-74" transform="translate(526.126953 0)"/>
      <use xlink:href="#DejaVuSans-61" transform="translate(565.335938 0)"/>
      <use xlink:href="#DejaVuSans-63" transform="translate(626.615234 0)"/>
      <use xlink:href="#DejaVuSans-68" transform="translate(681.595703 0)"/>
      <use xlink:href="#DejaVuSans-69" transform="translate(744.974609 0)"/>
      <use xlink:href="#DejaVuSans-6f" transform="translate(772.757812 0)"/>
     </g>
    </g>
    <g id="patch_7">
     <path d="M 221.890551 66.727188 
L 243.890551 66.727188 
L 243.890551 59.027188 
L 221.890551 59.027188 
z
" style="fill: #35b779; fill-opacity: 0.25; stroke: #35b779; stroke-linejoin: miter"/>
    </g>
    <g id="text_18">
     <!-- Siirt_Pistachio -->
     <g style="fill: #262626" transform="translate(252.690551 66.727188) scale(0.08 -0.08)">
      <defs>
       <path id="DejaVuSans-53" d="M 3425 4513 
L 3425 3897 
Q 3066 4069 2747 4153 
Q 2428 4238 2131 4238 
Q 1616 4238 1336 4038 
Q 1056 3838 1056 3469 
Q 1056 3159 1242 3001 
Q 1428 2844 1947 2747 
L 2328 2669 
Q 3034 2534 3370 2195 
Q 3706 1856 3706 1288 
Q 3706 609 3251 259 
Q 2797 -91 1919 -91 
Q 1588 -91 1214 -16 
Q 841 59 441 206 
L 441 856 
Q 825 641 1194 531 
Q 1563 422 1919 422 
Q 2459 422 2753 634 
Q 3047 847 3047 1241 
Q 3047 1584 2836 1778 
Q 2625 1972 2144 2069 
L 1759 2144 
Q 1053 2284 737 2584 
Q 422 2884 422 3419 
Q 422 4038 858 4394 
Q 1294 4750 2059 4750 
Q 2388 4750 2728 4690 
Q 3069 4631 3425 4513 
z
" transform="scale(0.015625)"/>
      </defs>
      <use xlink:href="#DejaVuSans-53"/>
      <use xlink:href="#DejaVuSans-69" transform="translate(63.476562 0)"/>
      <use xlink:href="#DejaVuSans-69" transform="translate(91.259766 0)"/>
      <use xlink:href="#DejaVuSans-72" transform="translate(119.042969 0)"/>
      <use xlink:href="#DejaVuSans-74" transform="translate(160.15625 0)"/>
      <use xlink:href="#DejaVuSans-5f" transform="translate(199.365234 0)"/>
      <use xlink:href="#DejaVuSans-50" transform="translate(249.365234 0)"/>
      <use xlink:href="#DejaVuSans-69" transform="translate(307.417969 0)"/>
      <use xlink:href="#DejaVuSans-73" transform="translate(335.201172 0)"/>
      <use xlink:href="#DejaVuSans-74" transform="translate(387.300781 0)"/>
      <use xlink:href="#DejaVuSans-61" transform="translate(426.509766 0)"/>
      <use xlink:href="#DejaVuSans-63" transform="translate(487.789062 0)"/>
      <use xlink:href="#DejaVuSans-68" transform="translate(542.769531 0)"/>
      <use xlink:href="#DejaVuSans-69" transform="translate(606.148438 0)"/>
      <use xlink:href="#DejaVuSans-6f" transform="translate(633.931641 0)"/>
     </g>
    </g>
   </g>
  </g>
 </g>
 <defs>
  <clipPath id="pa121285d59">
   <rect x="43.7125" y="20.798438" width="285.590551" height="177.34252"/>
  </clipPath>
 </defs>
</svg>
