<?xml version="1.0" encoding="utf-8" standalone="no"?>
<!DOCTYPE svg PUBLIC "-//W3C//DTD SVG 1.1//EN"
  "http://www.w3.org/Graphics/SVG/1.1/DTD/svg11.dtd">
<svg xmlns:xlink="http://www.w3.org/1999/xlink" width="336.503051pt" height="234.325957pt" viewBox="0 0 336.503051 234.325957" xmlns="http://www.w3.org/2000/svg" version="1.1">
 <metadata>
  <rdf:RDF xmlns:dc="http://purl.org/dc/elements/1.1/" xmlns:cc="http://creativecommons.org/ns#" xmlns:rdf="http://www.w3.org/1999/02/22-rdf-syntax-ns#">
   <cc:Work>
    <dc:type rdf:resource="http://purl.org/dc/dcmitype/StillImage"/>
    <dc:date>2025-12-12T10:29:37.148515</dc:date>
    <dc:format>image/svg+xml</dc:format>
    <dc:creator>
     <cc:Agent>
      <dc:title>Matplotlib v3.10.7, https://matplotlib.org/</dc:title>
     </cc:Agent>
    </dc:creator>
   </cc:Work>
  </rdf:RDF>
 </metadata>
 <defs>
  <style type="text/css">*{stroke-linejoin: round; stroke-linecap: butt}</style>
 </defs>
 <g id="figure_1">
  <g id="patch_1">
   <path d="M 0 234.325957 
L 336.503051 234.325957 
L 336.503051 0 
L 0 0 
z
" style="fill: #ffffff"/>
  </g>
  <g id="axes_1">
   <g id="patch_2">
    <path d="M 43.7125 198.140957 
L 329.303051 198.140957 
L 329.303051 20.798438 
L 43.7125 20.798438 
z
" style="fill: #ffffff"/>
   </g>
   <g id="matplotlib.axis_1">
    <g id="xtick_1">
     <g id="line2d_1">
      <path d="M 71.748602 198.140957 
L 71.748602 20.798438 
" clip-path="url(#p31d1803c10)" style="fill: none; stroke: #cccccc; stroke-linecap: round"/>
     </g>
     <g id="text_1">
      <!-- 0.45 -->
      <g style="fill: #262626" transform="translate(62.842352 213.719707) scale(0.08 -0.08)">
       <defs>
        <path id="DejaVuSans-30" d="M 2034 4250 
Q 1547 4250 1301 3770 
Q 1056 3291 1056 2328 
Q 1056 1369 1301 889 
Q 1547 409 2034 409 
Q 2525 409 2770 889 
Q 3016 1369 3016 2328 
Q 3016 3291 2770 3770 
Q 2525 4250 2034 4250 
z
M 2034 4750 
Q 2819 4750 3233 4129 
Q 3647 3509 3647 2328 
Q 3647 1150 3233 529 
Q 2819 -91 2034 -91 
Q 1250 -91 836 529 
Q 422 1150 422 2328 
Q 422 3509 836 4129 
Q 1250 4750 2034 4750 
z
" transform="scale(0.015625)"/>
        <path id="DejaVuSans-2e" d="M 684 794 
L 1344 794 
L 1344 0 
L 684 0 
L 684 794 
z
" transform="scale(0.015625)"/>
        <path id="DejaVuSans-34" d="M 2419 4116 
L 825 1625 
L 2419 1625 
L 2419 4116 
z
M 2253 4666 
L 3047 4666 
L 3047 1625 
L 3713 1625 
L 3713 1100 
L 3047 1100 
L 3047 0 
L 2419 0 
L 2419 1100 
L 313 1100 
L 313 1709 
L 2253 4666 
z
" transform="scale(0.015625)"/>
        <path id="DejaVuSans-35" d="M 691 4666 
L 3169 4666 
L 3169 4134 
L 1269 4134 
L 1269 2991 
Q 1406 3038 1543 3061 
Q 1681 3084 1819 3084 
Q 2600 3084 3056 2656 
Q 3513 2228 3513 1497 
Q 3513 744 3044 326 
Q 2575 -91 1722 -91 
Q 1428 -91 1123 -41 
Q 819 9 494 109 
L 494 744 
Q 775 591 1075 516 
Q 1375 441 1709 441 
Q 2250 441 2565 725 
Q 2881 1009 2881 1497 
Q 2881 1984 2565 2268 
Q 2250 2553 1709 2553 
Q 1456 2553 1204 2497 
Q 953 2441 691 2322 
L 691 4666 
z
" transform="scale(0.015625)"/>
       </defs>
       <use xlink:href="#DejaVuSans-30"/>
       <use xlink:href="#DejaVuSans-2e" transform="translate(63.623047 0)"/>
       <use xlink:href="#DejaVuSans-34" transform="translate(95.410156 0)"/>
       <use xlink:href="#DejaVuSans-35" transform="translate(159.033203 0)"/>
      </g>
     </g>
    </g>
    <g id="xtick_2">
     <g id="line2d_2">
      <path d="M 104.763324 198.140957 
L 104.763324 20.798438 
" clip-path="url(#p31d1803c10)" style="fill: none; stroke: #cccccc; stroke-linecap: round"/>
     </g>
     <g id="text_2">
      <!-- 0.50 -->
      <g style="fill: #262626" transform="translate(95.857074 213.719707) scale(0.08 -0.08)">
       <use xlink:href="#DejaVuSans-30"/>
       <use xlink:href="#DejaVuSans-2e" transform="translate(63.623047 0)"/>
       <use xlink:href="#DejaVuSans-35" transform="translate(95.410156 0)"/>
       <use xlink:href="#DejaVuSans-30" transform="translate(159.033203 0)"/>
      </g>
     </g>
    </g>
    <g id="xtick_3">
     <g id="line2d_3">
      <path d="M 137.778046 198.140957 
L 137.778046 20.798438 
" clip-path="url(#p31d1803c10)" style="fill: none; stroke: #cccccc; stroke-linecap: round"/>
     </g>
     <g id="text_3">
      <!-- 0.55 -->
      <g style="fill: #262626" transform="translate(128.871796 213.719707) scale(0.08 -0.08)">
       <use xlink:href="#DejaVuSans-30"/>
       <use xlink:href="#DejaVuSans-2e" transform="translate(63.623047 0)"/>
       <use xlink:href="#DejaVuSans-35" transform="translate(95.410156 0)"/>
       <use xlink:href="#DejaVuSans-35" transform="translate(159.033203 0)"/>
      </g>
     </g>
    </g>
    <g id="xtick_4">
     <g id="line2d_4">
      <path d="M 170.792768 198.140957 
L 170.792768 20.798438 
" clip-path="url(#p31d1803c10)" style="fill: none; stroke: #cccccc; stroke-linecap: round"/>
     </g>
     <g id="text_4">
      <!-- 0.60 -->
      <g style="fill: #262626" transform="translate(161.886518 213.719707) scale(0.08 -0.08)">
       <defs>
        <path id="DejaVuSans-36" d="M 2113 2584 
Q 1688 2584 1439 2293 
Q 1191 2003 1191 1497 
Q 1191 994 1439 701 
Q 1688 409 2113 409 
Q 2538 409 2786 701 
Q 3034 994 3034 1497 
Q 3034 2003 2786 2293 
Q 2538 2584 2113 2584 
z
M 3366 4563 
L 3366 3988 
Q 3128 4100 2886 4159 
Q 2644 4219 2406 4219 
Q 1781 4219 1451 3797 
Q 1122 3375 1075 2522 
Q 1259 2794 1537 2939 
Q 1816 3084 2150 3084 
Q 2853 3084 3261 2657 
Q 3669 2231 3669 1497 
Q 3669 778 3244 343 
Q 2819 -91 2113 -91 
Q 1303 -91 875 529 
Q 447 1150 447 2328 
Q 447 3434 972 4092 
Q 1497 4750 2381 4750 
Q 2619 4750 2861 4703 
Q 3103 4656 3366 4563 
z
" transform="scale(0.015625)"/>
       </defs>
       <use xlink:href="#DejaVuSans-30"/>
       <use xlink:href="#DejaVuSans-2e" transform="translate(63.623047 0)"/>
       <use xlink:href="#DejaVuSans-36" transform="translate(95.410156 0)"/>
       <use xlink:href="#DejaVuSans-30" transform="translate(159.033203 0)"/>
      </g>
     </g>
    </g>
    <g id="xtick_5">
     <g id="line2d_5">
      <path d="M 203.80749 198.140957 
L 203.80749 20.798438 
" clip-path="url(#p31d1803c10)" style="fill: none; stroke: #cccccc; stroke-linecap: round"/>
     </g>
     <g id="text_5">
      <!-- 0.65 -->
      <g style="fill: #262626" transform="translate(194.90124 213.719707) scale(0.08 -0.08)">
       <use xlink:href="#DejaVuSans-30"/>
       <use xlink:href="#DejaVuSans-2e" transform="translate(63.623047 0)"/>
       <use xlink:href="#DejaVuSans-36" transform="translate(95.410156 0)"/>
       <use xlink:href="#DejaVuSans-35" transform="translate(159.033203 0)"/>
      </g>
     </g>
    </g>
    <g id="xtick_6">
     <g id="line2d_6">
      <path d="M 236.822212 198.140957 
L 236.822212 20.798438 
" clip-path="url(#p31d1803c10)" style="fill: none; stroke: #cccccc; stroke-linecap: round"/>
     </g>
     <g id="text_6">
      <!-- 0.70 -->
      <g style="fill: #262626" transform="translate(227.915962 213.719707) scale(0.08 -0.08)">
       <defs>
        <path id="DejaVuSans-37" d="M 525 4666 
L 3525 4666 
L 3525 4397 
L 1831 0 
L 1172 0 
L 2766 4134 
L 525 4134 
L 525 4666 
z
" transform="scale(0.015625)"/>
       </defs>
       <use xlink:href="#DejaVuSans-30"/>
       <use xlink:href="#DejaVuSans-2e" transform="translate(63.623047 0)"/>
       <use xlink:href="#DejaVuSans-37" transform="translate(95.410156 0)"/>
       <use xlink:href="#DejaVuSans-30" transform="translate(159.033203 0)"/>
      </g>
     </g>
    </g>
    <g id="xtick_7">
     <g id="line2d_7">
      <path d="M 269.836934 198.140957 
L 269.836934 20.798438 
" clip-path="url(#p31d1803c10)" style="fill: none; stroke: #cccccc; stroke-linecap: round"/>
     </g>
     <g id="text_7">
      <!-- 0.75 -->
      <g style="fill: #262626" transform="translate(260.930684 213.719707) scale(0.08 -0.08)">
       <use xlink:href="#DejaVuSans-30"/>
       <use xlink:href="#DejaVuSans-2e" transform="translate(63.623047 0)"/>
       <use xlink:href="#DejaVuSans-37" transform="translate(95.410156 0)"/>
       <use xlink:href="#DejaVuSans-35" transform="translate(159.033203 0)"/>
      </g>
     </g>
    </g>
    <g id="xtick_8">
     <g id="line2d_8">
      <path d="M 302.851656 198.140957 
L 302.851656 20.798438 
" clip-path="url(#p31d1803c10)" style="fill: none; stroke: #cccccc; stroke-linecap: round"/>
     </g>
     <g id="text_8">
      <!-- 0.80 -->
      <g style="fill: #262626" transform="translate(293.945406 213.719707) scale(0.08 -0.08)">
       <defs>
        <path id="DejaVuSans-38" d="M 2034 2216 
Q 1584 2216 1326 1975 
Q 1069 1734 1069 1313 
Q 1069 891 1326 650 
Q 1584 409 2034 409 
Q 2484 409 2743 651 
Q 3003 894 3003 1313 
Q 3003 1734 2745 1975 
Q 2488 2216 2034 2216 
z
M 1403 2484 
Q 997 2584 770 2862 
Q 544 3141 544 3541 
Q 544 4100 942 4425 
Q 1341 4750 2034 4750 
Q 2731 4750 3128 4425 
Q 3525 4100 3525 3541 
Q 3525 3141 3298 2862 
Q 3072 2584 2669 2484 
Q 3125 2378 3379 2068 
Q 3634 1759 3634 1313 
Q 3634 634 3220 271 
Q 2806 -91 2034 -91 
Q 1263 -91 848 271 
Q 434 634 434 1313 
Q 434 1759 690 2068 
Q 947 2378 1403 2484 
z
M 1172 3481 
Q 1172 3119 1398 2916 
Q 1625 2713 2034 2713 
Q 2441 2713 2670 2916 
Q 2900 3119 2900 3481 
Q 2900 3844 2670 4047 
Q 2441 4250 2034 4250 
Q 1625 4250 1398 4047 
Q 1172 3844 1172 3481 
z
" transform="scale(0.015625)"/>
       </defs>
       <use xlink:href="#DejaVuSans-30"/>
       <use xlink:href="#DejaVuSans-2e" transform="translate(63.623047 0)"/>
       <use xlink:href="#DejaVuSans-38" transform="translate(95.410156 0)"/>
       <use xlink:href="#DejaVuSans-30" transform="translate(159.033203 0)"/>
      </g>
     </g>
    </g>
    <g id="text_9">
     <!-- extent -->
     <g style="fill: #262626" transform="translate(173.616526 225.462207) scale(0.08 -0.08)">
      <defs>
       <path id="DejaVuSans-65" d="M 3597 1894 
L 3597 1613 
L 953 1613 
Q 991 1019 1311 708 
Q 1631 397 2203 397 
Q 2534 397 2845 478 
Q 3156 559 3463 722 
L 3463 178 
Q 3153 47 2828 -22 
Q 2503 -91 2169 -91 
Q 1331 -91 842 396 
Q 353 884 353 1716 
Q 353 2575 817 3079 
Q 1281 3584 2069 3584 
Q 2775 3584 3186 3129 
Q 3597 2675 3597 1894 
z
M 3022 2063 
Q 3016 2534 2758 2815 
Q 2500 3097 2075 3097 
Q 1594 3097 1305 2825 
Q 1016 2553 972 2059 
L 3022 2063 
z
" transform="scale(0.015625)"/>
       <path id="DejaVuSans-78" d="M 3513 3500 
L 2247 1797 
L 3578 0 
L 2900 0 
L 1881 1375 
L 863 0 
L 184 0 
L 1544 1831 
L 300 3500 
L 978 3500 
L 1906 2253 
L 2834 3500 
L 3513 3500 
z
" transform="scale(0.015625)"/>
       <path id="DejaVuSans-74" d="M 1172 4494 
L 1172 3500 
L 2356 3500 
L 2356 3053 
L 1172 3053 
L 1172 1153 
Q 1172 725 1289 603 
Q 1406 481 1766 481 
L 2356 481 
L 2356 0 
L 1766 0 
Q 1100 0 847 248 
Q 594 497 594 1153 
L 594 3053 
L 172 3053 
L 172 3500 
L 594 3500 
L 594 4494 
L 1172 4494 
z
" transform="scale(0.015625)"/>
       <path id="DejaVuSans-6e" d="M 3513 2113 
L 3513 0 
L 2938 0 
L 2938 2094 
Q 2938 2591 2744 2837 
Q 2550 3084 2163 3084 
Q 1697 3084 1428 2787 
Q 1159 2491 1159 1978 
L 1159 0 
L 581 0 
L 581 3500 
L 1159 3500 
L 1159 2956 
Q 1366 3272 1645 3428 
Q 1925 3584 2291 3584 
Q 2894 3584 3203 3211 
Q 3513 2838 3513 2113 
z
" transform="scale(0.015625)"/>
      </defs>
      <use xlink:href="#DejaVuSans-65"/>
      <use xlink:href="#DejaVuSans-78" transform="translate(59.773438 0)"/>
      <use xlink:href="#DejaVuSans-74" transform="translate(118.953125 0)"/>
      <use xlink:href="#DejaVuSans-65" transform="translate(158.162109 0)"/>
      <use xlink:href="#DejaVuSans-6e" transform="translate(219.685547 0)"/>
      <use xlink:href="#DejaVuSans-74" transform="translate(283.064453 0)"/>
     </g>
    </g>
   </g>
   <g id="matplotlib.axis_2">
    <g id="ytick_1">
     <g id="line2d_9">
      <path d="M 43.7125 198.140957 
L 329.303051 198.140957 
" clip-path="url(#p31d1803c10)" style="fill: none; stroke: #cccccc; stroke-linecap: round"/>
     </g>
     <g id="text_10">
      <!-- 0 -->
      <g style="fill: #262626" transform="translate(29.1225 201.180332) scale(0.08 -0.08)">
       <use xlink:href="#DejaVuSans-30"/>
      </g>
     </g>
    </g>
    <g id="ytick_2">
     <g id="line2d_10">
      <path d="M 43.7125 170.223992 
L 329.303051 170.223992 
" clip-path="url(#p31d1803c10)" style="fill: none; stroke: #cccccc; stroke-linecap: round"/>
     </g>
     <g id="text_11">
      <!-- 20 -->
      <g style="fill: #262626" transform="translate(24.0325 173.263367) scale(0.08 -0.08)">
       <defs>
        <path id="DejaVuSans-32" d="M 1228 531 
L 3431 531 
L 3431 0 
L 469 0 
L 469 531 
Q 828 903 1448 1529 
Q 2069 2156 2228 2338 
Q 2531 2678 2651 2914 
Q 2772 3150 2772 3378 
Q 2772 3750 2511 3984 
Q 2250 4219 1831 4219 
Q 1534 4219 1204 4116 
Q 875 4013 500 3803 
L 500 4441 
Q 881 4594 1212 4672 
Q 1544 4750 1819 4750 
Q 2544 4750 2975 4387 
Q 3406 4025 3406 3419 
Q 3406 3131 3298 2873 
Q 3191 2616 2906 2266 
Q 2828 2175 2409 1742 
Q 1991 1309 1228 531 
z
" transform="scale(0.015625)"/>
       </defs>
       <use xlink:href="#DejaVuSans-32"/>
       <use xlink:href="#DejaVuSans-30" transform="translate(63.623047 0)"/>
      </g>
     </g>
    </g>
    <g id="ytick_3">
     <g id="line2d_11">
      <path d="M 43.7125 142.307027 
L 329.303051 142.307027 
" clip-path="url(#p31d1803c10)" style="fill: none; stroke: #cccccc; stroke-linecap: round"/>
     </g>
     <g id="text_12">
      <!-- 40 -->
      <g style="fill: #262626" transform="translate(24.0325 145.346402) scale(0.08 -0.08)">
       <use xlink:href="#DejaVuSans-34"/>
       <use xlink:href="#DejaVuSans-30" transform="translate(63.623047 0)"/>
      </g>
     </g>
    </g>
    <g id="ytick_4">
     <g id="line2d_12">
      <path d="M 43.7125 114.390062 
L 329.303051 114.390062 
" clip-path="url(#p31d1803c10)" style="fill: none; stroke: #cccccc; stroke-linecap: round"/>
     </g>
     <g id="text_13">
      <!-- 60 -->
      <g style="fill: #262626" transform="translate(24.0325 117.429437) scale(0.08 -0.08)">
       <use xlink:href="#DejaVuSans-36"/>
       <use xlink:href="#DejaVuSans-30" transform="translate(63.623047 0)"/>
      </g>
     </g>
    </g>
    <g id="ytick_5">
     <g id="line2d_13">
      <path d="M 43.7125 86.473097 
L 329.303051 86.473097 
" clip-path="url(#p31d1803c10)" style="fill: none; stroke: #cccccc; stroke-linecap: round"/>
     </g>
     <g id="text_14">
      <!-- 80 -->
      <g style="fill: #262626" transform="translate(24.0325 89.512472) scale(0.08 -0.08)">
       <use xlink:href="#DejaVuSans-38"/>
       <use xlink:href="#DejaVuSans-30" transform="translate(63.623047 0)"/>
      </g>
     </g>
    </g>
    <g id="ytick_6">
     <g id="line2d_14">
      <path d="M 43.7125 58.556133 
L 329.303051 58.556133 
" clip-path="url(#p31d1803c10)" style="fill: none; stroke: #cccccc; stroke-linecap: round"/>
     </g>
     <g id="text_15">
      <!-- 100 -->
      <g style="fill: #262626" transform="translate(18.9425 61.595508) scale(0.08 -0.08)">
       <defs>
        <path id="DejaVuSans-31" d="M 794 531 
L 1825 531 
L 1825 4091 
L 703 3866 
L 703 4441 
L 1819 4666 
L 2450 4666 
L 2450 531 
L 3481 531 
L 3481 0 
L 794 0 
L 794 531 
z
" transform="scale(0.015625)"/>
       </defs>
       <use xlink:href="#DejaVuSans-31"/>
       <use xlink:href="#DejaVuSans-30" transform="translate(63.623047 0)"/>
       <use xlink:href="#DejaVuSans-30" transform="translate(127.246094 0)"/>
      </g>
     </g>
    </g>
    <g id="ytick_7">
     <g id="line2d_15">
      <path d="M 43.7125 30.639168 
L 329.303051 30.639168 
" clip-path="url(#p31d1803c10)" style="fill: none; stroke: #cccccc; stroke-linecap: round"/>
     </g>
     <g id="text_16">
      <!-- 120 -->
      <g style="fill: #262626" transform="translate(18.9425 33.678543) scale(0.08 -0.08)">
       <use xlink:href="#DejaVuSans-31"/>
       <use xlink:href="#DejaVuSans-32" transform="translate(63.623047 0)"/>
       <use xlink:href="#DejaVuSans-30" transform="translate(127.246094 0)"/>
      </g>
     </g>
    </g>
    <g id="text_17">
     <!-- Count -->
     <g style="fill: #262626" transform="translate(13.27875 121.348447) rotate(-90) scale(0.08 -0.08)">
      <defs>
       <path id="DejaVuSans-43" d="M 4122 4306 
L 4122 3641 
Q 3803 3938 3442 4084 
Q 3081 4231 2675 4231 
Q 1875 4231 1450 3742 
Q 1025 3253 1025 2328 
Q 1025 1406 1450 917 
Q 1875 428 2675 428 
Q 3081 428 3442 575 
Q 3803 722 4122 1019 
L 4122 359 
Q 3791 134 3420 21 
Q 3050 -91 2638 -91 
Q 1578 -91 968 557 
Q 359 1206 359 2328 
Q 359 3453 968 4101 
Q 1578 4750 2638 4750 
Q 3056 4750 3426 4639 
Q 3797 4528 4122 4306 
z
" transform="scale(0.015625)"/>
       <path id="DejaVuSans-6f" d="M 1959 3097 
Q 1497 3097 1228 2736 
Q 959 2375 959 1747 
Q 959 1119 1226 758 
Q 1494 397 1959 397 
Q 2419 397 2687 759 
Q 2956 1122 2956 1747 
Q 2956 2369 2687 2733 
Q 2419 3097 1959 3097 
z
M 1959 3584 
Q 2709 3584 3137 3096 
Q 3566 2609 3566 1747 
Q 3566 888 3137 398 
Q 2709 -91 1959 -91 
Q 1206 -91 779 398 
Q 353 888 353 1747 
Q 353 2609 779 3096 
Q 1206 3584 1959 3584 
z
" transform="scale(0.015625)"/>
       <path id="DejaVuSans-75" d="M 544 1381 
L 544 3500 
L 1119 3500 
L 1119 1403 
Q 1119 906 1312 657 
Q 1506 409 1894 409 
Q 2359 409 2629 706 
Q 2900 1003 2900 1516 
L 2900 3500 
L 3475 3500 
L 3475 0 
L 2900 0 
L 2900 538 
Q 2691 219 2414 64 
Q 2138 -91 1772 -91 
Q 1169 -91 856 284 
Q 544 659 544 1381 
z
M 1991 3584 
L 1991 3584 
z
" transform="scale(0.015625)"/>
      </defs>
      <use xlink:href="#DejaVuSans-43"/>
      <use xlink:href="#DejaVuSans-6f" transform="translate(69.824219 0)"/>
      <use xlink:href="#DejaVuSans-75" transform="translate(131.005859 0)"/>
      <use xlink:href="#DejaVuSans-6e" transform="translate(194.384766 0)"/>
      <use xlink:href="#DejaVuSans-74" transform="translate(257.763672 0)"/>
     </g>
    </g>
   </g>
   <g id="FillBetweenPolyCollection_1">
    <defs>
     <path id="m406ebb41b7" d="M 56.693889 -36.185 
L 56.693889 -36.185 
L 63.351011 -36.185 
L 63.351011 -36.185 
L 70.008134 -36.185 
L 70.008134 -36.185 
L 76.665256 -36.185 
L 76.665256 -36.185 
L 83.322378 -36.185 
L 83.322378 -36.185 
L 89.979501 -36.185 
L 89.979501 -36.185 
L 96.636623 -36.185 
L 96.636623 -36.185 
L 103.293746 -36.185 
L 103.293746 -36.185 
L 109.950868 -36.185 
L 109.950868 -36.185 
L 116.60799 -36.185 
L 116.60799 -36.185 
L 123.265113 -36.185 
L 123.265113 -36.185 
L 129.922235 -36.185 
L 129.922235 -36.185 
L 136.579358 -36.185 
L 136.579358 -36.185 
L 143.23648 -36.185 
L 143.23648 -36.185 
L 149.893602 -36.185 
L 149.893602 -36.185 
L 156.550725 -36.185 
L 156.550725 -36.185 
L 163.207847 -36.185 
L 163.207847 -36.185 
L 169.86497 -36.185 
L 169.86497 -36.185 
L 176.522092 -36.185 
L 176.522092 -36.185 
L 183.179214 -36.185 
L 183.179214 -36.185 
L 189.836337 -36.185 
L 189.836337 -36.185 
L 196.493459 -36.185 
L 196.493459 -36.185 
L 203.150582 -36.185 
L 203.150582 -36.185 
L 209.807704 -36.185 
L 209.807704 -36.185 
L 216.464826 -36.185 
L 216.464826 -36.185 
L 223.121949 -36.185 
L 223.121949 -36.185 
L 229.779071 -36.185 
L 229.779071 -36.185 
L 236.436194 -36.185 
L 236.436194 -36.185 
L 243.093316 -36.185 
L 243.093316 -36.185 
L 249.750438 -36.185 
L 249.750438 -36.185 
L 256.407561 -36.185 
L 256.407561 -36.185 
L 263.064683 -36.185 
L 263.064683 -36.185 
L 269.721806 -36.185 
L 269.721806 -36.185 
L 276.378928 -36.185 
L 276.378928 -36.185 
L 283.03605 -36.185 
L 283.03605 -36.185 
L 289.693173 -36.185 
L 289.693173 -36.185 
L 296.350295 -36.185 
L 296.350295 -36.185 
L 303.007418 -36.185 
L 303.007418 -36.185 
L 309.66454 -36.185 
L 309.66454 -36.185 
L 316.321662 -36.185 
L 316.321662 -36.185 
L 316.321662 -37.580848 
L 316.321662 -37.580848 
L 316.321662 -37.580848 
L 309.66454 -37.580848 
L 309.66454 -40.372545 
L 303.007418 -40.372545 
L 303.007418 -59.91442 
L 296.350295 -59.91442 
L 296.350295 -80.852144 
L 289.693173 -80.852144 
L 289.693173 -136.686074 
L 283.03605 -136.686074 
L 283.03605 -145.061163 
L 276.378928 -145.061163 
L 276.378928 -205.082638 
L 269.721806 -205.082638 
L 269.721806 -177.165673 
L 263.064683 -177.165673 
L 263.064683 -124.12344 
L 256.407561 -124.12344 
L 256.407561 -142.269467 
L 249.750438 -142.269467 
L 249.750438 -122.727591 
L 243.093316 -122.727591 
L 243.093316 -90.623082 
L 236.436194 -90.623082 
L 236.436194 -96.206475 
L 229.779071 -96.206475 
L 229.779071 -82.247992 
L 223.121949 -82.247992 
L 223.121949 -79.456296 
L 216.464826 -79.456296 
L 216.464826 -75.268751 
L 209.807704 -75.268751 
L 209.807704 -86.435537 
L 203.150582 -86.435537 
L 203.150582 -52.935179 
L 196.493459 -52.935179 
L 196.493459 -57.122724 
L 189.836337 -57.122724 
L 189.836337 -52.935179 
L 183.179214 -52.935179 
L 183.179214 -52.935179 
L 176.522092 -52.935179 
L 176.522092 -47.351786 
L 169.86497 -47.351786 
L 169.86497 -43.164241 
L 163.207847 -43.164241 
L 163.207847 -44.560089 
L 156.550725 -44.560089 
L 156.550725 -38.976696 
L 149.893602 -38.976696 
L 149.893602 -40.372545 
L 143.23648 -40.372545 
L 143.23648 -40.372545 
L 136.579358 -40.372545 
L 136.579358 -37.580848 
L 129.922235 -37.580848 
L 129.922235 -36.185 
L 123.265113 -36.185 
L 123.265113 -36.185 
L 116.60799 -36.185 
L 116.60799 -36.185 
L 109.950868 -36.185 
L 109.950868 -37.580848 
L 103.293746 -37.580848 
L 103.293746 -36.185 
L 96.636623 -36.185 
L 96.636623 -36.185 
L 89.979501 -36.185 
L 89.979501 -36.185 
L 83.322378 -36.185 
L 83.322378 -36.185 
L 76.665256 -36.185 
L 76.665256 -36.185 
L 70.008134 -36.185 
L 70.008134 -36.185 
L 63.351011 -36.185 
L 63.351011 -36.185 
L 56.693889 -36.185 
z
" style="stroke: #35b779"/>
    </defs>
    <g clip-path="url(#p31d1803c10)">
     <use xlink:href="#m406ebb41b7" x="0" y="234.325957" style="fill: #35b779; fill-opacity: 0.25; stroke: #35b779"/>
    </g>
   </g>
   <g id="FillBetweenPolyCollection_2">
    <defs>
     <path id="m1bc4f206e4" d="M 56.693889 -38.976696 
L 56.693889 -36.185 
L 63.351011 -36.185 
L 63.351011 -36.185 
L 70.008134 -36.185 
L 70.008134 -36.185 
L 76.665256 -36.185 
L 76.665256 -36.185 
L 83.322378 -36.185 
L 83.322378 -36.185 
L 89.979501 -36.185 
L 89.979501 -36.185 
L 96.636623 -36.185 
L 96.636623 -36.185 
L 103.293746 -36.185 
L 103.293746 -36.185 
L 109.950868 -36.185 
L 109.950868 -36.185 
L 116.60799 -36.185 
L 116.60799 -36.185 
L 123.265113 -36.185 
L 123.265113 -36.185 
L 129.922235 -36.185 
L 129.922235 -36.185 
L 136.579358 -36.185 
L 136.579358 -36.185 
L 143.23648 -36.185 
L 143.23648 -36.185 
L 149.893602 -36.185 
L 149.893602 -36.185 
L 156.550725 -36.185 
L 156.550725 -36.185 
L 163.207847 -36.185 
L 163.207847 -36.185 
L 169.86497 -36.185 
L 169.86497 -36.185 
L 176.522092 -36.185 
L 176.522092 -36.185 
L 183.179214 -36.185 
L 183.179214 -36.185 
L 189.836337 -36.185 
L 189.836337 -36.185 
L 196.493459 -36.185 
L 196.493459 -36.185 
L 203.150582 -36.185 
L 203.150582 -36.185 
L 209.807704 -36.185 
L 209.807704 -36.185 
L 216.464826 -36.185 
L 216.464826 -36.185 
L 223.121949 -36.185 
L 223.121949 -36.185 
L 229.779071 -36.185 
L 229.779071 -36.185 
L 236.436194 -36.185 
L 236.436194 -36.185 
L 243.093316 -36.185 
L 243.093316 -36.185 
L 249.750438 -36.185 
L 249.750438 -36.185 
L 256.407561 -36.185 
L 256.407561 -36.185 
L 263.064683 -36.185 
L 263.064683 -36.185 
L 269.721806 -36.185 
L 269.721806 -36.185 
L 276.378928 -36.185 
L 276.378928 -36.185 
L 283.03605 -36.185 
L 283.03605 -36.185 
L 289.693173 -36.185 
L 289.693173 -36.185 
L 296.350295 -36.185 
L 296.350295 -36.185 
L 303.007418 -36.185 
L 303.007418 -36.185 
L 309.66454 -36.185 
L 309.66454 -36.185 
L 316.321662 -36.185 
L 316.321662 -36.185 
L 316.321662 -37.580848 
L 316.321662 -37.580848 
L 316.321662 -37.580848 
L 309.66454 -37.580848 
L 309.66454 -48.747634 
L 303.007418 -48.747634 
L 303.007418 -61.310268 
L 296.350295 -61.310268 
L 296.350295 -73.872903 
L 289.693173 -73.872903 
L 289.693173 -129.706832 
L 283.03605 -129.706832 
L 283.03605 -149.248708 
L 276.378928 -149.248708 
L 276.378928 -193.915852 
L 269.721806 -193.915852 
L 269.721806 -192.520004 
L 263.064683 -192.520004 
L 263.064683 -182.749066 
L 256.407561 -182.749066 
L 256.407561 -179.957369 
L 249.750438 -179.957369 
L 249.750438 -179.957369 
L 243.093316 -179.957369 
L 243.093316 -146.457011 
L 236.436194 -146.457011 
L 236.436194 -128.310984 
L 229.779071 -128.310984 
L 229.779071 -115.74835 
L 223.121949 -115.74835 
L 223.121949 -118.540047 
L 216.464826 -118.540047 
L 216.464826 -94.810626 
L 209.807704 -94.810626 
L 209.807704 -89.227233 
L 203.150582 -89.227233 
L 203.150582 -87.831385 
L 196.493459 -87.831385 
L 196.493459 -59.91442 
L 189.836337 -59.91442 
L 189.836337 -66.893661 
L 183.179214 -66.893661 
L 183.179214 -61.310268 
L 176.522092 -61.310268 
L 176.522092 -52.935179 
L 169.86497 -52.935179 
L 169.86497 -48.747634 
L 163.207847 -48.747634 
L 163.207847 -45.955938 
L 156.550725 -45.955938 
L 156.550725 -45.955938 
L 149.893602 -45.955938 
L 149.893602 -43.164241 
L 143.23648 -43.164241 
L 143.23648 -44.560089 
L 136.579358 -44.560089 
L 136.579358 -36.185 
L 129.922235 -36.185 
L 129.922235 -38.976696 
L 123.265113 -38.976696 
L 123.265113 -40.372545 
L 116.60799 -40.372545 
L 116.60799 -36.185 
L 109.950868 -36.185 
L 109.950868 -38.976696 
L 103.293746 -38.976696 
L 103.293746 -36.185 
L 96.636623 -36.185 
L 96.636623 -37.580848 
L 89.979501 -37.580848 
L 89.979501 -37.580848 
L 83.322378 -37.580848 
L 83.322378 -36.185 
L 76.665256 -36.185 
L 76.665256 -37.580848 
L 70.008134 -37.580848 
L 70.008134 -36.185 
L 63.351011 -36.185 
L 63.351011 -38.976696 
L 56.693889 -38.976696 
z
" style="stroke: #31688e"/>
    </defs>
    <g clip-path="url(#p31d1803c10)">
     <use xlink:href="#m1bc4f206e4" x="0" y="234.325957" style="fill: #31688e; fill-opacity: 0.25; stroke: #31688e"/>
    </g>
   </g>
   <g id="line2d_16">
    <path d="M 56.693889 198.140957 
L 91.919768 198.054971 
L 112.794362 197.733176 
L 119.317673 197.736621 
L 123.23166 197.567616 
L 127.145646 197.218747 
L 132.364295 196.482115 
L 142.801593 194.79954 
L 151.934228 193.581955 
L 154.543552 193.018019 
L 158.457539 191.887614 
L 162.371525 190.497345 
L 168.894836 187.900232 
L 178.027471 184.212234 
L 188.464769 180.377771 
L 191.074093 178.878834 
L 192.378755 177.945735 
L 194.98808 175.666932 
L 197.597404 172.856194 
L 200.206728 169.639005 
L 205.425377 162.951704 
L 208.034702 160.025927 
L 210.644026 157.634988 
L 213.25335 155.80892 
L 215.862675 154.438894 
L 223.690648 150.863825 
L 226.299972 149.136145 
L 228.909296 146.904247 
L 231.518621 144.089603 
L 234.127945 140.627271 
L 236.73727 136.472281 
L 239.346594 131.641261 
L 241.955918 126.26099 
L 252.393216 103.858686 
L 255.00254 98.293028 
L 257.611864 92.273794 
L 260.221189 85.660703 
L 264.135175 75.359705 
L 265.439837 72.224296 
L 266.7445 69.462146 
L 268.049162 67.213347 
L 269.353824 65.605529 
L 270.658486 64.743612 
L 271.963148 64.702203 
L 273.267811 65.521393 
L 274.572473 67.206207 
L 275.877135 69.729355 
L 277.181797 73.03652 
L 278.486459 77.05312 
L 279.791121 81.691406 
L 282.400446 92.453517 
L 285.00977 104.566833 
L 292.837743 142.306484 
L 295.447068 153.504593 
L 298.056392 163.366235 
L 300.665716 171.734785 
L 301.970379 175.352399 
L 303.275041 178.603892 
L 304.579703 181.504643 
L 305.884365 184.073437 
L 307.189027 186.331209 
L 308.493689 188.300123 
L 309.798352 190.002981 
L 311.103014 191.46288 
L 312.407676 192.702988 
L 313.712338 193.746364 
L 315.017 194.615728 
L 316.321662 195.333162 
L 316.321662 195.333162 
" clip-path="url(#p31d1803c10)" style="fill: none; stroke: #35b779; stroke-width: 1.5; stroke-linecap: round"/>
   </g>
   <g id="line2d_17">
    <path d="M 56.693889 197.276308 
L 61.912537 197.101587 
L 67.131186 197.133841 
L 81.48247 197.4596 
L 88.005781 197.204147 
L 98.443078 196.750172 
L 112.794362 196.312735 
L 127.145646 195.295121 
L 131.059633 194.762203 
L 133.668957 194.212916 
L 137.582944 193.131304 
L 148.020241 190.024479 
L 159.762201 186.871322 
L 163.676187 185.47551 
L 166.285512 184.317357 
L 168.894836 182.940808 
L 171.504161 181.343928 
L 175.418147 178.599888 
L 180.636796 174.536461 
L 185.855445 170.150827 
L 188.464769 167.73477 
L 191.074093 165.065649 
L 193.683418 162.084664 
L 196.292742 158.781574 
L 200.206728 153.329908 
L 206.730039 143.598184 
L 217.167337 127.605467 
L 224.99531 115.211568 
L 228.909296 108.538721 
L 231.518621 103.593274 
L 234.127945 98.09458 
L 236.73727 92.036827 
L 245.869905 69.892071 
L 248.479229 64.665389 
L 251.088553 60.274663 
L 253.697878 56.653169 
L 256.307202 53.65818 
L 258.916527 51.200864 
L 260.221189 50.191205 
L 261.525851 49.364975 
L 262.830513 48.768048 
L 264.135175 48.457898 
L 265.439837 48.499537 
L 266.7445 48.960293 
L 268.049162 49.904037 
L 269.353824 51.385536 
L 270.658486 53.445624 
L 271.963148 56.10772 
L 273.267811 59.37601 
L 274.572473 63.235348 
L 275.877135 67.65265 
L 277.181797 72.579368 
L 279.791121 83.707993 
L 282.400446 96.039936 
L 288.923757 127.93064 
L 291.533081 139.584049 
L 294.142405 149.997445 
L 296.75173 159.029337 
L 299.361054 166.727242 
L 301.970379 173.257475 
L 304.579703 178.811997 
L 307.189027 183.535542 
L 309.798352 187.501015 
L 312.407676 190.731614 
L 313.712338 192.075873 
L 315.017 193.244815 
L 316.321662 194.245731 
L 316.321662 194.245731 
" clip-path="url(#p31d1803c10)" style="fill: none; stroke: #31688e; stroke-width: 1.5; stroke-linecap: round"/>
   </g>
   <g id="patch_3">
    <path d="M 43.7125 198.140957 
L 43.7125 20.798437 
" style="fill: none; stroke: #cccccc; stroke-width: 1.25; stroke-linejoin: miter; stroke-linecap: square"/>
   </g>
   <g id="patch_4">
    <path d="M 43.7125 198.140957 
L 329.303051 198.140957 
" style="fill: none; stroke: #cccccc; stroke-width: 1.25; stroke-linejoin: miter; stroke-linecap: square"/>
   </g>
   <g id="text_18">
    <!-- Distribution of extent for each Class -->
    <g style="fill: #262626" transform="translate(84.126526 14.798438) scale(0.1 -0.1)">
     <defs>
      <path id="DejaVuSans-Bold-44" d="M 1791 3756 
L 1791 909 
L 2222 909 
Q 2959 909 3348 1275 
Q 3738 1641 3738 2338 
Q 3738 3031 3350 3393 
Q 2963 3756 2222 3756 
L 1791 3756 
z
M 588 4666 
L 1856 4666 
Q 2919 4666 3439 4514 
Q 3959 4363 4331 4000 
Q 4659 3684 4818 3271 
Q 4978 2859 4978 2338 
Q 4978 1809 4818 1395 
Q 4659 981 4331 666 
Q 3956 303 3431 151 
Q 2906 0 1856 0 
L 588 0 
L 588 4666 
z
" transform="scale(0.015625)"/>
      <path id="DejaVuSans-Bold-69" d="M 538 3500 
L 1656 3500 
L 1656 0 
L 538 0 
L 538 3500 
z
M 538 4863 
L 1656 4863 
L 1656 3950 
L 538 3950 
L 538 4863 
z
" transform="scale(0.015625)"/>
      <path id="DejaVuSans-Bold-73" d="M 3272 3391 
L 3272 2541 
Q 2913 2691 2578 2766 
Q 2244 2841 1947 2841 
Q 1628 2841 1473 2761 
Q 1319 2681 1319 2516 
Q 1319 2381 1436 2309 
Q 1553 2238 1856 2203 
L 2053 2175 
Q 2913 2066 3209 1816 
Q 3506 1566 3506 1031 
Q 3506 472 3093 190 
Q 2681 -91 1863 -91 
Q 1516 -91 1145 -36 
Q 775 19 384 128 
L 384 978 
Q 719 816 1070 734 
Q 1422 653 1784 653 
Q 2113 653 2278 743 
Q 2444 834 2444 1013 
Q 2444 1163 2330 1236 
Q 2216 1309 1875 1350 
L 1678 1375 
Q 931 1469 631 1722 
Q 331 1975 331 2491 
Q 331 3047 712 3315 
Q 1094 3584 1881 3584 
Q 2191 3584 2531 3537 
Q 2872 3491 3272 3391 
z
" transform="scale(0.015625)"/>
      <path id="DejaVuSans-Bold-74" d="M 1759 4494 
L 1759 3500 
L 2913 3500 
L 2913 2700 
L 1759 2700 
L 1759 1216 
Q 1759 972 1856 886 
Q 1953 800 2241 800 
L 2816 800 
L 2816 0 
L 1856 0 
Q 1194 0 917 276 
Q 641 553 641 1216 
L 641 2700 
L 84 2700 
L 84 3500 
L 641 3500 
L 641 4494 
L 1759 4494 
z
" transform="scale(0.015625)"/>
      <path id="DejaVuSans-Bold-72" d="M 3138 2547 
Q 2991 2616 2845 2648 
Q 2700 2681 2553 2681 
Q 2122 2681 1889 2404 
Q 1656 2128 1656 1613 
L 1656 0 
L 538 0 
L 538 3500 
L 1656 3500 
L 1656 2925 
Q 1872 3269 2151 3426 
Q 2431 3584 2822 3584 
Q 2878 3584 2943 3579 
Q 3009 3575 3134 3559 
L 3138 2547 
z
" transform="scale(0.015625)"/>
      <path id="DejaVuSans-Bold-62" d="M 2400 722 
Q 2759 722 2948 984 
Q 3138 1247 3138 1747 
Q 3138 2247 2948 2509 
Q 2759 2772 2400 2772 
Q 2041 2772 1848 2508 
Q 1656 2244 1656 1747 
Q 1656 1250 1848 986 
Q 2041 722 2400 722 
z
M 1656 2988 
Q 1888 3294 2169 3439 
Q 2450 3584 2816 3584 
Q 3463 3584 3878 3070 
Q 4294 2556 4294 1747 
Q 4294 938 3878 423 
Q 3463 -91 2816 -91 
Q 2450 -91 2169 54 
Q 1888 200 1656 506 
L 1656 0 
L 538 0 
L 538 4863 
L 1656 4863 
L 1656 2988 
z
" transform="scale(0.015625)"/>
      <path id="DejaVuSans-Bold-75" d="M 500 1363 
L 500 3500 
L 1625 3500 
L 1625 3150 
Q 1625 2866 1622 2436 
Q 1619 2006 1619 1863 
Q 1619 1441 1641 1255 
Q 1663 1069 1716 984 
Q 1784 875 1895 815 
Q 2006 756 2150 756 
Q 2500 756 2700 1025 
Q 2900 1294 2900 1772 
L 2900 3500 
L 4019 3500 
L 4019 0 
L 2900 0 
L 2900 506 
Q 2647 200 2364 54 
Q 2081 -91 1741 -91 
Q 1134 -91 817 281 
Q 500 653 500 1363 
z
" transform="scale(0.015625)"/>
      <path id="DejaVuSans-Bold-6f" d="M 2203 2784 
Q 1831 2784 1636 2517 
Q 1441 2250 1441 1747 
Q 1441 1244 1636 976 
Q 1831 709 2203 709 
Q 2569 709 2762 976 
Q 2956 1244 2956 1747 
Q 2956 2250 2762 2517 
Q 2569 2784 2203 2784 
z
M 2203 3584 
Q 3106 3584 3614 3096 
Q 4122 2609 4122 1747 
Q 4122 884 3614 396 
Q 3106 -91 2203 -91 
Q 1297 -91 786 396 
Q 275 884 275 1747 
Q 275 2609 786 3096 
Q 1297 3584 2203 3584 
z
" transform="scale(0.015625)"/>
      <path id="DejaVuSans-Bold-6e" d="M 4056 2131 
L 4056 0 
L 2931 0 
L 2931 347 
L 2931 1631 
Q 2931 2084 2911 2256 
Q 2891 2428 2841 2509 
Q 2775 2619 2662 2680 
Q 2550 2741 2406 2741 
Q 2056 2741 1856 2470 
Q 1656 2200 1656 1722 
L 1656 0 
L 538 0 
L 538 3500 
L 1656 3500 
L 1656 2988 
Q 1909 3294 2193 3439 
Q 2478 3584 2822 3584 
Q 3428 3584 3742 3212 
Q 4056 2841 4056 2131 
z
" transform="scale(0.015625)"/>
      <path id="DejaVuSans-Bold-20" transform="scale(0.015625)"/>
      <path id="DejaVuSans-Bold-66" d="M 2841 4863 
L 2841 4128 
L 2222 4128 
Q 1984 4128 1890 4042 
Q 1797 3956 1797 3744 
L 1797 3500 
L 2753 3500 
L 2753 2700 
L 1797 2700 
L 1797 0 
L 678 0 
L 678 2700 
L 122 2700 
L 122 3500 
L 678 3500 
L 678 3744 
Q 678 4316 997 4589 
Q 1316 4863 1984 4863 
L 2841 4863 
z
" transform="scale(0.015625)"/>
      <path id="DejaVuSans-Bold-65" d="M 4031 1759 
L 4031 1441 
L 1416 1441 
Q 1456 1047 1700 850 
Q 1944 653 2381 653 
Q 2734 653 3104 758 
Q 3475 863 3866 1075 
L 3866 213 
Q 3469 63 3072 -14 
Q 2675 -91 2278 -91 
Q 1328 -91 801 392 
Q 275 875 275 1747 
Q 275 2603 792 3093 
Q 1309 3584 2216 3584 
Q 3041 3584 3536 3087 
Q 4031 2591 4031 1759 
z
M 2881 2131 
Q 2881 2450 2695 2645 
Q 2509 2841 2209 2841 
Q 1884 2841 1681 2658 
Q 1478 2475 1428 2131 
L 2881 2131 
z
" transform="scale(0.015625)"/>
      <path id="DejaVuSans-Bold-78" d="M 1422 1791 
L 159 3500 
L 1344 3500 
L 2059 2463 
L 2784 3500 
L 3969 3500 
L 2706 1797 
L 4031 0 
L 2847 0 
L 2059 1106 
L 1281 0 
L 97 0 
L 1422 1791 
z
" transform="scale(0.015625)"/>
      <path id="DejaVuSans-Bold-61" d="M 2106 1575 
Q 1756 1575 1579 1456 
Q 1403 1338 1403 1106 
Q 1403 894 1545 773 
Q 1688 653 1941 653 
Q 2256 653 2472 879 
Q 2688 1106 2688 1447 
L 2688 1575 
L 2106 1575 
z
M 3816 1997 
L 3816 0 
L 2688 0 
L 2688 519 
Q 2463 200 2181 54 
Q 1900 -91 1497 -91 
Q 953 -91 614 226 
Q 275 544 275 1050 
Q 275 1666 698 1953 
Q 1122 2241 2028 2241 
L 2688 2241 
L 2688 2328 
Q 2688 2594 2478 2717 
Q 2269 2841 1825 2841 
Q 1466 2841 1156 2769 
Q 847 2697 581 2553 
L 581 3406 
Q 941 3494 1303 3539 
Q 1666 3584 2028 3584 
Q 2975 3584 3395 3211 
Q 3816 2838 3816 1997 
z
" transform="scale(0.015625)"/>
      <path id="DejaVuSans-Bold-63" d="M 3366 3391 
L 3366 2478 
Q 3138 2634 2908 2709 
Q 2678 2784 2431 2784 
Q 1963 2784 1702 2511 
Q 1441 2238 1441 1747 
Q 1441 1256 1702 982 
Q 1963 709 2431 709 
Q 2694 709 2930 787 
Q 3166 866 3366 1019 
L 3366 103 
Q 3103 6 2833 -42 
Q 2563 -91 2291 -91 
Q 1344 -91 809 395 
Q 275 881 275 1747 
Q 275 2613 809 3098 
Q 1344 3584 2291 3584 
Q 2566 3584 2833 3536 
Q 3100 3488 3366 3391 
z
" transform="scale(0.015625)"/>
      <path id="DejaVuSans-Bold-68" d="M 4056 2131 
L 4056 0 
L 2931 0 
L 2931 347 
L 2931 1625 
Q 2931 2084 2911 2256 
Q 2891 2428 2841 2509 
Q 2775 2619 2662 2680 
Q 2550 2741 2406 2741 
Q 2056 2741 1856 2470 
Q 1656 2200 1656 1722 
L 1656 0 
L 538 0 
L 538 4863 
L 1656 4863 
L 1656 2988 
Q 1909 3294 2193 3439 
Q 2478 3584 2822 3584 
Q 3428 3584 3742 3212 
Q 4056 2841 4056 2131 
z
" transform="scale(0.015625)"/>
      <path id="DejaVuSans-Bold-43" d="M 4288 256 
Q 3956 84 3597 -3 
Q 3238 -91 2847 -91 
Q 1681 -91 1000 561 
Q 319 1213 319 2328 
Q 319 3447 1000 4098 
Q 1681 4750 2847 4750 
Q 3238 4750 3597 4662 
Q 3956 4575 4288 4403 
L 4288 3438 
Q 3953 3666 3628 3772 
Q 3303 3878 2944 3878 
Q 2300 3878 1931 3465 
Q 1563 3053 1563 2328 
Q 1563 1606 1931 1193 
Q 2300 781 2944 781 
Q 3303 781 3628 887 
Q 3953 994 4288 1222 
L 4288 256 
z
" transform="scale(0.015625)"/>
      <path id="DejaVuSans-Bold-6c" d="M 538 4863 
L 1656 4863 
L 1656 0 
L 538 0 
L 538 4863 
z
" transform="scale(0.015625)"/>
     </defs>
     <use xlink:href="#DejaVuSans-Bold-44"/>
     <use xlink:href="#DejaVuSans-Bold-69" transform="translate(83.007812 0)"/>
     <use xlink:href="#DejaVuSans-Bold-73" transform="translate(117.285156 0)"/>
     <use xlink:href="#DejaVuSans-Bold-74" transform="translate(176.806641 0)"/>
     <use xlink:href="#DejaVuSans-Bold-72" transform="translate(224.609375 0)"/>
     <use xlink:href="#DejaVuSans-Bold-69" transform="translate(273.925781 0)"/>
     <use xlink:href="#DejaVuSans-Bold-62" transform="translate(308.203125 0)"/>
     <use xlink:href="#DejaVuSans-Bold-75" transform="translate(379.785156 0)"/>
     <use xlink:href="#DejaVuSans-Bold-74" transform="translate(450.976562 0)"/>
     <use xlink:href="#DejaVuSans-Bold-69" transform="translate(498.779297 0)"/>
     <use xlink:href="#DejaVuSans-Bold-6f" transform="translate(533.056641 0)"/>
     <use xlink:href="#DejaVuSans-Bold-6e" transform="translate(601.757812 0)"/>
     <use xlink:href="#DejaVuSans-Bold-20" transform="translate(672.949219 0)"/>
     <use xlink:href="#DejaVuSans-Bold-6f" transform="translate(707.763672 0)"/>
     <use xlink:href="#DejaVuSans-Bold-66" transform="translate(776.464844 0)"/>
     <use xlink:href="#DejaVuSans-Bold-20" transform="translate(819.970703 0)"/>
     <use xlink:href="#DejaVuSans-Bold-65" transform="translate(854.785156 0)"/>
     <use xlink:href="#DejaVuSans-Bold-78" transform="translate(922.607422 0)"/>
     <use xlink:href="#DejaVuSans-Bold-74" transform="translate(987.109375 0)"/>
     <use xlink:href="#DejaVuSans-Bold-65" transform="translate(1034.912109 0)"/>
     <use xlink:href="#DejaVuSans-Bold-6e" transform="translate(1102.734375 0)"/>
     <use xlink:href="#DejaVuSans-Bold-74" transform="translate(1173.925781 0)"/>
     <use xlink:href="#DejaVuSans-Bold-20" transform="translate(1221.728516 0)"/>
     <use xlink:href="#DejaVuSans-Bold-66" transform="translate(1256.542969 0)"/>
     <use xlink:href="#DejaVuSans-Bold-6f" transform="translate(1300.048828 0)"/>
     <use xlink:href="#DejaVuSans-Bold-72" transform="translate(1368.75 0)"/>
     <use xlink:href="#DejaVuSans-Bold-20" transform="translate(1418.066406 0)"/>
     <use xlink:href="#DejaVuSans-Bold-65" transform="translate(1452.880859 0)"/>
     <use xlink:href="#DejaVuSans-Bold-61" transform="translate(1520.703125 0)"/>
     <use xlink:href="#DejaVuSans-Bold-63" transform="translate(1588.183594 0)"/>
     <use xlink:href="#DejaVuSans-Bold-68" transform="translate(1647.460938 0)"/>
     <use xlink:href="#DejaVuSans-Bold-20" transform="translate(1718.652344 0)"/>
     <use xlink:href="#DejaVuSans-Bold-43" transform="translate(1753.466797 0)"/>
     <use xlink:href="#DejaVuSans-Bold-6c" transform="translate(1826.855469 0)"/>
     <use xlink:href="#DejaVuSans-Bold-61" transform="translate(1861.132812 0)"/>
     <use xlink:href="#DejaVuSans-Bold-73" transform="translate(1928.613281 0)"/>
     <use xlink:href="#DejaVuSans-Bold-73" transform="translate(1988.134766 0)"/>
    </g>
   </g>
   <g id="legend_1">
    <g id="patch_5">
     <path d="M 51.4125 73.013438 
L 153.325 73.013438 
Q 155.525 73.013438 155.525 70.813438 
L 155.525 28.498438 
Q 155.525 26.298438 153.325 26.298438 
L 51.4125 26.298438 
Q 49.2125 26.298438 49.2125 28.498438 
L 49.2125 70.813438 
Q 49.2125 73.013438 51.4125 73.013438 
z
" style="fill: #ffffff; opacity: 0.8; stroke: #cccccc; stroke-linejoin: miter"/>
    </g>
    <g id="text_19">
     <!-- Class -->
     <g style="fill: #262626" transform="translate(91.845625 36.777188) scale(0.08 -0.08)">
      <defs>
       <path id="DejaVuSans-6c" d="M 603 4863 
L 1178 4863 
L 1178 0 
L 603 0 
L 603 4863 
z
" transform="scale(0.015625)"/>
       <path id="DejaVuSans-61" d="M 2194 1759 
Q 1497 1759 1228 1600 
Q 959 1441 959 1056 
Q 959 750 1161 570 
Q 1363 391 1709 391 
Q 2188 391 2477 730 
Q 2766 1069 2766 1631 
L 2766 1759 
L 2194 1759 
z
M 3341 1997 
L 3341 0 
L 2766 0 
L 2766 531 
Q 2569 213 2275 61 
Q 1981 -91 1556 -91 
Q 1019 -91 701 211 
Q 384 513 384 1019 
Q 384 1609 779 1909 
Q 1175 2209 1959 2209 
L 2766 2209 
L 2766 2266 
Q 2766 2663 2505 2880 
Q 2244 3097 1772 3097 
Q 1472 3097 1187 3025 
Q 903 2953 641 2809 
L 641 3341 
Q 956 3463 1253 3523 
Q 1550 3584 1831 3584 
Q 2591 3584 2966 3190 
Q 3341 2797 3341 1997 
z
" transform="scale(0.015625)"/>
       <path id="DejaVuSans-73" d="M 2834 3397 
L 2834 2853 
Q 2591 2978 2328 3040 
Q 2066 3103 1784 3103 
Q 1356 3103 1142 2972 
Q 928 2841 928 2578 
Q 928 2378 1081 2264 
Q 1234 2150 1697 2047 
L 1894 2003 
Q 2506 1872 2764 1633 
Q 3022 1394 3022 966 
Q 3022 478 2636 193 
Q 2250 -91 1575 -91 
Q 1294 -91 989 -36 
Q 684 19 347 128 
L 347 722 
Q 666 556 975 473 
Q 1284 391 1588 391 
Q 1994 391 2212 530 
Q 2431 669 2431 922 
Q 2431 1156 2273 1281 
Q 2116 1406 1581 1522 
L 1381 1569 
Q 847 1681 609 1914 
Q 372 2147 372 2553 
Q 372 3047 722 3315 
Q 1072 3584 1716 3584 
Q 2034 3584 2315 3537 
Q 2597 3491 2834 3397 
z
" transform="scale(0.015625)"/>
      </defs>
      <use xlink:href="#DejaVuSans-43"/>
      <use xlink:href="#DejaVuSans-6c" transform="translate(69.824219 0)"/>
      <use xlink:href="#DejaVuSans-61" transform="translate(97.607422 0)"/>
      <use xlink:href="#DejaVuSans-73" transform="translate(158.886719 0)"/>
      <use xlink:href="#DejaVuSans-73" transform="translate(210.986328 0)"/>
     </g>
    </g>
    <g id="patch_6">
     <path d="M 53.6125 51.640938 
L 75.6125 51.640938 
L 75.6125 43.940938 
L 53.6125 43.940938 
z
" style="fill: #31688e; fill-opacity: 0.25; stroke: #31688e; stroke-linejoin: miter"/>
    </g>
    <g id="text_20">
     <!-- Kirmizi_Pistachio -->
     <g style="fill: #262626" transform="translate(84.4125 51.640938) scale(0.08 -0.08)">
      <defs>
       <path id="DejaVuSans-4b" d="M 628 4666 
L 1259 4666 
L 1259 2694 
L 3353 4666 
L 4166 4666 
L 1850 2491 
L 4331 0 
L 3500 0 
L 1259 2247 
L 1259 0 
L 628 0 
L 628 4666 
z
" transform="scale(0.015625)"/>
       <path id="DejaVuSans-69" d="M 603 3500 
L 1178 3500 
L 1178 0 
L 603 0 
L 603 3500 
z
M 603 4863 
L 1178 4863 
L 1178 4134 
L 603 4134 
L 603 4863 
z
" transform="scale(0.015625)"/>
       <path id="DejaVuSans-72" d="M 2631 2963 
Q 2534 3019 2420 3045 
Q 2306 3072 2169 3072 
Q 1681 3072 1420 2755 
Q 1159 2438 1159 1844 
L 1159 0 
L 581 0 
L 581 3500 
L 1159 3500 
L 1159 2956 
Q 1341 3275 1631 3429 
Q 1922 3584 2338 3584 
Q 2397 3584 2469 3576 
Q 2541 3569 2628 3553 
L 2631 2963 
z
" transform="scale(0.015625)"/>
       <path id="DejaVuSans-6d" d="M 3328 2828 
Q 3544 3216 3844 3400 
Q 4144 3584 4550 3584 
Q 5097 3584 5394 3201 
Q 5691 2819 5691 2113 
L 5691 0 
L 5113 0 
L 5113 2094 
Q 5113 2597 4934 2840 
Q 4756 3084 4391 3084 
Q 3944 3084 3684 2787 
Q 3425 2491 3425 1978 
L 3425 0 
L 2847 0 
L 2847 2094 
Q 2847 2600 2669 2842 
Q 2491 3084 2119 3084 
Q 1678 3084 1418 2786 
Q 1159 2488 1159 1978 
L 1159 0 
L 581 0 
L 581 3500 
L 1159 3500 
L 1159 2956 
Q 1356 3278 1631 3431 
Q 1906 3584 2284 3584 
Q 2666 3584 2933 3390 
Q 3200 3197 3328 2828 
z
" transform="scale(0.015625)"/>
       <path id="DejaVuSans-7a" d="M 353 3500 
L 3084 3500 
L 3084 2975 
L 922 459 
L 3084 459 
L 3084 0 
L 275 0 
L 275 525 
L 2438 3041 
L 353 3041 
L 353 3500 
z
" transform="scale(0.015625)"/>
       <path id="DejaVuSans-5f" d="M 3263 -1063 
L 3263 -1509 
L -63 -1509 
L -63 -1063 
L 3263 -1063 
z
" transform="scale(0.015625)"/>
       <path id="DejaVuSans-50" d="M 1259 4147 
L 1259 2394 
L 2053 2394 
Q 2494 2394 2734 2622 
Q 2975 2850 2975 3272 
Q 2975 3691 2734 3919 
Q 2494 4147 2053 4147 
L 1259 4147 
z
M 628 4666 
L 2053 4666 
Q 2838 4666 3239 4311 
Q 3641 3956 3641 3272 
Q 3641 2581 3239 2228 
Q 2838 1875 2053 1875 
L 1259 1875 
L 1259 0 
L 628 0 
L 628 4666 
z
" transform="scale(0.015625)"/>
       <path id="DejaVuSans-63" d="M 3122 3366 
L 3122 2828 
Q 2878 2963 2633 3030 
Q 2388 3097 2138 3097 
Q 1578 3097 1268 2742 
Q 959 2388 959 1747 
Q 959 1106 1268 751 
Q 1578 397 2138 397 
Q 2388 397 2633 464 
Q 2878 531 3122 666 
L 3122 134 
Q 2881 22 2623 -34 
Q 2366 -91 2075 -91 
Q 1284 -91 818 406 
Q 353 903 353 1747 
Q 353 2603 823 3093 
Q 1294 3584 2113 3584 
Q 2378 3584 2631 3529 
Q 2884 3475 3122 3366 
z
" transform="scale(0.015625)"/>
       <path id="DejaVuSans-68" d="M 3513 2113 
L 3513 0 
L 2938 0 
L 2938 2094 
Q 2938 2591 2744 2837 
Q 2550 3084 2163 3084 
Q 1697 3084 1428 2787 
Q 1159 2491 1159 1978 
L 1159 0 
L 581 0 
L 581 4863 
L 1159 4863 
L 1159 2956 
Q 1366 3272 1645 3428 
Q 1925 3584 2291 3584 
Q 2894 3584 3203 3211 
Q 3513 2838 3513 2113 
z
" transform="scale(0.015625)"/>
      </defs>
      <use xlink:href="#DejaVuSans-4b"/>
      <use xlink:href="#DejaVuSans-69" transform="translate(65.576172 0)"/>
      <use xlink:href="#DejaVuSans-72" transform="translate(93.359375 0)"/>
      <use xlink:href="#DejaVuSans-6d" transform="translate(132.722656 0)"/>
      <use xlink:href="#DejaVuSans-69" transform="translate(230.134766 0)"/>
      <use xlink:href="#DejaVuSans-7a" transform="translate(257.917969 0)"/>
      <use xlink:href="#DejaVuSans-69" transform="translate(310.408203 0)"/>
      <use xlink:href="#DejaVuSans-5f" transform="translate(338.191406 0)"/>
      <use xlink:href="#DejaVuSans-50" transform="translate(388.191406 0)"/>
      <use xlink:href="#DejaVuSans-69" transform="translate(446.244141 0)"/>
      <use xlink:href="#DejaVuSans-73" transform="translate(474.027344 0)"/>
      <use xlink:href="#DejaVuSans-74" transform="translate(526.126953 0)"/>
      <use xlink:href="#DejaVuSans-61" transform="translate(565.335938 0)"/>
      <use xlink:href="#DejaVuSans-63" transform="translate(626.615234 0)"/>
      <use xlink:href="#DejaVuSans-68" transform="translate(681.595703 0)"/>
      <use xlink:href="#DejaVuSans-69" transform="translate(744.974609 0)"/>
      <use xlink:href="#DejaVuSans-6f" transform="translate(772.757812 0)"/>
     </g>
    </g>
    <g id="patch_7">
     <path d="M 53.6125 66.727188 
L 75.6125 66.727188 
L 75.6125 59.027188 
L 53.6125 59.027188 
z
" style="fill: #35b779; fill-opacity: 0.25; stroke: #35b779; stroke-linejoin: miter"/>
    </g>
    <g id="text_21">
     <!-- Siirt_Pistachio -->
     <g style="fill: #262626" transform="translate(84.4125 66.727188) scale(0.08 -0.08)">
      <defs>
       <path id="DejaVuSans-53" d="M 3425 4513 
L 3425 3897 
Q 3066 4069 2747 4153 
Q 2428 4238 2131 4238 
Q 1616 4238 1336 4038 
Q 1056 3838 1056 3469 
Q 1056 3159 1242 3001 
Q 1428 2844 1947 2747 
L 2328 2669 
Q 3034 2534 3370 2195 
Q 3706 1856 3706 1288 
Q 3706 609 3251 259 
Q 2797 -91 1919 -91 
Q 1588 -91 1214 -16 
Q 841 59 441 206 
L 441 856 
Q 825 641 1194 531 
Q 1563 422 1919 422 
Q 2459 422 2753 634 
Q 3047 847 3047 1241 
Q 3047 1584 2836 1778 
Q 2625 1972 2144 2069 
L 1759 2144 
Q 1053 2284 737 2584 
Q 422 2884 422 3419 
Q 422 4038 858 4394 
Q 1294 4750 2059 4750 
Q 2388 4750 2728 4690 
Q 3069 4631 3425 4513 
z
" transform="scale(0.015625)"/>
      </defs>
      <use xlink:href="#DejaVuSans-53"/>
      <use xlink:href="#DejaVuSans-69" transform="translate(63.476562 0)"/>
      <use xlink:href="#DejaVuSans-69" transform="translate(91.259766 0)"/>
      <use xlink:href="#DejaVuSans-72" transform="translate(119.042969 0)"/>
      <use xlink:href="#DejaVuSans-74" transform="translate(160.15625 0)"/>
      <use xlink:href="#DejaVuSans-5f" transform="translate(199.365234 0)"/>
      <use xlink:href="#DejaVuSans-50" transform="translate(249.365234 0)"/>
      <use xlink:href="#DejaVuSans-69" transform="translate(307.417969 0)"/>
      <use xlink:href="#DejaVuSans-73" transform="translate(335.201172 0)"/>
      <use xlink:href="#DejaVuSans-74" transform="translate(387.300781 0)"/>
      <use xlink:href="#DejaVuSans-61" transform="translate(426.509766 0)"/>
      <use xlink:href="#DejaVuSans-63" transform="translate(487.789062 0)"/>
      <use xlink:href="#DejaVuSans-68" transform="translate(542.769531 0)"/>
      <use xlink:href="#DejaVuSans-69" transform="translate(606.148438 0)"/>
      <use xlink:href="#DejaVuSans-6f" transform="translate(633.931641 0)"/>
     </g>
    </g>
   </g>
  </g>
 </g>
 <defs>
  <clipPath id="p31d1803c10">
   <rect x="43.7125" y="20.798438" width="285.590551" height="177.34252"/>
  </clipPath>
 </defs>
</svg>
