<?xml version="1.0" encoding="utf-8" standalone="no"?>
<!DOCTYPE svg PUBLIC "-//W3C//DTD SVG 1.1//EN"
  "http://www.w3.org/Graphics/SVG/1.1/DTD/svg11.dtd">
<svg xmlns:xlink="http://www.w3.org/1999/xlink" width="336.503051pt" height="234.548457pt" viewBox="0 0 336.503051 234.548457" xmlns="http://www.w3.org/2000/svg" version="1.1">
 <metadata>
  <rdf:RDF xmlns:dc="http://purl.org/dc/elements/1.1/" xmlns:cc="http://creativecommons.org/ns#" xmlns:rdf="http://www.w3.org/1999/02/22-rdf-syntax-ns#">
   <cc:Work>
    <dc:type rdf:resource="http://purl.org/dc/dcmitype/StillImage"/>
    <dc:date>2025-12-12T10:29:37.700497</dc:date>
    <dc:format>image/svg+xml</dc:format>
    <dc:creator>
     <cc:Agent>
      <dc:title>Matplotlib v3.10.7, https://matplotlib.org/</dc:title>
     </cc:Agent>
    </dc:creator>
   </cc:Work>
  </rdf:RDF>
 </metadata>
 <defs>
  <style type="text/css">*{stroke-linejoin: round; stroke-linecap: butt}</style>
 </defs>
 <g id="figure_1">
  <g id="patch_1">
   <path d="M 0 234.548457 
L 336.503051 234.548457 
L 336.503051 0 
L 0 0 
z
" style="fill: #ffffff"/>
  </g>
  <g id="axes_1">
   <g id="patch_2">
    <path d="M 43.7125 198.140957 
L 329.303051 198.140957 
L 329.303051 20.798438 
L 43.7125 20.798438 
z
" style="fill: #ffffff"/>
   </g>
   <g id="matplotlib.axis_1">
    <g id="xtick_1">
     <g id="line2d_1">
      <path d="M 56.693889 198.140957 
L 56.693889 20.798438 
" clip-path="url(#p7b0896f1d7)" style="fill: none; stroke: #cccccc; stroke-linecap: round"/>
     </g>
     <g id="text_1">
      <!-- 0.004 -->
      <g style="fill: #262626" transform="translate(45.242639 213.719707) scale(0.08 -0.08)">
       <defs>
        <path id="DejaVuSans-30" d="M 2034 4250 
Q 1547 4250 1301 3770 
Q 1056 3291 1056 2328 
Q 1056 1369 1301 889 
Q 1547 409 2034 409 
Q 2525 409 2770 889 
Q 3016 1369 3016 2328 
Q 3016 3291 2770 3770 
Q 2525 4250 2034 4250 
z
M 2034 4750 
Q 2819 4750 3233 4129 
Q 3647 3509 3647 2328 
Q 3647 1150 3233 529 
Q 2819 -91 2034 -91 
Q 1250 -91 836 529 
Q 422 1150 422 2328 
Q 422 3509 836 4129 
Q 1250 4750 2034 4750 
z
" transform="scale(0.015625)"/>
        <path id="DejaVuSans-2e" d="M 684 794 
L 1344 794 
L 1344 0 
L 684 0 
L 684 794 
z
" transform="scale(0.015625)"/>
        <path id="DejaVuSans-34" d="M 2419 4116 
L 825 1625 
L 2419 1625 
L 2419 4116 
z
M 2253 4666 
L 3047 4666 
L 3047 1625 
L 3713 1625 
L 3713 1100 
L 3047 1100 
L 3047 0 
L 2419 0 
L 2419 1100 
L 313 1100 
L 313 1709 
L 2253 4666 
z
" transform="scale(0.015625)"/>
       </defs>
       <use xlink:href="#DejaVuSans-30"/>
       <use xlink:href="#DejaVuSans-2e" transform="translate(63.623047 0)"/>
       <use xlink:href="#DejaVuSans-30" transform="translate(95.410156 0)"/>
       <use xlink:href="#DejaVuSans-30" transform="translate(159.033203 0)"/>
       <use xlink:href="#DejaVuSans-34" transform="translate(222.65625 0)"/>
      </g>
     </g>
    </g>
    <g id="xtick_2">
     <g id="line2d_2">
      <path d="M 113.754938 198.140957 
L 113.754938 20.798438 
" clip-path="url(#p7b0896f1d7)" style="fill: none; stroke: #cccccc; stroke-linecap: round"/>
     </g>
     <g id="text_2">
      <!-- 0.006 -->
      <g style="fill: #262626" transform="translate(102.303688 213.719707) scale(0.08 -0.08)">
       <defs>
        <path id="DejaVuSans-36" d="M 2113 2584 
Q 1688 2584 1439 2293 
Q 1191 2003 1191 1497 
Q 1191 994 1439 701 
Q 1688 409 2113 409 
Q 2538 409 2786 701 
Q 3034 994 3034 1497 
Q 3034 2003 2786 2293 
Q 2538 2584 2113 2584 
z
M 3366 4563 
L 3366 3988 
Q 3128 4100 2886 4159 
Q 2644 4219 2406 4219 
Q 1781 4219 1451 3797 
Q 1122 3375 1075 2522 
Q 1259 2794 1537 2939 
Q 1816 3084 2150 3084 
Q 2853 3084 3261 2657 
Q 3669 2231 3669 1497 
Q 3669 778 3244 343 
Q 2819 -91 2113 -91 
Q 1303 -91 875 529 
Q 447 1150 447 2328 
Q 447 3434 972 4092 
Q 1497 4750 2381 4750 
Q 2619 4750 2861 4703 
Q 3103 4656 3366 4563 
z
" transform="scale(0.015625)"/>
       </defs>
       <use xlink:href="#DejaVuSans-30"/>
       <use xlink:href="#DejaVuSans-2e" transform="translate(63.623047 0)"/>
       <use xlink:href="#DejaVuSans-30" transform="translate(95.410156 0)"/>
       <use xlink:href="#DejaVuSans-30" transform="translate(159.033203 0)"/>
       <use xlink:href="#DejaVuSans-36" transform="translate(222.65625 0)"/>
      </g>
     </g>
    </g>
    <g id="xtick_3">
     <g id="line2d_3">
      <path d="M 170.815987 198.140957 
L 170.815987 20.798438 
" clip-path="url(#p7b0896f1d7)" style="fill: none; stroke: #cccccc; stroke-linecap: round"/>
     </g>
     <g id="text_3">
      <!-- 0.008 -->
      <g style="fill: #262626" transform="translate(159.364737 213.719707) scale(0.08 -0.08)">
       <defs>
        <path id="DejaVuSans-38" d="M 2034 2216 
Q 1584 2216 1326 1975 
Q 1069 1734 1069 1313 
Q 1069 891 1326 650 
Q 1584 409 2034 409 
Q 2484 409 2743 651 
Q 3003 894 3003 1313 
Q 3003 1734 2745 1975 
Q 2488 2216 2034 2216 
z
M 1403 2484 
Q 997 2584 770 2862 
Q 544 3141 544 3541 
Q 544 4100 942 4425 
Q 1341 4750 2034 4750 
Q 2731 4750 3128 4425 
Q 3525 4100 3525 3541 
Q 3525 3141 3298 2862 
Q 3072 2584 2669 2484 
Q 3125 2378 3379 2068 
Q 3634 1759 3634 1313 
Q 3634 634 3220 271 
Q 2806 -91 2034 -91 
Q 1263 -91 848 271 
Q 434 634 434 1313 
Q 434 1759 690 2068 
Q 947 2378 1403 2484 
z
M 1172 3481 
Q 1172 3119 1398 2916 
Q 1625 2713 2034 2713 
Q 2441 2713 2670 2916 
Q 2900 3119 2900 3481 
Q 2900 3844 2670 4047 
Q 2441 4250 2034 4250 
Q 1625 4250 1398 4047 
Q 1172 3844 1172 3481 
z
" transform="scale(0.015625)"/>
       </defs>
       <use xlink:href="#DejaVuSans-30"/>
       <use xlink:href="#DejaVuSans-2e" transform="translate(63.623047 0)"/>
       <use xlink:href="#DejaVuSans-30" transform="translate(95.410156 0)"/>
       <use xlink:href="#DejaVuSans-30" transform="translate(159.033203 0)"/>
       <use xlink:href="#DejaVuSans-38" transform="translate(222.65625 0)"/>
      </g>
     </g>
    </g>
    <g id="xtick_4">
     <g id="line2d_4">
      <path d="M 227.877036 198.140957 
L 227.877036 20.798438 
" clip-path="url(#p7b0896f1d7)" style="fill: none; stroke: #cccccc; stroke-linecap: round"/>
     </g>
     <g id="text_4">
      <!-- 0.010 -->
      <g style="fill: #262626" transform="translate(216.425786 213.719707) scale(0.08 -0.08)">
       <defs>
        <path id="DejaVuSans-31" d="M 794 531 
L 1825 531 
L 1825 4091 
L 703 3866 
L 703 4441 
L 1819 4666 
L 2450 4666 
L 2450 531 
L 3481 531 
L 3481 0 
L 794 0 
L 794 531 
z
" transform="scale(0.015625)"/>
       </defs>
       <use xlink:href="#DejaVuSans-30"/>
       <use xlink:href="#DejaVuSans-2e" transform="translate(63.623047 0)"/>
       <use xlink:href="#DejaVuSans-30" transform="translate(95.410156 0)"/>
       <use xlink:href="#DejaVuSans-31" transform="translate(159.033203 0)"/>
       <use xlink:href="#DejaVuSans-30" transform="translate(222.65625 0)"/>
      </g>
     </g>
    </g>
    <g id="xtick_5">
     <g id="line2d_5">
      <path d="M 284.938085 198.140957 
L 284.938085 20.798438 
" clip-path="url(#p7b0896f1d7)" style="fill: none; stroke: #cccccc; stroke-linecap: round"/>
     </g>
     <g id="text_5">
      <!-- 0.012 -->
      <g style="fill: #262626" transform="translate(273.486835 213.719707) scale(0.08 -0.08)">
       <defs>
        <path id="DejaVuSans-32" d="M 1228 531 
L 3431 531 
L 3431 0 
L 469 0 
L 469 531 
Q 828 903 1448 1529 
Q 2069 2156 2228 2338 
Q 2531 2678 2651 2914 
Q 2772 3150 2772 3378 
Q 2772 3750 2511 3984 
Q 2250 4219 1831 4219 
Q 1534 4219 1204 4116 
Q 875 4013 500 3803 
L 500 4441 
Q 881 4594 1212 4672 
Q 1544 4750 1819 4750 
Q 2544 4750 2975 4387 
Q 3406 4025 3406 3419 
Q 3406 3131 3298 2873 
Q 3191 2616 2906 2266 
Q 2828 2175 2409 1742 
Q 1991 1309 1228 531 
z
" transform="scale(0.015625)"/>
       </defs>
       <use xlink:href="#DejaVuSans-30"/>
       <use xlink:href="#DejaVuSans-2e" transform="translate(63.623047 0)"/>
       <use xlink:href="#DejaVuSans-30" transform="translate(95.410156 0)"/>
       <use xlink:href="#DejaVuSans-31" transform="translate(159.033203 0)"/>
       <use xlink:href="#DejaVuSans-32" transform="translate(222.65625 0)"/>
      </g>
     </g>
    </g>
    <g id="text_6">
     <!-- shapefactor_1 -->
     <g style="fill: #262626" transform="translate(158.173401 225.462207) scale(0.08 -0.08)">
      <defs>
       <path id="DejaVuSans-73" d="M 2834 3397 
L 2834 2853 
Q 2591 2978 2328 3040 
Q 2066 3103 1784 3103 
Q 1356 3103 1142 2972 
Q 928 2841 928 2578 
Q 928 2378 1081 2264 
Q 1234 2150 1697 2047 
L 1894 2003 
Q 2506 1872 2764 1633 
Q 3022 1394 3022 966 
Q 3022 478 2636 193 
Q 2250 -91 1575 -91 
Q 1294 -91 989 -36 
Q 684 19 347 128 
L 347 722 
Q 666 556 975 473 
Q 1284 391 1588 391 
Q 1994 391 2212 530 
Q 2431 669 2431 922 
Q 2431 1156 2273 1281 
Q 2116 1406 1581 1522 
L 1381 1569 
Q 847 1681 609 1914 
Q 372 2147 372 2553 
Q 372 3047 722 3315 
Q 1072 3584 1716 3584 
Q 2034 3584 2315 3537 
Q 2597 3491 2834 3397 
z
" transform="scale(0.015625)"/>
       <path id="DejaVuSans-68" d="M 3513 2113 
L 3513 0 
L 2938 0 
L 2938 2094 
Q 2938 2591 2744 2837 
Q 2550 3084 2163 3084 
Q 1697 3084 1428 2787 
Q 1159 2491 1159 1978 
L 1159 0 
L 581 0 
L 581 4863 
L 1159 4863 
L 1159 2956 
Q 1366 3272 1645 3428 
Q 1925 3584 2291 3584 
Q 2894 3584 3203 3211 
Q 3513 2838 3513 2113 
z
" transform="scale(0.015625)"/>
       <path id="DejaVuSans-61" d="M 2194 1759 
Q 1497 1759 1228 1600 
Q 959 1441 959 1056 
Q 959 750 1161 570 
Q 1363 391 1709 391 
Q 2188 391 2477 730 
Q 2766 1069 2766 1631 
L 2766 1759 
L 2194 1759 
z
M 3341 1997 
L 3341 0 
L 2766 0 
L 2766 531 
Q 2569 213 2275 61 
Q 1981 -91 1556 -91 
Q 1019 -91 701 211 
Q 384 513 384 1019 
Q 384 1609 779 1909 
Q 1175 2209 1959 2209 
L 2766 2209 
L 2766 2266 
Q 2766 2663 2505 2880 
Q 2244 3097 1772 3097 
Q 1472 3097 1187 3025 
Q 903 2953 641 2809 
L 641 3341 
Q 956 3463 1253 3523 
Q 1550 3584 1831 3584 
Q 2591 3584 2966 3190 
Q 3341 2797 3341 1997 
z
" transform="scale(0.015625)"/>
       <path id="DejaVuSans-70" d="M 1159 525 
L 1159 -1331 
L 581 -1331 
L 581 3500 
L 1159 3500 
L 1159 2969 
Q 1341 3281 1617 3432 
Q 1894 3584 2278 3584 
Q 2916 3584 3314 3078 
Q 3713 2572 3713 1747 
Q 3713 922 3314 415 
Q 2916 -91 2278 -91 
Q 1894 -91 1617 61 
Q 1341 213 1159 525 
z
M 3116 1747 
Q 3116 2381 2855 2742 
Q 2594 3103 2138 3103 
Q 1681 3103 1420 2742 
Q 1159 2381 1159 1747 
Q 1159 1113 1420 752 
Q 1681 391 2138 391 
Q 2594 391 2855 752 
Q 3116 1113 3116 1747 
z
" transform="scale(0.015625)"/>
       <path id="DejaVuSans-65" d="M 3597 1894 
L 3597 1613 
L 953 1613 
Q 991 1019 1311 708 
Q 1631 397 2203 397 
Q 2534 397 2845 478 
Q 3156 559 3463 722 
L 3463 178 
Q 3153 47 2828 -22 
Q 2503 -91 2169 -91 
Q 1331 -91 842 396 
Q 353 884 353 1716 
Q 353 2575 817 3079 
Q 1281 3584 2069 3584 
Q 2775 3584 3186 3129 
Q 3597 2675 3597 1894 
z
M 3022 2063 
Q 3016 2534 2758 2815 
Q 2500 3097 2075 3097 
Q 1594 3097 1305 2825 
Q 1016 2553 972 2059 
L 3022 2063 
z
" transform="scale(0.015625)"/>
       <path id="DejaVuSans-66" d="M 2375 4863 
L 2375 4384 
L 1825 4384 
Q 1516 4384 1395 4259 
Q 1275 4134 1275 3809 
L 1275 3500 
L 2222 3500 
L 2222 3053 
L 1275 3053 
L 1275 0 
L 697 0 
L 697 3053 
L 147 3053 
L 147 3500 
L 697 3500 
L 697 3744 
Q 697 4328 969 4595 
Q 1241 4863 1831 4863 
L 2375 4863 
z
" transform="scale(0.015625)"/>
       <path id="DejaVuSans-63" d="M 3122 3366 
L 3122 2828 
Q 2878 2963 2633 3030 
Q 2388 3097 2138 3097 
Q 1578 3097 1268 2742 
Q 959 2388 959 1747 
Q 959 1106 1268 751 
Q 1578 397 2138 397 
Q 2388 397 2633 464 
Q 2878 531 3122 666 
L 3122 134 
Q 2881 22 2623 -34 
Q 2366 -91 2075 -91 
Q 1284 -91 818 406 
Q 353 903 353 1747 
Q 353 2603 823 3093 
Q 1294 3584 2113 3584 
Q 2378 3584 2631 3529 
Q 2884 3475 3122 3366 
z
" transform="scale(0.015625)"/>
       <path id="DejaVuSans-74" d="M 1172 4494 
L 1172 3500 
L 2356 3500 
L 2356 3053 
L 1172 3053 
L 1172 1153 
Q 1172 725 1289 603 
Q 1406 481 1766 481 
L 2356 481 
L 2356 0 
L 1766 0 
Q 1100 0 847 248 
Q 594 497 594 1153 
L 594 3053 
L 172 3053 
L 172 3500 
L 594 3500 
L 594 4494 
L 1172 4494 
z
" transform="scale(0.015625)"/>
       <path id="DejaVuSans-6f" d="M 1959 3097 
Q 1497 3097 1228 2736 
Q 959 2375 959 1747 
Q 959 1119 1226 758 
Q 1494 397 1959 397 
Q 2419 397 2687 759 
Q 2956 1122 2956 1747 
Q 2956 2369 2687 2733 
Q 2419 3097 1959 3097 
z
M 1959 3584 
Q 2709 3584 3137 3096 
Q 3566 2609 3566 1747 
Q 3566 888 3137 398 
Q 2709 -91 1959 -91 
Q 1206 -91 779 398 
Q 353 888 353 1747 
Q 353 2609 779 3096 
Q 1206 3584 1959 3584 
z
" transform="scale(0.015625)"/>
       <path id="DejaVuSans-72" d="M 2631 2963 
Q 2534 3019 2420 3045 
Q 2306 3072 2169 3072 
Q 1681 3072 1420 2755 
Q 1159 2438 1159 1844 
L 1159 0 
L 581 0 
L 581 3500 
L 1159 3500 
L 1159 2956 
Q 1341 3275 1631 3429 
Q 1922 3584 2338 3584 
Q 2397 3584 2469 3576 
Q 2541 3569 2628 3553 
L 2631 2963 
z
" transform="scale(0.015625)"/>
       <path id="DejaVuSans-5f" d="M 3263 -1063 
L 3263 -1509 
L -63 -1509 
L -63 -1063 
L 3263 -1063 
z
" transform="scale(0.015625)"/>
      </defs>
      <use xlink:href="#DejaVuSans-73"/>
      <use xlink:href="#DejaVuSans-68" transform="translate(52.099609 0)"/>
      <use xlink:href="#DejaVuSans-61" transform="translate(115.478516 0)"/>
      <use xlink:href="#DejaVuSans-70" transform="translate(176.757812 0)"/>
      <use xlink:href="#DejaVuSans-65" transform="translate(240.234375 0)"/>
      <use xlink:href="#DejaVuSans-66" transform="translate(301.757812 0)"/>
      <use xlink:href="#DejaVuSans-61" transform="translate(336.962891 0)"/>
      <use xlink:href="#DejaVuSans-63" transform="translate(398.242188 0)"/>
      <use xlink:href="#DejaVuSans-74" transform="translate(453.222656 0)"/>
      <use xlink:href="#DejaVuSans-6f" transform="translate(492.431641 0)"/>
      <use xlink:href="#DejaVuSans-72" transform="translate(553.613281 0)"/>
      <use xlink:href="#DejaVuSans-5f" transform="translate(594.726562 0)"/>
      <use xlink:href="#DejaVuSans-31" transform="translate(644.726562 0)"/>
     </g>
    </g>
   </g>
   <g id="matplotlib.axis_2">
    <g id="ytick_1">
     <g id="line2d_6">
      <path d="M 43.7125 198.140957 
L 329.303051 198.140957 
" clip-path="url(#p7b0896f1d7)" style="fill: none; stroke: #cccccc; stroke-linecap: round"/>
     </g>
     <g id="text_7">
      <!-- 0 -->
      <g style="fill: #262626" transform="translate(29.1225 201.180332) scale(0.08 -0.08)">
       <use xlink:href="#DejaVuSans-30"/>
      </g>
     </g>
    </g>
    <g id="ytick_2">
     <g id="line2d_7">
      <path d="M 43.7125 178.129389 
L 329.303051 178.129389 
" clip-path="url(#p7b0896f1d7)" style="fill: none; stroke: #cccccc; stroke-linecap: round"/>
     </g>
     <g id="text_8">
      <!-- 25 -->
      <g style="fill: #262626" transform="translate(24.0325 181.168764) scale(0.08 -0.08)">
       <defs>
        <path id="DejaVuSans-35" d="M 691 4666 
L 3169 4666 
L 3169 4134 
L 1269 4134 
L 1269 2991 
Q 1406 3038 1543 3061 
Q 1681 3084 1819 3084 
Q 2600 3084 3056 2656 
Q 3513 2228 3513 1497 
Q 3513 744 3044 326 
Q 2575 -91 1722 -91 
Q 1428 -91 1123 -41 
Q 819 9 494 109 
L 494 744 
Q 775 591 1075 516 
Q 1375 441 1709 441 
Q 2250 441 2565 725 
Q 2881 1009 2881 1497 
Q 2881 1984 2565 2268 
Q 2250 2553 1709 2553 
Q 1456 2553 1204 2497 
Q 953 2441 691 2322 
L 691 4666 
z
" transform="scale(0.015625)"/>
       </defs>
       <use xlink:href="#DejaVuSans-32"/>
       <use xlink:href="#DejaVuSans-35" transform="translate(63.623047 0)"/>
      </g>
     </g>
    </g>
    <g id="ytick_3">
     <g id="line2d_8">
      <path d="M 43.7125 158.11782 
L 329.303051 158.11782 
" clip-path="url(#p7b0896f1d7)" style="fill: none; stroke: #cccccc; stroke-linecap: round"/>
     </g>
     <g id="text_9">
      <!-- 50 -->
      <g style="fill: #262626" transform="translate(24.0325 161.157195) scale(0.08 -0.08)">
       <use xlink:href="#DejaVuSans-35"/>
       <use xlink:href="#DejaVuSans-30" transform="translate(63.623047 0)"/>
      </g>
     </g>
    </g>
    <g id="ytick_4">
     <g id="line2d_9">
      <path d="M 43.7125 138.106252 
L 329.303051 138.106252 
" clip-path="url(#p7b0896f1d7)" style="fill: none; stroke: #cccccc; stroke-linecap: round"/>
     </g>
     <g id="text_10">
      <!-- 75 -->
      <g style="fill: #262626" transform="translate(24.0325 141.145627) scale(0.08 -0.08)">
       <defs>
        <path id="DejaVuSans-37" d="M 525 4666 
L 3525 4666 
L 3525 4397 
L 1831 0 
L 1172 0 
L 2766 4134 
L 525 4134 
L 525 4666 
z
" transform="scale(0.015625)"/>
       </defs>
       <use xlink:href="#DejaVuSans-37"/>
       <use xlink:href="#DejaVuSans-35" transform="translate(63.623047 0)"/>
      </g>
     </g>
    </g>
    <g id="ytick_5">
     <g id="line2d_10">
      <path d="M 43.7125 118.094683 
L 329.303051 118.094683 
" clip-path="url(#p7b0896f1d7)" style="fill: none; stroke: #cccccc; stroke-linecap: round"/>
     </g>
     <g id="text_11">
      <!-- 100 -->
      <g style="fill: #262626" transform="translate(18.9425 121.134058) scale(0.08 -0.08)">
       <use xlink:href="#DejaVuSans-31"/>
       <use xlink:href="#DejaVuSans-30" transform="translate(63.623047 0)"/>
       <use xlink:href="#DejaVuSans-30" transform="translate(127.246094 0)"/>
      </g>
     </g>
    </g>
    <g id="ytick_6">
     <g id="line2d_11">
      <path d="M 43.7125 98.083115 
L 329.303051 98.083115 
" clip-path="url(#p7b0896f1d7)" style="fill: none; stroke: #cccccc; stroke-linecap: round"/>
     </g>
     <g id="text_12">
      <!-- 125 -->
      <g style="fill: #262626" transform="translate(18.9425 101.12249) scale(0.08 -0.08)">
       <use xlink:href="#DejaVuSans-31"/>
       <use xlink:href="#DejaVuSans-32" transform="translate(63.623047 0)"/>
       <use xlink:href="#DejaVuSans-35" transform="translate(127.246094 0)"/>
      </g>
     </g>
    </g>
    <g id="ytick_7">
     <g id="line2d_12">
      <path d="M 43.7125 78.071546 
L 329.303051 78.071546 
" clip-path="url(#p7b0896f1d7)" style="fill: none; stroke: #cccccc; stroke-linecap: round"/>
     </g>
     <g id="text_13">
      <!-- 150 -->
      <g style="fill: #262626" transform="translate(18.9425 81.110921) scale(0.08 -0.08)">
       <use xlink:href="#DejaVuSans-31"/>
       <use xlink:href="#DejaVuSans-35" transform="translate(63.623047 0)"/>
       <use xlink:href="#DejaVuSans-30" transform="translate(127.246094 0)"/>
      </g>
     </g>
    </g>
    <g id="ytick_8">
     <g id="line2d_13">
      <path d="M 43.7125 58.059978 
L 329.303051 58.059978 
" clip-path="url(#p7b0896f1d7)" style="fill: none; stroke: #cccccc; stroke-linecap: round"/>
     </g>
     <g id="text_14">
      <!-- 175 -->
      <g style="fill: #262626" transform="translate(18.9425 61.099353) scale(0.08 -0.08)">
       <use xlink:href="#DejaVuSans-31"/>
       <use xlink:href="#DejaVuSans-37" transform="translate(63.623047 0)"/>
       <use xlink:href="#DejaVuSans-35" transform="translate(127.246094 0)"/>
      </g>
     </g>
    </g>
    <g id="ytick_9">
     <g id="line2d_14">
      <path d="M 43.7125 38.04841 
L 329.303051 38.04841 
" clip-path="url(#p7b0896f1d7)" style="fill: none; stroke: #cccccc; stroke-linecap: round"/>
     </g>
     <g id="text_15">
      <!-- 200 -->
      <g style="fill: #262626" transform="translate(18.9425 41.087785) scale(0.08 -0.08)">
       <use xlink:href="#DejaVuSans-32"/>
       <use xlink:href="#DejaVuSans-30" transform="translate(63.623047 0)"/>
       <use xlink:href="#DejaVuSans-30" transform="translate(127.246094 0)"/>
      </g>
     </g>
    </g>
    <g id="text_16">
     <!-- Count -->
     <g style="fill: #262626" transform="translate(13.27875 121.348447) rotate(-90) scale(0.08 -0.08)">
      <defs>
       <path id="DejaVuSans-43" d="M 4122 4306 
L 4122 3641 
Q 3803 3938 3442 4084 
Q 3081 4231 2675 4231 
Q 1875 4231 1450 3742 
Q 1025 3253 1025 2328 
Q 1025 1406 1450 917 
Q 1875 428 2675 428 
Q 3081 428 3442 575 
Q 3803 722 4122 1019 
L 4122 359 
Q 3791 134 3420 21 
Q 3050 -91 2638 -91 
Q 1578 -91 968 557 
Q 359 1206 359 2328 
Q 359 3453 968 4101 
Q 1578 4750 2638 4750 
Q 3056 4750 3426 4639 
Q 3797 4528 4122 4306 
z
" transform="scale(0.015625)"/>
       <path id="DejaVuSans-75" d="M 544 1381 
L 544 3500 
L 1119 3500 
L 1119 1403 
Q 1119 906 1312 657 
Q 1506 409 1894 409 
Q 2359 409 2629 706 
Q 2900 1003 2900 1516 
L 2900 3500 
L 3475 3500 
L 3475 0 
L 2900 0 
L 2900 538 
Q 2691 219 2414 64 
Q 2138 -91 1772 -91 
Q 1169 -91 856 284 
Q 544 659 544 1381 
z
M 1991 3584 
L 1991 3584 
z
" transform="scale(0.015625)"/>
       <path id="DejaVuSans-6e" d="M 3513 2113 
L 3513 0 
L 2938 0 
L 2938 2094 
Q 2938 2591 2744 2837 
Q 2550 3084 2163 3084 
Q 1697 3084 1428 2787 
Q 1159 2491 1159 1978 
L 1159 0 
L 581 0 
L 581 3500 
L 1159 3500 
L 1159 2956 
Q 1366 3272 1645 3428 
Q 1925 3584 2291 3584 
Q 2894 3584 3203 3211 
Q 3513 2838 3513 2113 
z
" transform="scale(0.015625)"/>
      </defs>
      <use xlink:href="#DejaVuSans-43"/>
      <use xlink:href="#DejaVuSans-6f" transform="translate(69.824219 0)"/>
      <use xlink:href="#DejaVuSans-75" transform="translate(131.005859 0)"/>
      <use xlink:href="#DejaVuSans-6e" transform="translate(194.384766 0)"/>
      <use xlink:href="#DejaVuSans-74" transform="translate(257.763672 0)"/>
     </g>
    </g>
   </g>
   <g id="FillBetweenPolyCollection_1">
    <defs>
     <path id="ma0581479c6" d="M 56.693889 -43.611665 
L 56.693889 -36.4075 
L 60.627643 -36.4075 
L 60.627643 -36.4075 
L 64.561397 -36.4075 
L 64.561397 -36.4075 
L 68.495151 -36.4075 
L 68.495151 -36.4075 
L 72.428905 -36.4075 
L 72.428905 -36.4075 
L 76.362659 -36.4075 
L 76.362659 -36.4075 
L 80.296414 -36.4075 
L 80.296414 -36.4075 
L 84.230168 -36.4075 
L 84.230168 -36.4075 
L 88.163922 -36.4075 
L 88.163922 -36.4075 
L 92.097676 -36.4075 
L 92.097676 -36.4075 
L 96.03143 -36.4075 
L 96.03143 -36.4075 
L 99.965184 -36.4075 
L 99.965184 -36.4075 
L 103.898938 -36.4075 
L 103.898938 -36.4075 
L 107.832693 -36.4075 
L 107.832693 -36.4075 
L 111.766447 -36.4075 
L 111.766447 -36.4075 
L 115.700201 -36.4075 
L 115.700201 -36.4075 
L 119.633955 -36.4075 
L 119.633955 -36.4075 
L 123.567709 -36.4075 
L 123.567709 -36.4075 
L 127.501463 -36.4075 
L 127.501463 -36.4075 
L 131.435218 -36.4075 
L 131.435218 -36.4075 
L 135.368972 -36.4075 
L 135.368972 -36.4075 
L 139.302726 -36.4075 
L 139.302726 -36.4075 
L 143.23648 -36.4075 
L 143.23648 -36.4075 
L 147.170234 -36.4075 
L 147.170234 -36.4075 
L 151.103988 -36.4075 
L 151.103988 -36.4075 
L 155.037742 -36.4075 
L 155.037742 -36.4075 
L 158.971497 -36.4075 
L 158.971497 -36.4075 
L 162.905251 -36.4075 
L 162.905251 -36.4075 
L 166.839005 -36.4075 
L 166.839005 -36.4075 
L 170.772759 -36.4075 
L 170.772759 -36.4075 
L 174.706513 -36.4075 
L 174.706513 -36.4075 
L 178.640267 -36.4075 
L 178.640267 -36.4075 
L 182.574021 -36.4075 
L 182.574021 -36.4075 
L 186.507776 -36.4075 
L 186.507776 -36.4075 
L 190.44153 -36.4075 
L 190.44153 -36.4075 
L 194.375284 -36.4075 
L 194.375284 -36.4075 
L 198.309038 -36.4075 
L 198.309038 -36.4075 
L 202.242792 -36.4075 
L 202.242792 -36.4075 
L 206.176546 -36.4075 
L 206.176546 -36.4075 
L 210.1103 -36.4075 
L 210.1103 -36.4075 
L 214.044055 -36.4075 
L 214.044055 -36.4075 
L 217.977809 -36.4075 
L 217.977809 -36.4075 
L 221.911563 -36.4075 
L 221.911563 -36.4075 
L 225.845317 -36.4075 
L 225.845317 -36.4075 
L 229.779071 -36.4075 
L 229.779071 -36.4075 
L 233.712825 -36.4075 
L 233.712825 -36.4075 
L 237.64658 -36.4075 
L 237.64658 -36.4075 
L 241.580334 -36.4075 
L 241.580334 -36.4075 
L 245.514088 -36.4075 
L 245.514088 -36.4075 
L 249.447842 -36.4075 
L 249.447842 -36.4075 
L 253.381596 -36.4075 
L 253.381596 -36.4075 
L 257.31535 -36.4075 
L 257.31535 -36.4075 
L 261.249104 -36.4075 
L 261.249104 -36.4075 
L 265.182859 -36.4075 
L 265.182859 -36.4075 
L 269.116613 -36.4075 
L 269.116613 -36.4075 
L 273.050367 -36.4075 
L 273.050367 -36.4075 
L 276.984121 -36.4075 
L 276.984121 -36.4075 
L 280.917875 -36.4075 
L 280.917875 -36.4075 
L 284.851629 -36.4075 
L 284.851629 -36.4075 
L 288.785383 -36.4075 
L 288.785383 -36.4075 
L 292.719138 -36.4075 
L 292.719138 -36.4075 
L 296.652892 -36.4075 
L 296.652892 -36.4075 
L 300.586646 -36.4075 
L 300.586646 -36.4075 
L 304.5204 -36.4075 
L 304.5204 -36.4075 
L 308.454154 -36.4075 
L 308.454154 -36.4075 
L 312.387908 -36.4075 
L 312.387908 -36.4075 
L 316.321662 -36.4075 
L 316.321662 -36.4075 
L 316.321662 -36.4075 
L 316.321662 -36.4075 
L 316.321662 -36.4075 
L 312.387908 -36.4075 
L 312.387908 -36.4075 
L 308.454154 -36.4075 
L 308.454154 -36.4075 
L 304.5204 -36.4075 
L 304.5204 -36.4075 
L 300.586646 -36.4075 
L 300.586646 -36.4075 
L 296.652892 -36.4075 
L 296.652892 -36.4075 
L 292.719138 -36.4075 
L 292.719138 -36.4075 
L 288.785383 -36.4075 
L 288.785383 -36.4075 
L 284.851629 -36.4075 
L 284.851629 -36.4075 
L 280.917875 -36.4075 
L 280.917875 -36.4075 
L 276.984121 -36.4075 
L 276.984121 -36.4075 
L 273.050367 -36.4075 
L 273.050367 -36.4075 
L 269.116613 -36.4075 
L 269.116613 -36.4075 
L 265.182859 -36.4075 
L 265.182859 -36.4075 
L 261.249104 -36.4075 
L 261.249104 -36.4075 
L 257.31535 -36.4075 
L 257.31535 -36.4075 
L 253.381596 -36.4075 
L 253.381596 -36.4075 
L 249.447842 -36.4075 
L 249.447842 -36.4075 
L 245.514088 -36.4075 
L 245.514088 -36.4075 
L 241.580334 -36.4075 
L 241.580334 -36.4075 
L 237.64658 -36.4075 
L 237.64658 -36.4075 
L 233.712825 -36.4075 
L 233.712825 -36.4075 
L 229.779071 -36.4075 
L 229.779071 -36.4075 
L 225.845317 -36.4075 
L 225.845317 -36.4075 
L 221.911563 -36.4075 
L 221.911563 -36.4075 
L 217.977809 -36.4075 
L 217.977809 -36.4075 
L 214.044055 -36.4075 
L 214.044055 -36.4075 
L 210.1103 -36.4075 
L 210.1103 -36.4075 
L 206.176546 -36.4075 
L 206.176546 -36.4075 
L 202.242792 -36.4075 
L 202.242792 -36.4075 
L 198.309038 -36.4075 
L 198.309038 -36.4075 
L 194.375284 -36.4075 
L 194.375284 -36.4075 
L 190.44153 -36.4075 
L 190.44153 -36.4075 
L 186.507776 -36.4075 
L 186.507776 -36.4075 
L 182.574021 -36.4075 
L 182.574021 -36.4075 
L 178.640267 -36.4075 
L 178.640267 -36.4075 
L 174.706513 -36.4075 
L 174.706513 -36.4075 
L 170.772759 -36.4075 
L 170.772759 -36.4075 
L 166.839005 -36.4075 
L 166.839005 -36.4075 
L 162.905251 -36.4075 
L 162.905251 -37.207963 
L 158.971497 -37.207963 
L 158.971497 -36.4075 
L 155.037742 -36.4075 
L 155.037742 -36.4075 
L 151.103988 -36.4075 
L 151.103988 -36.4075 
L 147.170234 -36.4075 
L 147.170234 -36.4075 
L 143.23648 -36.4075 
L 143.23648 -38.008425 
L 139.302726 -38.008425 
L 139.302726 -37.207963 
L 135.368972 -37.207963 
L 135.368972 -36.4075 
L 131.435218 -36.4075 
L 131.435218 -39.609351 
L 127.501463 -39.609351 
L 127.501463 -39.609351 
L 123.567709 -39.609351 
L 123.567709 -38.808888 
L 119.633955 -38.808888 
L 119.633955 -43.611665 
L 115.700201 -43.611665 
L 115.700201 -49.214904 
L 111.766447 -49.214904 
L 111.766447 -55.618606 
L 107.832693 -55.618606 
L 107.832693 -57.219531 
L 103.898938 -57.219531 
L 103.898938 -70.827398 
L 99.965184 -70.827398 
L 99.965184 -124.458401 
L 96.03143 -124.458401 
L 96.03143 -110.850535 
L 92.097676 -110.850535 
L 92.097676 -94.84128 
L 88.163922 -94.84128 
L 88.163922 -178.089405 
L 84.230168 -178.089405 
L 84.230168 -97.242668 
L 80.296414 -97.242668 
L 80.296414 -145.270432 
L 76.362659 -145.270432 
L 76.362659 -71.62786 
L 72.428905 -71.62786 
L 72.428905 -55.618606 
L 68.495151 -55.618606 
L 68.495151 -66.825084 
L 64.561397 -66.825084 
L 64.561397 -38.808888 
L 60.627643 -38.808888 
L 60.627643 -43.611665 
L 56.693889 -43.611665 
z
" style="stroke: #35b779"/>
    </defs>
    <g clip-path="url(#p7b0896f1d7)">
     <use xlink:href="#ma0581479c6" x="0" y="234.548457" style="fill: #35b779; fill-opacity: 0.25; stroke: #35b779"/>
    </g>
   </g>
   <g id="FillBetweenPolyCollection_2">
    <defs>
     <path id="m0ec4f69256" d="M 56.693889 -36.4075 
L 56.693889 -36.4075 
L 60.627643 -36.4075 
L 60.627643 -36.4075 
L 64.561397 -36.4075 
L 64.561397 -36.4075 
L 68.495151 -36.4075 
L 68.495151 -36.4075 
L 72.428905 -36.4075 
L 72.428905 -36.4075 
L 76.362659 -36.4075 
L 76.362659 -36.4075 
L 80.296414 -36.4075 
L 80.296414 -36.4075 
L 84.230168 -36.4075 
L 84.230168 -36.4075 
L 88.163922 -36.4075 
L 88.163922 -36.4075 
L 92.097676 -36.4075 
L 92.097676 -36.4075 
L 96.03143 -36.4075 
L 96.03143 -36.4075 
L 99.965184 -36.4075 
L 99.965184 -36.4075 
L 103.898938 -36.4075 
L 103.898938 -36.4075 
L 107.832693 -36.4075 
L 107.832693 -36.4075 
L 111.766447 -36.4075 
L 111.766447 -36.4075 
L 115.700201 -36.4075 
L 115.700201 -36.4075 
L 119.633955 -36.4075 
L 119.633955 -36.4075 
L 123.567709 -36.4075 
L 123.567709 -36.4075 
L 127.501463 -36.4075 
L 127.501463 -36.4075 
L 131.435218 -36.4075 
L 131.435218 -36.4075 
L 135.368972 -36.4075 
L 135.368972 -36.4075 
L 139.302726 -36.4075 
L 139.302726 -36.4075 
L 143.23648 -36.4075 
L 143.23648 -36.4075 
L 147.170234 -36.4075 
L 147.170234 -36.4075 
L 151.103988 -36.4075 
L 151.103988 -36.4075 
L 155.037742 -36.4075 
L 155.037742 -36.4075 
L 158.971497 -36.4075 
L 158.971497 -36.4075 
L 162.905251 -36.4075 
L 162.905251 -36.4075 
L 166.839005 -36.4075 
L 166.839005 -36.4075 
L 170.772759 -36.4075 
L 170.772759 -36.4075 
L 174.706513 -36.4075 
L 174.706513 -36.4075 
L 178.640267 -36.4075 
L 178.640267 -36.4075 
L 182.574021 -36.4075 
L 182.574021 -36.4075 
L 186.507776 -36.4075 
L 186.507776 -36.4075 
L 190.44153 -36.4075 
L 190.44153 -36.4075 
L 194.375284 -36.4075 
L 194.375284 -36.4075 
L 198.309038 -36.4075 
L 198.309038 -36.4075 
L 202.242792 -36.4075 
L 202.242792 -36.4075 
L 206.176546 -36.4075 
L 206.176546 -36.4075 
L 210.1103 -36.4075 
L 210.1103 -36.4075 
L 214.044055 -36.4075 
L 214.044055 -36.4075 
L 217.977809 -36.4075 
L 217.977809 -36.4075 
L 221.911563 -36.4075 
L 221.911563 -36.4075 
L 225.845317 -36.4075 
L 225.845317 -36.4075 
L 229.779071 -36.4075 
L 229.779071 -36.4075 
L 233.712825 -36.4075 
L 233.712825 -36.4075 
L 237.64658 -36.4075 
L 237.64658 -36.4075 
L 241.580334 -36.4075 
L 241.580334 -36.4075 
L 245.514088 -36.4075 
L 245.514088 -36.4075 
L 249.447842 -36.4075 
L 249.447842 -36.4075 
L 253.381596 -36.4075 
L 253.381596 -36.4075 
L 257.31535 -36.4075 
L 257.31535 -36.4075 
L 261.249104 -36.4075 
L 261.249104 -36.4075 
L 265.182859 -36.4075 
L 265.182859 -36.4075 
L 269.116613 -36.4075 
L 269.116613 -36.4075 
L 273.050367 -36.4075 
L 273.050367 -36.4075 
L 276.984121 -36.4075 
L 276.984121 -36.4075 
L 280.917875 -36.4075 
L 280.917875 -36.4075 
L 284.851629 -36.4075 
L 284.851629 -36.4075 
L 288.785383 -36.4075 
L 288.785383 -36.4075 
L 292.719138 -36.4075 
L 292.719138 -36.4075 
L 296.652892 -36.4075 
L 296.652892 -36.4075 
L 300.586646 -36.4075 
L 300.586646 -36.4075 
L 304.5204 -36.4075 
L 304.5204 -36.4075 
L 308.454154 -36.4075 
L 308.454154 -36.4075 
L 312.387908 -36.4075 
L 312.387908 -36.4075 
L 316.321662 -36.4075 
L 316.321662 -36.4075 
L 316.321662 -37.207963 
L 316.321662 -37.207963 
L 316.321662 -37.207963 
L 312.387908 -37.207963 
L 312.387908 -36.4075 
L 308.454154 -36.4075 
L 308.454154 -36.4075 
L 304.5204 -36.4075 
L 304.5204 -36.4075 
L 300.586646 -36.4075 
L 300.586646 -36.4075 
L 296.652892 -36.4075 
L 296.652892 -36.4075 
L 292.719138 -36.4075 
L 292.719138 -36.4075 
L 288.785383 -36.4075 
L 288.785383 -38.008425 
L 284.851629 -38.008425 
L 284.851629 -36.4075 
L 280.917875 -36.4075 
L 280.917875 -36.4075 
L 276.984121 -36.4075 
L 276.984121 -36.4075 
L 273.050367 -36.4075 
L 273.050367 -37.207963 
L 269.116613 -37.207963 
L 269.116613 -37.207963 
L 265.182859 -37.207963 
L 265.182859 -36.4075 
L 261.249104 -36.4075 
L 261.249104 -36.4075 
L 257.31535 -36.4075 
L 257.31535 -36.4075 
L 253.381596 -36.4075 
L 253.381596 -36.4075 
L 249.447842 -36.4075 
L 249.447842 -36.4075 
L 245.514088 -36.4075 
L 245.514088 -36.4075 
L 241.580334 -36.4075 
L 241.580334 -36.4075 
L 237.64658 -36.4075 
L 237.64658 -36.4075 
L 233.712825 -36.4075 
L 233.712825 -36.4075 
L 229.779071 -36.4075 
L 229.779071 -38.808888 
L 225.845317 -38.808888 
L 225.845317 -36.4075 
L 221.911563 -36.4075 
L 221.911563 -36.4075 
L 217.977809 -36.4075 
L 217.977809 -37.207963 
L 214.044055 -37.207963 
L 214.044055 -36.4075 
L 210.1103 -36.4075 
L 210.1103 -36.4075 
L 206.176546 -36.4075 
L 206.176546 -37.207963 
L 202.242792 -37.207963 
L 202.242792 -38.808888 
L 198.309038 -38.808888 
L 198.309038 -36.4075 
L 194.375284 -36.4075 
L 194.375284 -38.008425 
L 190.44153 -38.008425 
L 190.44153 -36.4075 
L 186.507776 -36.4075 
L 186.507776 -38.008425 
L 182.574021 -38.008425 
L 182.574021 -41.210276 
L 178.640267 -41.210276 
L 178.640267 -38.008425 
L 174.706513 -38.008425 
L 174.706513 -40.409814 
L 170.772759 -40.409814 
L 170.772759 -40.409814 
L 166.839005 -40.409814 
L 166.839005 -38.008425 
L 162.905251 -38.008425 
L 162.905251 -46.813516 
L 158.971497 -46.813516 
L 158.971497 -39.609351 
L 155.037742 -39.609351 
L 155.037742 -46.013053 
L 151.103988 -46.013053 
L 151.103988 -47.613978 
L 147.170234 -47.613978 
L 147.170234 -45.21259 
L 143.23648 -45.21259 
L 143.23648 -68.42601 
L 139.302726 -68.42601 
L 139.302726 -59.620919 
L 135.368972 -59.620919 
L 135.368972 -62.022308 
L 131.435218 -62.022308 
L 131.435218 -102.045445 
L 127.501463 -102.045445 
L 127.501463 -78.832025 
L 123.567709 -78.832025 
L 123.567709 -89.238041 
L 119.633955 -89.238041 
L 119.633955 -188.49542 
L 115.700201 -188.49542 
L 115.700201 -100.444519 
L 111.766447 -100.444519 
L 111.766447 -205.305138 
L 107.832693 -205.305138 
L 107.832693 -111.650997 
L 103.898938 -111.650997 
L 103.898938 -98.043131 
L 99.965184 -98.043131 
L 99.965184 -123.657938 
L 96.03143 -123.657938 
L 96.03143 -63.623233 
L 92.097676 -63.623233 
L 92.097676 -50.015367 
L 88.163922 -50.015367 
L 88.163922 -50.815829 
L 84.230168 -50.815829 
L 84.230168 -40.409814 
L 80.296414 -40.409814 
L 80.296414 -39.609351 
L 76.362659 -39.609351 
L 76.362659 -36.4075 
L 72.428905 -36.4075 
L 72.428905 -36.4075 
L 68.495151 -36.4075 
L 68.495151 -36.4075 
L 64.561397 -36.4075 
L 64.561397 -36.4075 
L 60.627643 -36.4075 
L 60.627643 -36.4075 
L 56.693889 -36.4075 
z
" style="stroke: #31688e"/>
    </defs>
    <g clip-path="url(#p7b0896f1d7)">
     <use xlink:href="#m0ec4f69256" x="0" y="234.548457" style="fill: #31688e; fill-opacity: 0.25; stroke: #31688e"/>
    </g>
   </g>
   <g id="line2d_15">
    <path d="M 56.693889 194.820377 
L 59.303213 192.955749 
L 60.607875 191.660023 
L 61.912537 189.81623 
L 63.2172 187.310803 
L 64.521862 184.234199 
L 67.131186 177.180148 
L 68.435848 173.282309 
L 69.74051 168.80986 
L 71.045173 163.420452 
L 72.349835 156.986422 
L 76.263821 135.097518 
L 77.568484 128.732864 
L 78.873146 123.234474 
L 80.177808 118.424942 
L 81.48247 114.113581 
L 82.787132 110.350603 
L 84.091794 107.478063 
L 85.396457 105.896445 
L 86.701119 105.706768 
L 88.005781 106.541124 
L 90.615105 109.029213 
L 91.919768 110.480474 
L 93.22443 112.811079 
L 94.529092 116.669912 
L 95.833754 122.159475 
L 102.357065 154.594275 
L 104.966389 166.449604 
L 106.271052 171.850425 
L 107.575714 176.391759 
L 108.880376 179.81408 
L 110.185038 182.145722 
L 111.4897 183.709304 
L 114.099025 186.348115 
L 118.013011 191.281147 
L 119.317673 192.5383 
L 120.622336 193.404971 
L 121.926998 193.949178 
L 124.536322 194.574347 
L 127.145646 195.216608 
L 133.668957 197.097626 
L 136.278282 197.383867 
L 138.887606 197.352328 
L 141.49693 197.266408 
L 144.106255 197.455484 
L 148.020241 197.975126 
L 150.629566 198.110661 
L 155.848214 198.084573 
L 163.676187 197.791243 
L 170.199498 198.12088 
L 183.24612 198.140957 
L 316.321662 198.140957 
L 316.321662 198.140957 
" clip-path="url(#p7b0896f1d7)" style="fill: none; stroke: #35b779; stroke-width: 1.5; stroke-linecap: round"/>
   </g>
   <g id="line2d_16">
    <path d="M 56.693889 198.140746 
L 67.131186 198.030802 
L 69.74051 197.823882 
L 72.349835 197.374483 
L 74.959159 196.551596 
L 76.263821 195.962377 
L 77.568484 195.236128 
L 78.873146 194.356586 
L 80.177808 193.300934 
L 81.48247 192.035153 
L 82.787132 190.510306 
L 84.091794 188.661594 
L 85.396457 186.411816 
L 86.701119 183.679912 
L 88.005781 180.393655 
L 89.310443 176.503691 
L 90.615105 171.995044 
L 91.919768 166.89244 
L 94.529092 155.181282 
L 98.443078 135.40509 
L 101.052403 122.162185 
L 103.661727 110.254314 
L 104.966389 105.238478 
L 106.271052 101.068446 
L 107.575714 97.864343 
L 108.880376 95.688799 
L 110.185038 94.542911 
L 111.4897 94.377755 
L 112.794362 95.117825 
L 114.099025 96.686977 
L 115.403687 99.02549 
L 116.708349 102.090582 
L 118.013011 105.840744 
L 119.317673 110.21254 
L 121.926998 120.361957 
L 125.840984 136.557071 
L 128.450309 146.163547 
L 129.754971 150.357535 
L 131.059633 154.139202 
L 133.668957 160.669184 
L 136.278282 166.368711 
L 141.49693 177.157422 
L 144.106255 181.863948 
L 145.410917 183.795663 
L 146.715579 185.388903 
L 148.020241 186.648239 
L 149.324903 187.614471 
L 150.629566 188.352826 
L 153.23889 189.432426 
L 159.762201 191.619053 
L 166.285512 193.544071 
L 170.199498 194.478679 
L 172.808823 194.921093 
L 176.722809 195.30031 
L 181.941458 195.6986 
L 185.855445 196.28456 
L 189.769431 196.893928 
L 192.378755 197.131407 
L 196.292742 197.200076 
L 202.816053 197.171329 
L 208.034702 197.546763 
L 211.948688 197.77104 
L 217.167337 197.789981 
L 222.385986 197.598266 
L 227.604634 197.393918 
L 231.518621 197.570614 
L 238.041932 198.033146 
L 243.26058 198.131719 
L 257.611864 198.095211 
L 264.135175 197.84337 
L 269.353824 197.673261 
L 274.572473 197.811721 
L 278.486459 197.872141 
L 288.923757 197.724875 
L 300.665716 198.124428 
L 308.493689 198.062896 
L 316.321662 197.899788 
L 316.321662 197.899788 
" clip-path="url(#p7b0896f1d7)" style="fill: none; stroke: #31688e; stroke-width: 1.5; stroke-linecap: round"/>
   </g>
   <g id="patch_3">
    <path d="M 43.7125 198.140957 
L 43.7125 20.798438 
" style="fill: none; stroke: #cccccc; stroke-width: 1.25; stroke-linejoin: miter; stroke-linecap: square"/>
   </g>
   <g id="patch_4">
    <path d="M 43.7125 198.140957 
L 329.303051 198.140957 
" style="fill: none; stroke: #cccccc; stroke-width: 1.25; stroke-linejoin: miter; stroke-linecap: square"/>
   </g>
   <g id="text_17">
    <!-- Distribution of shapefactor_1 for each Class -->
    <g style="fill: #262626" transform="translate(62.810901 14.798438) scale(0.1 -0.1)">
     <defs>
      <path id="DejaVuSans-Bold-44" d="M 1791 3756 
L 1791 909 
L 2222 909 
Q 2959 909 3348 1275 
Q 3738 1641 3738 2338 
Q 3738 3031 3350 3393 
Q 2963 3756 2222 3756 
L 1791 3756 
z
M 588 4666 
L 1856 4666 
Q 2919 4666 3439 4514 
Q 3959 4363 4331 4000 
Q 4659 3684 4818 3271 
Q 4978 2859 4978 2338 
Q 4978 1809 4818 1395 
Q 4659 981 4331 666 
Q 3956 303 3431 151 
Q 2906 0 1856 0 
L 588 0 
L 588 4666 
z
" transform="scale(0.015625)"/>
      <path id="DejaVuSans-Bold-69" d="M 538 3500 
L 1656 3500 
L 1656 0 
L 538 0 
L 538 3500 
z
M 538 4863 
L 1656 4863 
L 1656 3950 
L 538 3950 
L 538 4863 
z
" transform="scale(0.015625)"/>
      <path id="DejaVuSans-Bold-73" d="M 3272 3391 
L 3272 2541 
Q 2913 2691 2578 2766 
Q 2244 2841 1947 2841 
Q 1628 2841 1473 2761 
Q 1319 2681 1319 2516 
Q 1319 2381 1436 2309 
Q 1553 2238 1856 2203 
L 2053 2175 
Q 2913 2066 3209 1816 
Q 3506 1566 3506 1031 
Q 3506 472 3093 190 
Q 2681 -91 1863 -91 
Q 1516 -91 1145 -36 
Q 775 19 384 128 
L 384 978 
Q 719 816 1070 734 
Q 1422 653 1784 653 
Q 2113 653 2278 743 
Q 2444 834 2444 1013 
Q 2444 1163 2330 1236 
Q 2216 1309 1875 1350 
L 1678 1375 
Q 931 1469 631 1722 
Q 331 1975 331 2491 
Q 331 3047 712 3315 
Q 1094 3584 1881 3584 
Q 2191 3584 2531 3537 
Q 2872 3491 3272 3391 
z
" transform="scale(0.015625)"/>
      <path id="DejaVuSans-Bold-74" d="M 1759 4494 
L 1759 3500 
L 2913 3500 
L 2913 2700 
L 1759 2700 
L 1759 1216 
Q 1759 972 1856 886 
Q 1953 800 2241 800 
L 2816 800 
L 2816 0 
L 1856 0 
Q 1194 0 917 276 
Q 641 553 641 1216 
L 641 2700 
L 84 2700 
L 84 3500 
L 641 3500 
L 641 4494 
L 1759 4494 
z
" transform="scale(0.015625)"/>
      <path id="DejaVuSans-Bold-72" d="M 3138 2547 
Q 2991 2616 2845 2648 
Q 2700 2681 2553 2681 
Q 2122 2681 1889 2404 
Q 1656 2128 1656 1613 
L 1656 0 
L 538 0 
L 538 3500 
L 1656 3500 
L 1656 2925 
Q 1872 3269 2151 3426 
Q 2431 3584 2822 3584 
Q 2878 3584 2943 3579 
Q 3009 3575 3134 3559 
L 3138 2547 
z
" transform="scale(0.015625)"/>
      <path id="DejaVuSans-Bold-62" d="M 2400 722 
Q 2759 722 2948 984 
Q 3138 1247 3138 1747 
Q 3138 2247 2948 2509 
Q 2759 2772 2400 2772 
Q 2041 2772 1848 2508 
Q 1656 2244 1656 1747 
Q 1656 1250 1848 986 
Q 2041 722 2400 722 
z
M 1656 2988 
Q 1888 3294 2169 3439 
Q 2450 3584 2816 3584 
Q 3463 3584 3878 3070 
Q 4294 2556 4294 1747 
Q 4294 938 3878 423 
Q 3463 -91 2816 -91 
Q 2450 -91 2169 54 
Q 1888 200 1656 506 
L 1656 0 
L 538 0 
L 538 4863 
L 1656 4863 
L 1656 2988 
z
" transform="scale(0.015625)"/>
      <path id="DejaVuSans-Bold-75" d="M 500 1363 
L 500 3500 
L 1625 3500 
L 1625 3150 
Q 1625 2866 1622 2436 
Q 1619 2006 1619 1863 
Q 1619 1441 1641 1255 
Q 1663 1069 1716 984 
Q 1784 875 1895 815 
Q 2006 756 2150 756 
Q 2500 756 2700 1025 
Q 2900 1294 2900 1772 
L 2900 3500 
L 4019 3500 
L 4019 0 
L 2900 0 
L 2900 506 
Q 2647 200 2364 54 
Q 2081 -91 1741 -91 
Q 1134 -91 817 281 
Q 500 653 500 1363 
z
" transform="scale(0.015625)"/>
      <path id="DejaVuSans-Bold-6f" d="M 2203 2784 
Q 1831 2784 1636 2517 
Q 1441 2250 1441 1747 
Q 1441 1244 1636 976 
Q 1831 709 2203 709 
Q 2569 709 2762 976 
Q 2956 1244 2956 1747 
Q 2956 2250 2762 2517 
Q 2569 2784 2203 2784 
z
M 2203 3584 
Q 3106 3584 3614 3096 
Q 4122 2609 4122 1747 
Q 4122 884 3614 396 
Q 3106 -91 2203 -91 
Q 1297 -91 786 396 
Q 275 884 275 1747 
Q 275 2609 786 3096 
Q 1297 3584 2203 3584 
z
" transform="scale(0.015625)"/>
      <path id="DejaVuSans-Bold-6e" d="M 4056 2131 
L 4056 0 
L 2931 0 
L 2931 347 
L 2931 1631 
Q 2931 2084 2911 2256 
Q 2891 2428 2841 2509 
Q 2775 2619 2662 2680 
Q 2550 2741 2406 2741 
Q 2056 2741 1856 2470 
Q 1656 2200 1656 1722 
L 1656 0 
L 538 0 
L 538 3500 
L 1656 3500 
L 1656 2988 
Q 1909 3294 2193 3439 
Q 2478 3584 2822 3584 
Q 3428 3584 3742 3212 
Q 4056 2841 4056 2131 
z
" transform="scale(0.015625)"/>
      <path id="DejaVuSans-Bold-20" transform="scale(0.015625)"/>
      <path id="DejaVuSans-Bold-66" d="M 2841 4863 
L 2841 4128 
L 2222 4128 
Q 1984 4128 1890 4042 
Q 1797 3956 1797 3744 
L 1797 3500 
L 2753 3500 
L 2753 2700 
L 1797 2700 
L 1797 0 
L 678 0 
L 678 2700 
L 122 2700 
L 122 3500 
L 678 3500 
L 678 3744 
Q 678 4316 997 4589 
Q 1316 4863 1984 4863 
L 2841 4863 
z
" transform="scale(0.015625)"/>
      <path id="DejaVuSans-Bold-68" d="M 4056 2131 
L 4056 0 
L 2931 0 
L 2931 347 
L 2931 1625 
Q 2931 2084 2911 2256 
Q 2891 2428 2841 2509 
Q 2775 2619 2662 2680 
Q 2550 2741 2406 2741 
Q 2056 2741 1856 2470 
Q 1656 2200 1656 1722 
L 1656 0 
L 538 0 
L 538 4863 
L 1656 4863 
L 1656 2988 
Q 1909 3294 2193 3439 
Q 2478 3584 2822 3584 
Q 3428 3584 3742 3212 
Q 4056 2841 4056 2131 
z
" transform="scale(0.015625)"/>
      <path id="DejaVuSans-Bold-61" d="M 2106 1575 
Q 1756 1575 1579 1456 
Q 1403 1338 1403 1106 
Q 1403 894 1545 773 
Q 1688 653 1941 653 
Q 2256 653 2472 879 
Q 2688 1106 2688 1447 
L 2688 1575 
L 2106 1575 
z
M 3816 1997 
L 3816 0 
L 2688 0 
L 2688 519 
Q 2463 200 2181 54 
Q 1900 -91 1497 -91 
Q 953 -91 614 226 
Q 275 544 275 1050 
Q 275 1666 698 1953 
Q 1122 2241 2028 2241 
L 2688 2241 
L 2688 2328 
Q 2688 2594 2478 2717 
Q 2269 2841 1825 2841 
Q 1466 2841 1156 2769 
Q 847 2697 581 2553 
L 581 3406 
Q 941 3494 1303 3539 
Q 1666 3584 2028 3584 
Q 2975 3584 3395 3211 
Q 3816 2838 3816 1997 
z
" transform="scale(0.015625)"/>
      <path id="DejaVuSans-Bold-70" d="M 1656 506 
L 1656 -1331 
L 538 -1331 
L 538 3500 
L 1656 3500 
L 1656 2988 
Q 1888 3294 2169 3439 
Q 2450 3584 2816 3584 
Q 3463 3584 3878 3070 
Q 4294 2556 4294 1747 
Q 4294 938 3878 423 
Q 3463 -91 2816 -91 
Q 2450 -91 2169 54 
Q 1888 200 1656 506 
z
M 2400 2772 
Q 2041 2772 1848 2508 
Q 1656 2244 1656 1747 
Q 1656 1250 1848 986 
Q 2041 722 2400 722 
Q 2759 722 2948 984 
Q 3138 1247 3138 1747 
Q 3138 2247 2948 2509 
Q 2759 2772 2400 2772 
z
" transform="scale(0.015625)"/>
      <path id="DejaVuSans-Bold-65" d="M 4031 1759 
L 4031 1441 
L 1416 1441 
Q 1456 1047 1700 850 
Q 1944 653 2381 653 
Q 2734 653 3104 758 
Q 3475 863 3866 1075 
L 3866 213 
Q 3469 63 3072 -14 
Q 2675 -91 2278 -91 
Q 1328 -91 801 392 
Q 275 875 275 1747 
Q 275 2603 792 3093 
Q 1309 3584 2216 3584 
Q 3041 3584 3536 3087 
Q 4031 2591 4031 1759 
z
M 2881 2131 
Q 2881 2450 2695 2645 
Q 2509 2841 2209 2841 
Q 1884 2841 1681 2658 
Q 1478 2475 1428 2131 
L 2881 2131 
z
" transform="scale(0.015625)"/>
      <path id="DejaVuSans-Bold-63" d="M 3366 3391 
L 3366 2478 
Q 3138 2634 2908 2709 
Q 2678 2784 2431 2784 
Q 1963 2784 1702 2511 
Q 1441 2238 1441 1747 
Q 1441 1256 1702 982 
Q 1963 709 2431 709 
Q 2694 709 2930 787 
Q 3166 866 3366 1019 
L 3366 103 
Q 3103 6 2833 -42 
Q 2563 -91 2291 -91 
Q 1344 -91 809 395 
Q 275 881 275 1747 
Q 275 2613 809 3098 
Q 1344 3584 2291 3584 
Q 2566 3584 2833 3536 
Q 3100 3488 3366 3391 
z
" transform="scale(0.015625)"/>
      <path id="DejaVuSans-Bold-5f" d="M 3200 -916 
L 3200 -1509 
L 0 -1509 
L 0 -916 
L 3200 -916 
z
" transform="scale(0.015625)"/>
      <path id="DejaVuSans-Bold-31" d="M 750 831 
L 1813 831 
L 1813 3847 
L 722 3622 
L 722 4441 
L 1806 4666 
L 2950 4666 
L 2950 831 
L 4013 831 
L 4013 0 
L 750 0 
L 750 831 
z
" transform="scale(0.015625)"/>
      <path id="DejaVuSans-Bold-43" d="M 4288 256 
Q 3956 84 3597 -3 
Q 3238 -91 2847 -91 
Q 1681 -91 1000 561 
Q 319 1213 319 2328 
Q 319 3447 1000 4098 
Q 1681 4750 2847 4750 
Q 3238 4750 3597 4662 
Q 3956 4575 4288 4403 
L 4288 3438 
Q 3953 3666 3628 3772 
Q 3303 3878 2944 3878 
Q 2300 3878 1931 3465 
Q 1563 3053 1563 2328 
Q 1563 1606 1931 1193 
Q 2300 781 2944 781 
Q 3303 781 3628 887 
Q 3953 994 4288 1222 
L 4288 256 
z
" transform="scale(0.015625)"/>
      <path id="DejaVuSans-Bold-6c" d="M 538 4863 
L 1656 4863 
L 1656 0 
L 538 0 
L 538 4863 
z
" transform="scale(0.015625)"/>
     </defs>
     <use xlink:href="#DejaVuSans-Bold-44"/>
     <use xlink:href="#DejaVuSans-Bold-69" transform="translate(83.007812 0)"/>
     <use xlink:href="#DejaVuSans-Bold-73" transform="translate(117.285156 0)"/>
     <use xlink:href="#DejaVuSans-Bold-74" transform="translate(176.806641 0)"/>
     <use xlink:href="#DejaVuSans-Bold-72" transform="translate(224.609375 0)"/>
     <use xlink:href="#DejaVuSans-Bold-69" transform="translate(273.925781 0)"/>
     <use xlink:href="#DejaVuSans-Bold-62" transform="translate(308.203125 0)"/>
     <use xlink:href="#DejaVuSans-Bold-75" transform="translate(379.785156 0)"/>
     <use xlink:href="#DejaVuSans-Bold-74" transform="translate(450.976562 0)"/>
     <use xlink:href="#DejaVuSans-Bold-69" transform="translate(498.779297 0)"/>
     <use xlink:href="#DejaVuSans-Bold-6f" transform="translate(533.056641 0)"/>
     <use xlink:href="#DejaVuSans-Bold-6e" transform="translate(601.757812 0)"/>
     <use xlink:href="#DejaVuSans-Bold-20" transform="translate(672.949219 0)"/>
     <use xlink:href="#DejaVuSans-Bold-6f" transform="translate(707.763672 0)"/>
     <use xlink:href="#DejaVuSans-Bold-66" transform="translate(776.464844 0)"/>
     <use xlink:href="#DejaVuSans-Bold-20" transform="translate(819.970703 0)"/>
     <use xlink:href="#DejaVuSans-Bold-73" transform="translate(854.785156 0)"/>
     <use xlink:href="#DejaVuSans-Bold-68" transform="translate(914.306641 0)"/>
     <use xlink:href="#DejaVuSans-Bold-61" transform="translate(985.498047 0)"/>
     <use xlink:href="#DejaVuSans-Bold-70" transform="translate(1052.978516 0)"/>
     <use xlink:href="#DejaVuSans-Bold-65" transform="translate(1124.560547 0)"/>
     <use xlink:href="#DejaVuSans-Bold-66" transform="translate(1192.382812 0)"/>
     <use xlink:href="#DejaVuSans-Bold-61" transform="translate(1235.888672 0)"/>
     <use xlink:href="#DejaVuSans-Bold-63" transform="translate(1303.369141 0)"/>
     <use xlink:href="#DejaVuSans-Bold-74" transform="translate(1362.646484 0)"/>
     <use xlink:href="#DejaVuSans-Bold-6f" transform="translate(1410.449219 0)"/>
     <use xlink:href="#DejaVuSans-Bold-72" transform="translate(1479.150391 0)"/>
     <use xlink:href="#DejaVuSans-Bold-5f" transform="translate(1528.466797 0)"/>
     <use xlink:href="#DejaVuSans-Bold-31" transform="translate(1578.466797 0)"/>
     <use xlink:href="#DejaVuSans-Bold-20" transform="translate(1648.046875 0)"/>
     <use xlink:href="#DejaVuSans-Bold-66" transform="translate(1682.861328 0)"/>
     <use xlink:href="#DejaVuSans-Bold-6f" transform="translate(1726.367188 0)"/>
     <use xlink:href="#DejaVuSans-Bold-72" transform="translate(1795.068359 0)"/>
     <use xlink:href="#DejaVuSans-Bold-20" transform="translate(1844.384766 0)"/>
     <use xlink:href="#DejaVuSans-Bold-65" transform="translate(1879.199219 0)"/>
     <use xlink:href="#DejaVuSans-Bold-61" transform="translate(1947.021484 0)"/>
     <use xlink:href="#DejaVuSans-Bold-63" transform="translate(2014.501953 0)"/>
     <use xlink:href="#DejaVuSans-Bold-68" transform="translate(2073.779297 0)"/>
     <use xlink:href="#DejaVuSans-Bold-20" transform="translate(2144.970703 0)"/>
     <use xlink:href="#DejaVuSans-Bold-43" transform="translate(2179.785156 0)"/>
     <use xlink:href="#DejaVuSans-Bold-6c" transform="translate(2253.173828 0)"/>
     <use xlink:href="#DejaVuSans-Bold-61" transform="translate(2287.451172 0)"/>
     <use xlink:href="#DejaVuSans-Bold-73" transform="translate(2354.931641 0)"/>
     <use xlink:href="#DejaVuSans-Bold-73" transform="translate(2414.453125 0)"/>
    </g>
   </g>
   <g id="legend_1">
    <g id="patch_5">
     <path d="M 219.690551 73.013437 
L 321.603051 73.013437 
Q 323.803051 73.013437 323.803051 70.813437 
L 323.803051 28.498437 
Q 323.803051 26.298438 321.603051 26.298438 
L 219.690551 26.298438 
Q 217.490551 26.298438 217.490551 28.498437 
L 217.490551 70.813437 
Q 217.490551 73.013437 219.690551 73.013437 
z
" style="fill: #ffffff; opacity: 0.8; stroke: #cccccc; stroke-linejoin: miter"/>
    </g>
    <g id="text_18">
     <!-- Class -->
     <g style="fill: #262626" transform="translate(260.123676 36.777187) scale(0.08 -0.08)">
      <defs>
       <path id="DejaVuSans-6c" d="M 603 4863 
L 1178 4863 
L 1178 0 
L 603 0 
L 603 4863 
z
" transform="scale(0.015625)"/>
      </defs>
      <use xlink:href="#DejaVuSans-43"/>
      <use xlink:href="#DejaVuSans-6c" transform="translate(69.824219 0)"/>
      <use xlink:href="#DejaVuSans-61" transform="translate(97.607422 0)"/>
      <use xlink:href="#DejaVuSans-73" transform="translate(158.886719 0)"/>
      <use xlink:href="#DejaVuSans-73" transform="translate(210.986328 0)"/>
     </g>
    </g>
    <g id="patch_6">
     <path d="M 221.890551 51.640938 
L 243.890551 51.640938 
L 243.890551 43.940938 
L 221.890551 43.940938 
z
" style="fill: #31688e; fill-opacity: 0.25; stroke: #31688e; stroke-linejoin: miter"/>
    </g>
    <g id="text_19">
     <!-- Kirmizi_Pistachio -->
     <g style="fill: #262626" transform="translate(252.690551 51.640938) scale(0.08 -0.08)">
      <defs>
       <path id="DejaVuSans-4b" d="M 628 4666 
L 1259 4666 
L 1259 2694 
L 3353 4666 
L 4166 4666 
L 1850 2491 
L 4331 0 
L 3500 0 
L 1259 2247 
L 1259 0 
L 628 0 
L 628 4666 
z
" transform="scale(0.015625)"/>
       <path id="DejaVuSans-69" d="M 603 3500 
L 1178 3500 
L 1178 0 
L 603 0 
L 603 3500 
z
M 603 4863 
L 1178 4863 
L 1178 4134 
L 603 4134 
L 603 4863 
z
" transform="scale(0.015625)"/>
       <path id="DejaVuSans-6d" d="M 3328 2828 
Q 3544 3216 3844 3400 
Q 4144 3584 4550 3584 
Q 5097 3584 5394 3201 
Q 5691 2819 5691 2113 
L 5691 0 
L 5113 0 
L 5113 2094 
Q 5113 2597 4934 2840 
Q 4756 3084 4391 3084 
Q 3944 3084 3684 2787 
Q 3425 2491 3425 1978 
L 3425 0 
L 2847 0 
L 2847 2094 
Q 2847 2600 2669 2842 
Q 2491 3084 2119 3084 
Q 1678 3084 1418 2786 
Q 1159 2488 1159 1978 
L 1159 0 
L 581 0 
L 581 3500 
L 1159 3500 
L 1159 2956 
Q 1356 3278 1631 3431 
Q 1906 3584 2284 3584 
Q 2666 3584 2933 3390 
Q 3200 3197 3328 2828 
z
" transform="scale(0.015625)"/>
       <path id="DejaVuSans-7a" d="M 353 3500 
L 3084 3500 
L 3084 2975 
L 922 459 
L 3084 459 
L 3084 0 
L 275 0 
L 275 525 
L 2438 3041 
L 353 3041 
L 353 3500 
z
" transform="scale(0.015625)"/>
       <path id="DejaVuSans-50" d="M 1259 4147 
L 1259 2394 
L 2053 2394 
Q 2494 2394 2734 2622 
Q 2975 2850 2975 3272 
Q 2975 3691 2734 3919 
Q 2494 4147 2053 4147 
L 1259 4147 
z
M 628 4666 
L 2053 4666 
Q 2838 4666 3239 4311 
Q 3641 3956 3641 3272 
Q 3641 2581 3239 2228 
Q 2838 1875 2053 1875 
L 1259 1875 
L 1259 0 
L 628 0 
L 628 4666 
z
" transform="scale(0.015625)"/>
      </defs>
      <use xlink:href="#DejaVuSans-4b"/>
      <use xlink:href="#DejaVuSans-69" transform="translate(65.576172 0)"/>
      <use xlink:href="#DejaVuSans-72" transform="translate(93.359375 0)"/>
      <use xlink:href="#DejaVuSans-6d" transform="translate(132.722656 0)"/>
      <use xlink:href="#DejaVuSans-69" transform="translate(230.134766 0)"/>
      <use xlink:href="#DejaVuSans-7a" transform="translate(257.917969 0)"/>
      <use xlink:href="#DejaVuSans-69" transform="translate(310.408203 0)"/>
      <use xlink:href="#DejaVuSans-5f" transform="translate(338.191406 0)"/>
      <use xlink:href="#DejaVuSans-50" transform="translate(388.191406 0)"/>
      <use xlink:href="#DejaVuSans-69" transform="translate(446.244141 0)"/>
      <use xlink:href="#DejaVuSans-73" transform="translate(474.027344 0)"/>
      <use xlink:href="#DejaVuSans-74" transform="translate(526.126953 0)"/>
      <use xlink:href="#DejaVuSans-61" transform="translate(565.335938 0)"/>
      <use xlink:href="#DejaVuSans-63" transform="translate(626.615234 0)"/>
      <use xlink:href="#DejaVuSans-68" transform="translate(681.595703 0)"/>
      <use xlink:href="#DejaVuSans-69" transform="translate(744.974609 0)"/>
      <use xlink:href="#DejaVuSans-6f" transform="translate(772.757812 0)"/>
     </g>
    </g>
    <g id="patch_7">
     <path d="M 221.890551 66.727188 
L 243.890551 66.727188 
L 243.890551 59.027188 
L 221.890551 59.027188 
z
" style="fill: #35b779; fill-opacity: 0.25; stroke: #35b779; stroke-linejoin: miter"/>
    </g>
    <g id="text_20">
     <!-- Siirt_Pistachio -->
     <g style="fill: #262626" transform="translate(252.690551 66.727188) scale(0.08 -0.08)">
      <defs>
       <path id="DejaVuSans-53" d="M 3425 4513 
L 3425 3897 
Q 3066 4069 2747 4153 
Q 2428 4238 2131 4238 
Q 1616 4238 1336 4038 
Q 1056 3838 1056 3469 
Q 1056 3159 1242 3001 
Q 1428 2844 1947 2747 
L 2328 2669 
Q 3034 2534 3370 2195 
Q 3706 1856 3706 1288 
Q 3706 609 3251 259 
Q 2797 -91 1919 -91 
Q 1588 -91 1214 -16 
Q 841 59 441 206 
L 441 856 
Q 825 641 1194 531 
Q 1563 422 1919 422 
Q 2459 422 2753 634 
Q 3047 847 3047 1241 
Q 3047 1584 2836 1778 
Q 2625 1972 2144 2069 
L 1759 2144 
Q 1053 2284 737 2584 
Q 422 2884 422 3419 
Q 422 4038 858 4394 
Q 1294 4750 2059 4750 
Q 2388 4750 2728 4690 
Q 3069 4631 3425 4513 
z
" transform="scale(0.015625)"/>
      </defs>
      <use xlink:href="#DejaVuSans-53"/>
      <use xlink:href="#DejaVuSans-69" transform="translate(63.476562 0)"/>
      <use xlink:href="#DejaVuSans-69" transform="translate(91.259766 0)"/>
      <use xlink:href="#DejaVuSans-72" transform="translate(119.042969 0)"/>
      <use xlink:href="#DejaVuSans-74" transform="translate(160.15625 0)"/>
      <use xlink:href="#DejaVuSans-5f" transform="translate(199.365234 0)"/>
      <use xlink:href="#DejaVuSans-50" transform="translate(249.365234 0)"/>
      <use xlink:href="#DejaVuSans-69" transform="translate(307.417969 0)"/>
      <use xlink:href="#DejaVuSans-73" transform="translate(335.201172 0)"/>
      <use xlink:href="#DejaVuSans-74" transform="translate(387.300781 0)"/>
      <use xlink:href="#DejaVuSans-61" transform="translate(426.509766 0)"/>
      <use xlink:href="#DejaVuSans-63" transform="translate(487.789062 0)"/>
      <use xlink:href="#DejaVuSans-68" transform="translate(542.769531 0)"/>
      <use xlink:href="#DejaVuSans-69" transform="translate(606.148438 0)"/>
      <use xlink:href="#DejaVuSans-6f" transform="translate(633.931641 0)"/>
     </g>
    </g>
   </g>
  </g>
 </g>
 <defs>
  <clipPath id="p7b0896f1d7">
   <rect x="43.7125" y="20.798438" width="285.590551" height="177.34252"/>
  </clipPath>
 </defs>
</svg>
